%TF.GenerationSoftware,KiCad,Pcbnew,(6.0.7)*%
%TF.CreationDate,2023-06-05T08:41:08+05:30*%
%TF.ProjectId,autonomous chess playing machine,6175746f-6e6f-46d6-9f75-732063686573,rev?*%
%TF.SameCoordinates,Original*%
%TF.FileFunction,Copper,L2,Bot*%
%TF.FilePolarity,Positive*%
%FSLAX46Y46*%
G04 Gerber Fmt 4.6, Leading zero omitted, Abs format (unit mm)*
G04 Created by KiCad (PCBNEW (6.0.7)) date 2023-06-05 08:41:08*
%MOMM*%
%LPD*%
G01*
G04 APERTURE LIST*
G04 Aperture macros list*
%AMRoundRect*
0 Rectangle with rounded corners*
0 $1 Rounding radius*
0 $2 $3 $4 $5 $6 $7 $8 $9 X,Y pos of 4 corners*
0 Add a 4 corners polygon primitive as box body*
4,1,4,$2,$3,$4,$5,$6,$7,$8,$9,$2,$3,0*
0 Add four circle primitives for the rounded corners*
1,1,$1+$1,$2,$3*
1,1,$1+$1,$4,$5*
1,1,$1+$1,$6,$7*
1,1,$1+$1,$8,$9*
0 Add four rect primitives between the rounded corners*
20,1,$1+$1,$2,$3,$4,$5,0*
20,1,$1+$1,$4,$5,$6,$7,0*
20,1,$1+$1,$6,$7,$8,$9,0*
20,1,$1+$1,$8,$9,$2,$3,0*%
G04 Aperture macros list end*
%TA.AperFunction,Profile*%
%ADD10C,0.100000*%
%TD*%
%TA.AperFunction,ComponentPad*%
%ADD11C,1.400000*%
%TD*%
%TA.AperFunction,ComponentPad*%
%ADD12RoundRect,0.250000X-0.725000X0.600000X-0.725000X-0.600000X0.725000X-0.600000X0.725000X0.600000X0*%
%TD*%
%TA.AperFunction,ComponentPad*%
%ADD13O,1.950000X1.700000*%
%TD*%
%TA.AperFunction,ComponentPad*%
%ADD14RoundRect,0.250000X0.725000X-0.600000X0.725000X0.600000X-0.725000X0.600000X-0.725000X-0.600000X0*%
%TD*%
%TA.AperFunction,ComponentPad*%
%ADD15R,2.400000X1.600000*%
%TD*%
%TA.AperFunction,ComponentPad*%
%ADD16O,2.400000X1.600000*%
%TD*%
%TA.AperFunction,ComponentPad*%
%ADD17R,1.700000X1.700000*%
%TD*%
%TA.AperFunction,ComponentPad*%
%ADD18O,1.700000X1.700000*%
%TD*%
%TA.AperFunction,ViaPad*%
%ADD19C,1.500000*%
%TD*%
%TA.AperFunction,Conductor*%
%ADD20C,0.500000*%
%TD*%
G04 APERTURE END LIST*
D10*
X28000000Y-30000000D02*
X248000000Y-30000000D01*
X248000000Y-30000000D02*
X248000000Y-100000000D01*
X248000000Y-100000000D02*
X28000000Y-100000000D01*
X28000000Y-100000000D02*
X28000000Y-30000000D01*
D11*
%TO.P,C2,1*%
%TO.N,/Ground*%
X111000000Y-39000000D03*
%TO.P,C2,2*%
%TO.N,Net-(C1-Pad2)*%
X113500000Y-39000000D03*
%TD*%
%TO.P,C1,1*%
%TO.N,/Ground*%
X58000000Y-39000000D03*
%TO.P,C1,2*%
%TO.N,Net-(C1-Pad2)*%
X60500000Y-39000000D03*
%TD*%
D12*
%TO.P,J5,1,Pin_1*%
%TO.N,Net-(C1-Pad2)*%
X132525000Y-44500000D03*
D13*
%TO.P,J5,2,Pin_2*%
%TO.N,/Ground*%
X132525000Y-47000000D03*
%TO.P,J5,3,Pin_3*%
%TO.N,Net-(J5-Pad3)*%
X132525000Y-49500000D03*
%TO.P,J5,4,Pin_4*%
%TO.N,Net-(J5-Pad4)*%
X132525000Y-52000000D03*
%TO.P,J5,5,Pin_5*%
%TO.N,Net-(J5-Pad5)*%
X132525000Y-54500000D03*
%TO.P,J5,6,Pin_6*%
%TO.N,Net-(J5-Pad6)*%
X132525000Y-57000000D03*
%TO.P,J5,7,Pin_7*%
%TO.N,Net-(J5-Pad7)*%
X132525000Y-59500000D03*
%TO.P,J5,8,Pin_8*%
%TO.N,Net-(J5-Pad8)*%
X132525000Y-62000000D03*
%TO.P,J5,9,Pin_9*%
%TO.N,Net-(J5-Pad9)*%
X132525000Y-64500000D03*
%TO.P,J5,10,Pin_10*%
%TO.N,Net-(J5-Pad10)*%
X132525000Y-67000000D03*
%TO.P,J5,11,Pin_11*%
%TO.N,/Ground*%
X132525000Y-69500000D03*
%TD*%
D12*
%TO.P,J3,1,Pin_1*%
%TO.N,Net-(C1-Pad2)*%
X80025000Y-44500000D03*
D13*
%TO.P,J3,2,Pin_2*%
%TO.N,/Ground*%
X80025000Y-47000000D03*
%TO.P,J3,3,Pin_3*%
%TO.N,Net-(J3-Pad3)*%
X80025000Y-49500000D03*
%TO.P,J3,4,Pin_4*%
%TO.N,Net-(J3-Pad4)*%
X80025000Y-52000000D03*
%TO.P,J3,5,Pin_5*%
%TO.N,Net-(J3-Pad5)*%
X80025000Y-54500000D03*
%TO.P,J3,6,Pin_6*%
%TO.N,Net-(J3-Pad6)*%
X80025000Y-57000000D03*
%TO.P,J3,7,Pin_7*%
%TO.N,Net-(J3-Pad7)*%
X80025000Y-59500000D03*
%TO.P,J3,8,Pin_8*%
%TO.N,Net-(J3-Pad8)*%
X80025000Y-62000000D03*
%TO.P,J3,9,Pin_9*%
%TO.N,Net-(J3-Pad9)*%
X80025000Y-64500000D03*
%TO.P,J3,10,Pin_10*%
%TO.N,Net-(J3-Pad10)*%
X80025000Y-67000000D03*
%TO.P,J3,11,Pin_11*%
%TO.N,/Ground*%
X80025000Y-69500000D03*
%TD*%
D14*
%TO.P,J6,1,Pin_1*%
%TO.N,Net-(C1-Pad2)*%
X147000000Y-69500000D03*
D13*
%TO.P,J6,2,Pin_2*%
%TO.N,/Ground*%
X147000000Y-67000000D03*
%TO.P,J6,3,Pin_3*%
%TO.N,Net-(J6-Pad3)*%
X147000000Y-64500000D03*
%TO.P,J6,4,Pin_4*%
%TO.N,Net-(J6-Pad4)*%
X147000000Y-62000000D03*
%TO.P,J6,5,Pin_5*%
%TO.N,Net-(J6-Pad5)*%
X147000000Y-59500000D03*
%TO.P,J6,6,Pin_6*%
%TO.N,Net-(J6-Pad6)*%
X147000000Y-57000000D03*
%TO.P,J6,7,Pin_7*%
%TO.N,Net-(J6-Pad7)*%
X147000000Y-54500000D03*
%TO.P,J6,8,Pin_8*%
%TO.N,Net-(J6-Pad8)*%
X147000000Y-52000000D03*
%TO.P,J6,9,Pin_9*%
%TO.N,Net-(J6-Pad9)*%
X147000000Y-49500000D03*
%TO.P,J6,10,Pin_10*%
%TO.N,Net-(J6-Pad10)*%
X147000000Y-47000000D03*
%TO.P,J6,11,Pin_11*%
%TO.N,/Ground*%
X147000000Y-44500000D03*
%TD*%
D15*
%TO.P,U3,1,COM*%
%TO.N,Net-(J1-Pad9)*%
X159375000Y-43025000D03*
D16*
%TO.P,U3,2,I7*%
%TO.N,Net-(J6-Pad10)*%
X159375000Y-45565000D03*
%TO.P,U3,3,I6*%
%TO.N,Net-(J6-Pad9)*%
X159375000Y-48105000D03*
%TO.P,U3,4,I5*%
%TO.N,Net-(J6-Pad8)*%
X159375000Y-50645000D03*
%TO.P,U3,5,I4*%
%TO.N,Net-(J6-Pad7)*%
X159375000Y-53185000D03*
%TO.P,U3,6,I3*%
%TO.N,Net-(J6-Pad6)*%
X159375000Y-55725000D03*
%TO.P,U3,7,I2*%
%TO.N,Net-(J6-Pad5)*%
X159375000Y-58265000D03*
%TO.P,U3,8,I1*%
%TO.N,Net-(J6-Pad4)*%
X159375000Y-60805000D03*
%TO.P,U3,9,I0*%
%TO.N,Net-(J6-Pad3)*%
X159375000Y-63345000D03*
%TO.P,U3,10,S0*%
%TO.N,Net-(J1-Pad3)*%
X159375000Y-65885000D03*
%TO.P,U3,11,S1*%
%TO.N,Net-(J1-Pad4)*%
X159375000Y-68425000D03*
%TO.P,U3,12,GND*%
%TO.N,/Ground*%
X159375000Y-70965000D03*
%TO.P,U3,13,S3*%
%TO.N,Net-(J1-Pad6)*%
X174615000Y-70965000D03*
%TO.P,U3,14,S2*%
%TO.N,Net-(J1-Pad5)*%
X174615000Y-68425000D03*
%TO.P,U3,15,~{E}*%
%TO.N,/Ground*%
X174615000Y-65885000D03*
%TO.P,U3,16,I15*%
%TO.N,Net-(J7-Pad10)*%
X174615000Y-63345000D03*
%TO.P,U3,17,I14*%
%TO.N,Net-(J7-Pad9)*%
X174615000Y-60805000D03*
%TO.P,U3,18,I13*%
%TO.N,Net-(J7-Pad8)*%
X174615000Y-58265000D03*
%TO.P,U3,19,I12*%
%TO.N,Net-(J7-Pad7)*%
X174615000Y-55725000D03*
%TO.P,U3,20,I11*%
%TO.N,Net-(J7-Pad6)*%
X174615000Y-53185000D03*
%TO.P,U3,21,I10*%
%TO.N,Net-(J7-Pad5)*%
X174615000Y-50645000D03*
%TO.P,U3,22,I9*%
%TO.N,Net-(J7-Pad4)*%
X174615000Y-48105000D03*
%TO.P,U3,23,I8*%
%TO.N,Net-(J7-Pad3)*%
X174615000Y-45565000D03*
%TO.P,U3,24,VCC*%
%TO.N,Net-(C1-Pad2)*%
X174615000Y-43025000D03*
%TD*%
D14*
%TO.P,J4,1,Pin_1*%
%TO.N,Net-(C1-Pad2)*%
X92000000Y-69500000D03*
D13*
%TO.P,J4,2,Pin_2*%
%TO.N,/Ground*%
X92000000Y-67000000D03*
%TO.P,J4,3,Pin_3*%
%TO.N,Net-(J4-Pad3)*%
X92000000Y-64500000D03*
%TO.P,J4,4,Pin_4*%
%TO.N,Net-(J4-Pad4)*%
X92000000Y-62000000D03*
%TO.P,J4,5,Pin_5*%
%TO.N,Net-(J4-Pad5)*%
X92000000Y-59500000D03*
%TO.P,J4,6,Pin_6*%
%TO.N,Net-(J4-Pad6)*%
X92000000Y-57000000D03*
%TO.P,J4,7,Pin_7*%
%TO.N,Net-(J4-Pad7)*%
X92000000Y-54500000D03*
%TO.P,J4,8,Pin_8*%
%TO.N,Net-(J4-Pad8)*%
X92000000Y-52000000D03*
%TO.P,J4,9,Pin_9*%
%TO.N,Net-(J4-Pad9)*%
X92000000Y-49500000D03*
%TO.P,J4,10,Pin_10*%
%TO.N,Net-(J4-Pad10)*%
X92000000Y-47000000D03*
%TO.P,J4,11,Pin_11*%
%TO.N,/Ground*%
X92000000Y-44500000D03*
%TD*%
D17*
%TO.P,J1,1,Pin_1*%
%TO.N,Net-(C1-Pad2)*%
X42600000Y-91975000D03*
D18*
%TO.P,J1,2,Pin_2*%
%TO.N,/Ground*%
X45140000Y-91975000D03*
%TO.P,J1,3,Pin_3*%
%TO.N,Net-(J1-Pad3)*%
X47680000Y-91975000D03*
%TO.P,J1,4,Pin_4*%
%TO.N,Net-(J1-Pad4)*%
X50220000Y-91975000D03*
%TO.P,J1,5,Pin_5*%
%TO.N,Net-(J1-Pad5)*%
X52760000Y-91975000D03*
%TO.P,J1,6,Pin_6*%
%TO.N,Net-(J1-Pad6)*%
X55300000Y-91975000D03*
%TO.P,J1,7,Pin_7*%
%TO.N,Net-(J1-Pad7)*%
X57840000Y-91975000D03*
%TO.P,J1,8,Pin_8*%
%TO.N,Net-(J1-Pad8)*%
X60380000Y-91975000D03*
%TO.P,J1,9,Pin_9*%
%TO.N,Net-(J1-Pad9)*%
X62920000Y-91975000D03*
%TO.P,J1,10,Pin_10*%
%TO.N,Net-(J1-Pad10)*%
X65460000Y-91975000D03*
%TD*%
D12*
%TO.P,J9,1,Pin_1*%
%TO.N,Net-(C1-Pad2)*%
X237525000Y-44500000D03*
D13*
%TO.P,J9,2,Pin_2*%
%TO.N,/Ground*%
X237525000Y-47000000D03*
%TO.P,J9,3,Pin_3*%
%TO.N,Net-(J9-Pad3)*%
X237525000Y-49500000D03*
%TO.P,J9,4,Pin_4*%
%TO.N,Net-(J9-Pad4)*%
X237525000Y-52000000D03*
%TO.P,J9,5,Pin_5*%
%TO.N,Net-(J9-Pad5)*%
X237525000Y-54500000D03*
%TO.P,J9,6,Pin_6*%
%TO.N,Net-(J9-Pad6)*%
X237525000Y-57000000D03*
%TO.P,J9,7,Pin_7*%
%TO.N,Net-(J9-Pad7)*%
X237525000Y-59500000D03*
%TO.P,J9,8,Pin_8*%
%TO.N,Net-(J9-Pad8)*%
X237525000Y-62000000D03*
%TO.P,J9,9,Pin_9*%
%TO.N,Net-(J9-Pad9)*%
X237525000Y-64500000D03*
%TO.P,J9,10,Pin_10*%
%TO.N,Net-(J9-Pad10)*%
X237525000Y-67000000D03*
%TO.P,J9,11,Pin_11*%
%TO.N,/Ground*%
X237525000Y-69500000D03*
%TD*%
D11*
%TO.P,C4,1*%
%TO.N,/Ground*%
X218000000Y-39000000D03*
%TO.P,C4,2*%
%TO.N,Net-(C1-Pad2)*%
X220500000Y-39000000D03*
%TD*%
D15*
%TO.P,U2,1,COM*%
%TO.N,Net-(J1-Pad8)*%
X104375000Y-43025000D03*
D16*
%TO.P,U2,2,I7*%
%TO.N,Net-(J4-Pad10)*%
X104375000Y-45565000D03*
%TO.P,U2,3,I6*%
%TO.N,Net-(J4-Pad9)*%
X104375000Y-48105000D03*
%TO.P,U2,4,I5*%
%TO.N,Net-(J4-Pad8)*%
X104375000Y-50645000D03*
%TO.P,U2,5,I4*%
%TO.N,Net-(J4-Pad7)*%
X104375000Y-53185000D03*
%TO.P,U2,6,I3*%
%TO.N,Net-(J4-Pad6)*%
X104375000Y-55725000D03*
%TO.P,U2,7,I2*%
%TO.N,Net-(J4-Pad5)*%
X104375000Y-58265000D03*
%TO.P,U2,8,I1*%
%TO.N,Net-(J4-Pad4)*%
X104375000Y-60805000D03*
%TO.P,U2,9,I0*%
%TO.N,Net-(J4-Pad3)*%
X104375000Y-63345000D03*
%TO.P,U2,10,S0*%
%TO.N,Net-(J1-Pad3)*%
X104375000Y-65885000D03*
%TO.P,U2,11,S1*%
%TO.N,Net-(J1-Pad4)*%
X104375000Y-68425000D03*
%TO.P,U2,12,GND*%
%TO.N,/Ground*%
X104375000Y-70965000D03*
%TO.P,U2,13,S3*%
%TO.N,Net-(J1-Pad6)*%
X119615000Y-70965000D03*
%TO.P,U2,14,S2*%
%TO.N,Net-(J1-Pad5)*%
X119615000Y-68425000D03*
%TO.P,U2,15,~{E}*%
%TO.N,/Ground*%
X119615000Y-65885000D03*
%TO.P,U2,16,I15*%
%TO.N,Net-(J5-Pad10)*%
X119615000Y-63345000D03*
%TO.P,U2,17,I14*%
%TO.N,Net-(J5-Pad9)*%
X119615000Y-60805000D03*
%TO.P,U2,18,I13*%
%TO.N,Net-(J5-Pad8)*%
X119615000Y-58265000D03*
%TO.P,U2,19,I12*%
%TO.N,Net-(J5-Pad7)*%
X119615000Y-55725000D03*
%TO.P,U2,20,I11*%
%TO.N,Net-(J5-Pad6)*%
X119615000Y-53185000D03*
%TO.P,U2,21,I10*%
%TO.N,Net-(J5-Pad5)*%
X119615000Y-50645000D03*
%TO.P,U2,22,I9*%
%TO.N,Net-(J5-Pad4)*%
X119615000Y-48105000D03*
%TO.P,U2,23,I8*%
%TO.N,Net-(J5-Pad3)*%
X119615000Y-45565000D03*
%TO.P,U2,24,VCC*%
%TO.N,Net-(C1-Pad2)*%
X119615000Y-43025000D03*
%TD*%
D11*
%TO.P,C3,1*%
%TO.N,/Ground*%
X166000000Y-39000000D03*
%TO.P,C3,2*%
%TO.N,Net-(C1-Pad2)*%
X168500000Y-39000000D03*
%TD*%
D14*
%TO.P,J8,1,Pin_1*%
%TO.N,Net-(C1-Pad2)*%
X199500000Y-69500000D03*
D13*
%TO.P,J8,2,Pin_2*%
%TO.N,/Ground*%
X199500000Y-67000000D03*
%TO.P,J8,3,Pin_3*%
%TO.N,Net-(J8-Pad3)*%
X199500000Y-64500000D03*
%TO.P,J8,4,Pin_4*%
%TO.N,Net-(J8-Pad4)*%
X199500000Y-62000000D03*
%TO.P,J8,5,Pin_5*%
%TO.N,Net-(J8-Pad5)*%
X199500000Y-59500000D03*
%TO.P,J8,6,Pin_6*%
%TO.N,Net-(J8-Pad6)*%
X199500000Y-57000000D03*
%TO.P,J8,7,Pin_7*%
%TO.N,Net-(J8-Pad7)*%
X199500000Y-54500000D03*
%TO.P,J8,8,Pin_8*%
%TO.N,Net-(J8-Pad8)*%
X199500000Y-52000000D03*
%TO.P,J8,9,Pin_9*%
%TO.N,Net-(J8-Pad9)*%
X199500000Y-49500000D03*
%TO.P,J8,10,Pin_10*%
%TO.N,Net-(J8-Pad10)*%
X199500000Y-47000000D03*
%TO.P,J8,11,Pin_11*%
%TO.N,/Ground*%
X199500000Y-44500000D03*
%TD*%
D14*
%TO.P,J2,1,Pin_1*%
%TO.N,Net-(C1-Pad2)*%
X39500000Y-69500000D03*
D13*
%TO.P,J2,2,Pin_2*%
%TO.N,/Ground*%
X39500000Y-67000000D03*
%TO.P,J2,3,Pin_3*%
%TO.N,Net-(J2-Pad3)*%
X39500000Y-64500000D03*
%TO.P,J2,4,Pin_4*%
%TO.N,Net-(J2-Pad4)*%
X39500000Y-62000000D03*
%TO.P,J2,5,Pin_5*%
%TO.N,Net-(J2-Pad5)*%
X39500000Y-59500000D03*
%TO.P,J2,6,Pin_6*%
%TO.N,Net-(J2-Pad6)*%
X39500000Y-57000000D03*
%TO.P,J2,7,Pin_7*%
%TO.N,Net-(J2-Pad7)*%
X39500000Y-54500000D03*
%TO.P,J2,8,Pin_8*%
%TO.N,Net-(J2-Pad8)*%
X39500000Y-52000000D03*
%TO.P,J2,9,Pin_9*%
%TO.N,Net-(J2-Pad9)*%
X39500000Y-49500000D03*
%TO.P,J2,10,Pin_10*%
%TO.N,Net-(J2-Pad10)*%
X39500000Y-47000000D03*
%TO.P,J2,11,Pin_11*%
%TO.N,/Ground*%
X39500000Y-44500000D03*
%TD*%
D15*
%TO.P,U4,1,COM*%
%TO.N,Net-(J1-Pad10)*%
X211875000Y-43025000D03*
D16*
%TO.P,U4,2,I7*%
%TO.N,Net-(J8-Pad10)*%
X211875000Y-45565000D03*
%TO.P,U4,3,I6*%
%TO.N,Net-(J8-Pad9)*%
X211875000Y-48105000D03*
%TO.P,U4,4,I5*%
%TO.N,Net-(J8-Pad8)*%
X211875000Y-50645000D03*
%TO.P,U4,5,I4*%
%TO.N,Net-(J8-Pad7)*%
X211875000Y-53185000D03*
%TO.P,U4,6,I3*%
%TO.N,Net-(J8-Pad6)*%
X211875000Y-55725000D03*
%TO.P,U4,7,I2*%
%TO.N,Net-(J8-Pad5)*%
X211875000Y-58265000D03*
%TO.P,U4,8,I1*%
%TO.N,Net-(J8-Pad4)*%
X211875000Y-60805000D03*
%TO.P,U4,9,I0*%
%TO.N,Net-(J8-Pad3)*%
X211875000Y-63345000D03*
%TO.P,U4,10,S0*%
%TO.N,Net-(J1-Pad3)*%
X211875000Y-65885000D03*
%TO.P,U4,11,S1*%
%TO.N,Net-(J1-Pad4)*%
X211875000Y-68425000D03*
%TO.P,U4,12,GND*%
%TO.N,/Ground*%
X211875000Y-70965000D03*
%TO.P,U4,13,S3*%
%TO.N,Net-(J1-Pad6)*%
X227115000Y-70965000D03*
%TO.P,U4,14,S2*%
%TO.N,Net-(J1-Pad5)*%
X227115000Y-68425000D03*
%TO.P,U4,15,~{E}*%
%TO.N,/Ground*%
X227115000Y-65885000D03*
%TO.P,U4,16,I15*%
%TO.N,Net-(J9-Pad10)*%
X227115000Y-63345000D03*
%TO.P,U4,17,I14*%
%TO.N,Net-(J9-Pad9)*%
X227115000Y-60805000D03*
%TO.P,U4,18,I13*%
%TO.N,Net-(J9-Pad8)*%
X227115000Y-58265000D03*
%TO.P,U4,19,I12*%
%TO.N,Net-(J9-Pad7)*%
X227115000Y-55725000D03*
%TO.P,U4,20,I11*%
%TO.N,Net-(J9-Pad6)*%
X227115000Y-53185000D03*
%TO.P,U4,21,I10*%
%TO.N,Net-(J9-Pad5)*%
X227115000Y-50645000D03*
%TO.P,U4,22,I9*%
%TO.N,Net-(J9-Pad4)*%
X227115000Y-48105000D03*
%TO.P,U4,23,I8*%
%TO.N,Net-(J9-Pad3)*%
X227115000Y-45565000D03*
%TO.P,U4,24,VCC*%
%TO.N,Net-(C1-Pad2)*%
X227115000Y-43025000D03*
%TD*%
D12*
%TO.P,J7,1,Pin_1*%
%TO.N,Net-(C1-Pad2)*%
X187000000Y-44500000D03*
D13*
%TO.P,J7,2,Pin_2*%
%TO.N,/Ground*%
X187000000Y-47000000D03*
%TO.P,J7,3,Pin_3*%
%TO.N,Net-(J7-Pad3)*%
X187000000Y-49500000D03*
%TO.P,J7,4,Pin_4*%
%TO.N,Net-(J7-Pad4)*%
X187000000Y-52000000D03*
%TO.P,J7,5,Pin_5*%
%TO.N,Net-(J7-Pad5)*%
X187000000Y-54500000D03*
%TO.P,J7,6,Pin_6*%
%TO.N,Net-(J7-Pad6)*%
X187000000Y-57000000D03*
%TO.P,J7,7,Pin_7*%
%TO.N,Net-(J7-Pad7)*%
X187000000Y-59500000D03*
%TO.P,J7,8,Pin_8*%
%TO.N,Net-(J7-Pad8)*%
X187000000Y-62000000D03*
%TO.P,J7,9,Pin_9*%
%TO.N,Net-(J7-Pad9)*%
X187000000Y-64500000D03*
%TO.P,J7,10,Pin_10*%
%TO.N,Net-(J7-Pad10)*%
X187000000Y-67000000D03*
%TO.P,J7,11,Pin_11*%
%TO.N,/Ground*%
X187000000Y-69500000D03*
%TD*%
D15*
%TO.P,U1,1,COM*%
%TO.N,Net-(J1-Pad7)*%
X51875000Y-43025000D03*
D16*
%TO.P,U1,2,I7*%
%TO.N,Net-(J2-Pad10)*%
X51875000Y-45565000D03*
%TO.P,U1,3,I6*%
%TO.N,Net-(J2-Pad9)*%
X51875000Y-48105000D03*
%TO.P,U1,4,I5*%
%TO.N,Net-(J2-Pad8)*%
X51875000Y-50645000D03*
%TO.P,U1,5,I4*%
%TO.N,Net-(J2-Pad7)*%
X51875000Y-53185000D03*
%TO.P,U1,6,I3*%
%TO.N,Net-(J2-Pad6)*%
X51875000Y-55725000D03*
%TO.P,U1,7,I2*%
%TO.N,Net-(J2-Pad5)*%
X51875000Y-58265000D03*
%TO.P,U1,8,I1*%
%TO.N,Net-(J2-Pad4)*%
X51875000Y-60805000D03*
%TO.P,U1,9,I0*%
%TO.N,Net-(J2-Pad3)*%
X51875000Y-63345000D03*
%TO.P,U1,10,S0*%
%TO.N,Net-(J1-Pad3)*%
X51875000Y-65885000D03*
%TO.P,U1,11,S1*%
%TO.N,Net-(J1-Pad4)*%
X51875000Y-68425000D03*
%TO.P,U1,12,GND*%
%TO.N,/Ground*%
X51875000Y-70965000D03*
%TO.P,U1,13,S3*%
%TO.N,Net-(J1-Pad6)*%
X67115000Y-70965000D03*
%TO.P,U1,14,S2*%
%TO.N,Net-(J1-Pad5)*%
X67115000Y-68425000D03*
%TO.P,U1,15,~{E}*%
%TO.N,/Ground*%
X67115000Y-65885000D03*
%TO.P,U1,16,I15*%
%TO.N,Net-(J3-Pad10)*%
X67115000Y-63345000D03*
%TO.P,U1,17,I14*%
%TO.N,Net-(J3-Pad9)*%
X67115000Y-60805000D03*
%TO.P,U1,18,I13*%
%TO.N,Net-(J3-Pad8)*%
X67115000Y-58265000D03*
%TO.P,U1,19,I12*%
%TO.N,Net-(J3-Pad7)*%
X67115000Y-55725000D03*
%TO.P,U1,20,I11*%
%TO.N,Net-(J3-Pad6)*%
X67115000Y-53185000D03*
%TO.P,U1,21,I10*%
%TO.N,Net-(J3-Pad5)*%
X67115000Y-50645000D03*
%TO.P,U1,22,I9*%
%TO.N,Net-(J3-Pad4)*%
X67115000Y-48105000D03*
%TO.P,U1,23,I8*%
%TO.N,Net-(J3-Pad3)*%
X67115000Y-45565000D03*
%TO.P,U1,24,VCC*%
%TO.N,Net-(C1-Pad2)*%
X67115000Y-43025000D03*
%TD*%
D19*
%TO.N,Net-(J1-Pad4)*%
X54800500Y-74000000D03*
X108000000Y-74000000D03*
X108000000Y-80000000D03*
X163500000Y-74000000D03*
X163500000Y-80000000D03*
X215500000Y-74000000D03*
X215500000Y-79000000D03*
X54750000Y-83750000D03*
%TO.N,Net-(J1-Pad5)*%
X114000000Y-83000000D03*
X169500000Y-74000000D03*
X63000000Y-74000000D03*
X114000000Y-74000000D03*
X63000000Y-83000000D03*
X169500000Y-83000000D03*
%TO.N,Net-(J1-Pad6)*%
X67000000Y-74000000D03*
X67000000Y-86000000D03*
X174500000Y-74000000D03*
X119500000Y-86000000D03*
X174500000Y-86000000D03*
X119500000Y-74000000D03*
%TO.N,Net-(J1-Pad7)*%
X59000000Y-88000000D03*
X59000000Y-74000000D03*
%TO.N,Net-(J1-Pad8)*%
X98000000Y-89000000D03*
X98000000Y-44000000D03*
%TO.N,Net-(J1-Pad9)*%
X153000000Y-44000000D03*
X153000000Y-90000000D03*
%TO.N,Net-(J1-Pad10)*%
X205000000Y-44000000D03*
X205000000Y-91000000D03*
%TD*%
D20*
%TO.N,Net-(J1-Pad10)*%
X65460000Y-93460000D02*
X65460000Y-91975000D01*
X66000000Y-94000000D02*
X65460000Y-93460000D01*
X202000000Y-94000000D02*
X66000000Y-94000000D01*
X205000000Y-91000000D02*
X202000000Y-94000000D01*
%TO.N,Net-(J1-Pad9)*%
X68000000Y-90000000D02*
X64080000Y-90000000D01*
X62920000Y-91160000D02*
X62920000Y-91975000D01*
X70000000Y-92000000D02*
X68000000Y-90000000D01*
X64080000Y-90000000D02*
X62920000Y-91160000D01*
X151000000Y-92000000D02*
X70000000Y-92000000D01*
X153000000Y-90000000D02*
X151000000Y-92000000D01*
%TO.N,Net-(J1-Pad8)*%
X60380000Y-89620000D02*
X60380000Y-91975000D01*
X73000000Y-90000000D02*
X71000000Y-88000000D01*
X97000000Y-90000000D02*
X73000000Y-90000000D01*
X62000000Y-88000000D02*
X60380000Y-89620000D01*
X98000000Y-89000000D02*
X97000000Y-90000000D01*
X71000000Y-88000000D02*
X62000000Y-88000000D01*
%TO.N,Net-(J1-Pad6)*%
X58000000Y-86000000D02*
X66000000Y-86000000D01*
X55300000Y-88700000D02*
X58000000Y-86000000D01*
X55300000Y-91975000D02*
X55300000Y-88700000D01*
%TO.N,Net-(J1-Pad4)*%
X214500000Y-80000000D02*
X215500000Y-79000000D01*
X163500000Y-80000000D02*
X214500000Y-80000000D01*
%TO.N,/Ground*%
X132525000Y-47000000D02*
X134000000Y-47000000D01*
X48965000Y-70965000D02*
X45000000Y-67000000D01*
X45140000Y-77700000D02*
X51875000Y-70965000D01*
X174615000Y-65885000D02*
X167885000Y-65885000D01*
X233500000Y-69500000D02*
X237525000Y-69500000D01*
X211875000Y-70965000D02*
X205465000Y-70965000D01*
X227115000Y-65885000D02*
X229885000Y-65885000D01*
X187000000Y-69500000D02*
X189000000Y-69500000D01*
X35000000Y-45500000D02*
X36000000Y-44500000D01*
X203500000Y-73000000D02*
X190500000Y-73000000D01*
X134000000Y-47000000D02*
X135500000Y-48500000D01*
X95000000Y-73500000D02*
X97535000Y-70965000D01*
X227115000Y-65885000D02*
X222885000Y-65885000D01*
X195000000Y-45500000D02*
X195000000Y-66000000D01*
X92000000Y-67000000D02*
X89500000Y-67000000D01*
X115885000Y-65885000D02*
X111000000Y-61000000D01*
X95000000Y-44500000D02*
X100500000Y-39000000D01*
X35000000Y-66000000D02*
X35000000Y-45500000D01*
X82000000Y-47000000D02*
X83000000Y-48000000D01*
X145000000Y-44500000D02*
X147000000Y-44500000D01*
X93570000Y-67000000D02*
X97535000Y-70965000D01*
X167885000Y-65885000D02*
X166000000Y-64000000D01*
X155500000Y-71000000D02*
X155535000Y-70965000D01*
X189000000Y-69500000D02*
X190500000Y-68000000D01*
X82000000Y-69500000D02*
X80025000Y-69500000D01*
X62885000Y-65885000D02*
X67115000Y-65885000D01*
X67115000Y-65885000D02*
X70885000Y-65885000D01*
X205465000Y-70965000D02*
X201500000Y-67000000D01*
X196000000Y-67000000D02*
X199500000Y-67000000D01*
X135500000Y-48500000D02*
X135500000Y-67500000D01*
X178885000Y-65885000D02*
X182500000Y-69500000D01*
X211875000Y-70965000D02*
X205535000Y-70965000D01*
X222885000Y-65885000D02*
X218000000Y-61000000D01*
X39500000Y-67000000D02*
X36000000Y-67000000D01*
X135500000Y-67500000D02*
X133500000Y-69500000D01*
X58000000Y-43000000D02*
X61000000Y-46000000D01*
X36000000Y-67000000D02*
X35000000Y-66000000D01*
X147000000Y-67000000D02*
X145500000Y-67000000D01*
X88000000Y-46000000D02*
X89500000Y-44500000D01*
X140000000Y-73000000D02*
X154000000Y-73000000D01*
X144000000Y-65500000D02*
X144000000Y-45500000D01*
X61000000Y-46000000D02*
X61000000Y-64000000D01*
X123885000Y-65885000D02*
X127500000Y-69500000D01*
X44500000Y-44500000D02*
X50000000Y-39000000D01*
X205535000Y-70965000D02*
X203500000Y-73000000D01*
X237525000Y-47000000D02*
X239500000Y-47000000D01*
X80025000Y-47000000D02*
X82000000Y-47000000D01*
X218000000Y-39000000D02*
X205000000Y-39000000D01*
X136500000Y-69500000D02*
X140000000Y-73000000D01*
X145500000Y-67000000D02*
X144000000Y-65500000D01*
X239000000Y-69500000D02*
X237525000Y-69500000D01*
X61000000Y-64000000D02*
X62885000Y-65885000D01*
X39500000Y-44500000D02*
X44500000Y-44500000D01*
X92000000Y-67000000D02*
X93570000Y-67000000D01*
X152500000Y-39000000D02*
X147000000Y-44500000D01*
X241000000Y-67500000D02*
X239000000Y-69500000D01*
X70885000Y-65885000D02*
X74500000Y-69500000D01*
X155535000Y-70965000D02*
X156035000Y-70965000D01*
X74500000Y-69500000D02*
X80025000Y-69500000D01*
X80025000Y-69500000D02*
X84000000Y-69500000D01*
X154000000Y-73000000D02*
X156035000Y-70965000D01*
X205000000Y-39000000D02*
X199500000Y-44500000D01*
X195000000Y-66000000D02*
X196000000Y-67000000D01*
X89500000Y-44500000D02*
X92000000Y-44500000D01*
X201500000Y-67000000D02*
X199500000Y-67000000D01*
X199500000Y-44500000D02*
X196000000Y-44500000D01*
X119615000Y-65885000D02*
X123885000Y-65885000D01*
X127500000Y-69500000D02*
X132525000Y-69500000D01*
X83000000Y-48000000D02*
X83000000Y-68500000D01*
X119615000Y-65885000D02*
X115885000Y-65885000D01*
X111000000Y-61000000D02*
X111000000Y-39000000D01*
X196000000Y-44500000D02*
X195000000Y-45500000D01*
X190500000Y-48500000D02*
X189000000Y-47000000D01*
X45140000Y-91975000D02*
X45140000Y-77700000D01*
X166000000Y-39000000D02*
X152500000Y-39000000D01*
X229885000Y-65885000D02*
X233500000Y-69500000D01*
X190500000Y-68000000D02*
X190500000Y-48500000D01*
X190500000Y-73000000D02*
X187000000Y-69500000D01*
X132525000Y-69500000D02*
X136500000Y-69500000D01*
X88000000Y-65500000D02*
X88000000Y-46000000D01*
X144000000Y-45500000D02*
X145000000Y-44500000D01*
X84000000Y-69500000D02*
X88000000Y-73500000D01*
X147000000Y-67000000D02*
X151500000Y-67000000D01*
X241000000Y-48500000D02*
X241000000Y-67500000D01*
X218000000Y-61000000D02*
X218000000Y-39000000D01*
X151500000Y-67000000D02*
X155500000Y-71000000D01*
X45000000Y-67000000D02*
X39500000Y-67000000D01*
X189000000Y-47000000D02*
X187000000Y-47000000D01*
X36000000Y-44500000D02*
X39500000Y-44500000D01*
X51875000Y-70965000D02*
X48965000Y-70965000D01*
X156035000Y-70965000D02*
X159375000Y-70965000D01*
X92000000Y-44500000D02*
X95000000Y-44500000D01*
X133500000Y-69500000D02*
X132525000Y-69500000D01*
X83000000Y-68500000D02*
X82000000Y-69500000D01*
X89500000Y-67000000D02*
X88000000Y-65500000D01*
X239500000Y-47000000D02*
X241000000Y-48500000D01*
X174615000Y-65885000D02*
X178885000Y-65885000D01*
X97535000Y-70965000D02*
X104375000Y-70965000D01*
X166000000Y-64000000D02*
X166000000Y-39000000D01*
X182500000Y-69500000D02*
X187000000Y-69500000D01*
X50000000Y-39000000D02*
X58000000Y-39000000D01*
X88000000Y-73500000D02*
X95000000Y-73500000D01*
X100500000Y-39000000D02*
X111000000Y-39000000D01*
X58000000Y-39000000D02*
X58000000Y-43000000D01*
%TO.N,Net-(C1-Pad2)*%
X198500000Y-36500000D02*
X219500000Y-36500000D01*
X172525000Y-43025000D02*
X174615000Y-43025000D01*
X187000000Y-44500000D02*
X190500000Y-44500000D01*
X192000000Y-68000000D02*
X193500000Y-69500000D01*
X86500000Y-69500000D02*
X92000000Y-69500000D01*
X33000000Y-43500000D02*
X40000000Y-36500000D01*
X89500000Y-36500000D02*
X111000000Y-36500000D01*
X64525000Y-43025000D02*
X67115000Y-43025000D01*
X85000000Y-68000000D02*
X86500000Y-69500000D01*
X132525000Y-44500000D02*
X135000000Y-44500000D01*
X42600000Y-91975000D02*
X42600000Y-72600000D01*
X85000000Y-48000000D02*
X85000000Y-68000000D01*
X227115000Y-43025000D02*
X236050000Y-43025000D01*
X78550000Y-43025000D02*
X80025000Y-44500000D01*
X33000000Y-67250000D02*
X33000000Y-43500000D01*
X167000000Y-36500000D02*
X168500000Y-38000000D01*
X223090000Y-39000000D02*
X227115000Y-43025000D01*
X119615000Y-43025000D02*
X131050000Y-43025000D01*
X236050000Y-43025000D02*
X237525000Y-44500000D01*
X190000000Y-44500000D02*
X192000000Y-46500000D01*
X42600000Y-72600000D02*
X42000000Y-72000000D01*
X168500000Y-39000000D02*
X172525000Y-43025000D01*
X193500000Y-69500000D02*
X199500000Y-69500000D01*
X60500000Y-37500000D02*
X60500000Y-39000000D01*
X180025000Y-43025000D02*
X181500000Y-44500000D01*
X168500000Y-38000000D02*
X168500000Y-39000000D01*
X174615000Y-43025000D02*
X180025000Y-43025000D01*
X81500000Y-44500000D02*
X85000000Y-48000000D01*
X141000000Y-69500000D02*
X147000000Y-69500000D01*
X59500000Y-36500000D02*
X60500000Y-37500000D01*
X220500000Y-37500000D02*
X220500000Y-39000000D01*
X40000000Y-36500000D02*
X59500000Y-36500000D01*
X187000000Y-44500000D02*
X190000000Y-44500000D01*
X39500000Y-69500000D02*
X35250000Y-69500000D01*
X143000000Y-36500000D02*
X167000000Y-36500000D01*
X35250000Y-69500000D02*
X33000000Y-67250000D01*
X192000000Y-46500000D02*
X192000000Y-68000000D01*
X42000000Y-72000000D02*
X39500000Y-69500000D01*
X67115000Y-43025000D02*
X78550000Y-43025000D01*
X220500000Y-39000000D02*
X223090000Y-39000000D01*
X138500000Y-67000000D02*
X141000000Y-69500000D01*
X81500000Y-44500000D02*
X89500000Y-36500000D01*
X60500000Y-39000000D02*
X64525000Y-43025000D01*
X190500000Y-44500000D02*
X198500000Y-36500000D01*
X138500000Y-48000000D02*
X138500000Y-67000000D01*
X131050000Y-43025000D02*
X132525000Y-44500000D01*
X135000000Y-44500000D02*
X138500000Y-48000000D01*
X219500000Y-36500000D02*
X220500000Y-37500000D01*
X111000000Y-36500000D02*
X113500000Y-39000000D01*
X113500000Y-39000000D02*
X115590000Y-39000000D01*
X135000000Y-44500000D02*
X143000000Y-36500000D01*
X181500000Y-44500000D02*
X187000000Y-44500000D01*
X80025000Y-44500000D02*
X81500000Y-44500000D01*
X115590000Y-39000000D02*
X119615000Y-43025000D01*
%TO.N,Net-(J1-Pad3)*%
X57000000Y-79000000D02*
X56000000Y-80000000D01*
X167000000Y-68500000D02*
X167000000Y-75500000D01*
X47680000Y-91975000D02*
X47680000Y-88320000D01*
X104375000Y-65885000D02*
X106885000Y-65885000D01*
X57000000Y-68000000D02*
X57000000Y-79000000D01*
X159375000Y-65885000D02*
X164385000Y-65885000D01*
X59000000Y-77000000D02*
X165500000Y-77000000D01*
X164385000Y-65885000D02*
X167000000Y-68500000D01*
X215885000Y-65885000D02*
X219000000Y-69000000D01*
X111000000Y-76000000D02*
X110000000Y-77000000D01*
X106885000Y-65885000D02*
X111000000Y-70000000D01*
X217000000Y-77000000D02*
X165500000Y-77000000D01*
X111000000Y-70000000D02*
X111000000Y-76000000D01*
X211875000Y-65885000D02*
X215885000Y-65885000D01*
X51875000Y-65885000D02*
X54885000Y-65885000D01*
X47680000Y-88320000D02*
X56000000Y-80000000D01*
X219000000Y-75000000D02*
X217000000Y-77000000D01*
X167000000Y-75500000D02*
X165500000Y-77000000D01*
X54885000Y-65885000D02*
X57000000Y-68000000D01*
X219000000Y-69000000D02*
X219000000Y-75000000D01*
X56000000Y-80000000D02*
X59000000Y-77000000D01*
%TO.N,Net-(J1-Pad4)*%
X50220000Y-91975000D02*
X50220000Y-88280000D01*
X104375000Y-68425000D02*
X106425000Y-68425000D01*
X54000000Y-69000000D02*
X54800500Y-69800500D01*
X53425000Y-68425000D02*
X54000000Y-69000000D01*
X50220000Y-88280000D02*
X54750000Y-83750000D01*
X163500000Y-70000000D02*
X163500000Y-74000000D01*
X54800500Y-69800500D02*
X54800500Y-74000000D01*
X159375000Y-68425000D02*
X161925000Y-68425000D01*
X161925000Y-68425000D02*
X163000000Y-69500000D01*
X211875000Y-68425000D02*
X213925000Y-68425000D01*
X106425000Y-68425000D02*
X108000000Y-70000000D01*
X163000000Y-69500000D02*
X163500000Y-70000000D01*
X58500000Y-80000000D02*
X108000000Y-80000000D01*
X108000000Y-80000000D02*
X163500000Y-80000000D01*
X215500000Y-70000000D02*
X215500000Y-74000000D01*
X213925000Y-68425000D02*
X215500000Y-70000000D01*
X51875000Y-68425000D02*
X53425000Y-68425000D01*
X108000000Y-70000000D02*
X108000000Y-74000000D01*
X54750000Y-83750000D02*
X58500000Y-80000000D01*
%TO.N,Net-(J1-Pad5)*%
X171075000Y-68425000D02*
X169500000Y-70000000D01*
X221000000Y-83000000D02*
X220000000Y-83000000D01*
X169500000Y-83000000D02*
X220000000Y-83000000D01*
X223000000Y-69500000D02*
X223000000Y-81000000D01*
X52760000Y-88240000D02*
X58000000Y-83000000D01*
X174615000Y-68425000D02*
X171075000Y-68425000D01*
X115575000Y-68425000D02*
X114000000Y-70000000D01*
X114000000Y-70000000D02*
X114000000Y-74000000D01*
X63000000Y-69000000D02*
X63000000Y-74000000D01*
X63575000Y-68425000D02*
X63000000Y-69000000D01*
X67115000Y-68425000D02*
X63575000Y-68425000D01*
X169500000Y-70000000D02*
X169500000Y-74000000D01*
X58000000Y-83000000D02*
X62000000Y-83000000D01*
X52760000Y-91975000D02*
X52760000Y-88240000D01*
X62000000Y-83000000D02*
X114000000Y-83000000D01*
X114000000Y-83000000D02*
X169500000Y-83000000D01*
X119615000Y-68425000D02*
X115575000Y-68425000D01*
X224075000Y-68425000D02*
X223000000Y-69500000D01*
X223000000Y-81000000D02*
X221000000Y-83000000D01*
X63000000Y-83000000D02*
X62000000Y-83000000D01*
X227115000Y-68425000D02*
X224075000Y-68425000D01*
%TO.N,Net-(J1-Pad6)*%
X67115000Y-70965000D02*
X67115000Y-73885000D01*
X119500000Y-86000000D02*
X174500000Y-86000000D01*
X67000000Y-86000000D02*
X66000000Y-86000000D01*
X67115000Y-73885000D02*
X67000000Y-74000000D01*
X119615000Y-70965000D02*
X119615000Y-73885000D01*
X174615000Y-70965000D02*
X174615000Y-73885000D01*
X174615000Y-73885000D02*
X174500000Y-74000000D01*
X227115000Y-84885000D02*
X226000000Y-86000000D01*
X119615000Y-73885000D02*
X119500000Y-74000000D01*
X227115000Y-70965000D02*
X227115000Y-84885000D01*
X226000000Y-86000000D02*
X174500000Y-86000000D01*
X66000000Y-86000000D02*
X119500000Y-86000000D01*
%TO.N,Net-(J1-Pad7)*%
X54025000Y-43025000D02*
X51875000Y-43025000D01*
X59000000Y-48000000D02*
X54025000Y-43025000D01*
X58000000Y-91815000D02*
X57840000Y-91975000D01*
X59000000Y-88000000D02*
X58000000Y-89000000D01*
X59000000Y-74000000D02*
X59000000Y-48000000D01*
X58000000Y-89000000D02*
X58000000Y-91815000D01*
%TO.N,Net-(J1-Pad8)*%
X98975000Y-43025000D02*
X104375000Y-43025000D01*
X98000000Y-44000000D02*
X98975000Y-43025000D01*
%TO.N,Net-(J1-Pad9)*%
X153975000Y-43025000D02*
X159375000Y-43025000D01*
X153000000Y-44000000D02*
X153975000Y-43025000D01*
%TO.N,Net-(J1-Pad10)*%
X205000000Y-44000000D02*
X205975000Y-43025000D01*
X205975000Y-43025000D02*
X211875000Y-43025000D01*
%TO.N,Net-(J2-Pad3)*%
X51875000Y-63345000D02*
X47655000Y-63345000D01*
X46500000Y-64500000D02*
X39500000Y-64500000D01*
X47655000Y-63345000D02*
X46500000Y-64500000D01*
%TO.N,Net-(J2-Pad4)*%
X47195000Y-60805000D02*
X46000000Y-62000000D01*
X46000000Y-62000000D02*
X39500000Y-62000000D01*
X51875000Y-60805000D02*
X47195000Y-60805000D01*
%TO.N,Net-(J2-Pad5)*%
X51875000Y-58265000D02*
X46735000Y-58265000D01*
X46735000Y-58265000D02*
X45500000Y-59500000D01*
X45500000Y-59500000D02*
X39500000Y-59500000D01*
%TO.N,Net-(J2-Pad6)*%
X47275000Y-55725000D02*
X46000000Y-57000000D01*
X46000000Y-57000000D02*
X39500000Y-57000000D01*
X51875000Y-55725000D02*
X47275000Y-55725000D01*
%TO.N,Net-(J2-Pad7)*%
X51875000Y-53185000D02*
X46815000Y-53185000D01*
X46815000Y-53185000D02*
X45500000Y-54500000D01*
X45500000Y-54500000D02*
X39500000Y-54500000D01*
%TO.N,Net-(J2-Pad8)*%
X45000000Y-52000000D02*
X39500000Y-52000000D01*
X46355000Y-50645000D02*
X45000000Y-52000000D01*
X51875000Y-50645000D02*
X46355000Y-50645000D01*
%TO.N,Net-(J2-Pad9)*%
X44500000Y-49500000D02*
X39500000Y-49500000D01*
X51875000Y-48105000D02*
X45895000Y-48105000D01*
X45895000Y-48105000D02*
X44500000Y-49500000D01*
%TO.N,Net-(J2-Pad10)*%
X47435000Y-45565000D02*
X51875000Y-45565000D01*
X39500000Y-47000000D02*
X46000000Y-47000000D01*
X46000000Y-47000000D02*
X47435000Y-45565000D01*
%TO.N,Net-(J3-Pad3)*%
X67115000Y-45565000D02*
X70565000Y-45565000D01*
X70565000Y-45565000D02*
X74500000Y-49500000D01*
X74500000Y-49500000D02*
X80025000Y-49500000D01*
%TO.N,Net-(J3-Pad4)*%
X80025000Y-52000000D02*
X74000000Y-52000000D01*
X70000000Y-48000000D02*
X69895000Y-48105000D01*
X69895000Y-48105000D02*
X67115000Y-48105000D01*
X74000000Y-52000000D02*
X70000000Y-48000000D01*
%TO.N,Net-(J3-Pad5)*%
X70645000Y-50645000D02*
X74500000Y-54500000D01*
X67115000Y-50645000D02*
X70645000Y-50645000D01*
X74500000Y-54500000D02*
X80025000Y-54500000D01*
%TO.N,Net-(J3-Pad6)*%
X67115000Y-53185000D02*
X70685000Y-53185000D01*
X70685000Y-53185000D02*
X74500000Y-57000000D01*
X74500000Y-57000000D02*
X80025000Y-57000000D01*
%TO.N,Net-(J3-Pad7)*%
X70725000Y-55725000D02*
X74500000Y-59500000D01*
X67115000Y-55725000D02*
X70725000Y-55725000D01*
X74500000Y-59500000D02*
X80025000Y-59500000D01*
%TO.N,Net-(J3-Pad8)*%
X70765000Y-58265000D02*
X74500000Y-62000000D01*
X67115000Y-58265000D02*
X70765000Y-58265000D01*
X74500000Y-62000000D02*
X80025000Y-62000000D01*
%TO.N,Net-(J3-Pad9)*%
X74500000Y-64500000D02*
X80025000Y-64500000D01*
X70805000Y-60805000D02*
X74500000Y-64500000D01*
X67115000Y-60805000D02*
X70805000Y-60805000D01*
%TO.N,Net-(J3-Pad10)*%
X67115000Y-63345000D02*
X70845000Y-63345000D01*
X70845000Y-63345000D02*
X74500000Y-67000000D01*
X74500000Y-67000000D02*
X80025000Y-67000000D01*
%TO.N,Net-(J4-Pad3)*%
X99155000Y-63345000D02*
X98000000Y-64500000D01*
X98000000Y-64500000D02*
X92000000Y-64500000D01*
X104375000Y-63345000D02*
X99155000Y-63345000D01*
%TO.N,Net-(J4-Pad4)*%
X104375000Y-60805000D02*
X98695000Y-60805000D01*
X97500000Y-62000000D02*
X92000000Y-62000000D01*
X98695000Y-60805000D02*
X97500000Y-62000000D01*
%TO.N,Net-(J4-Pad5)*%
X104375000Y-58265000D02*
X98735000Y-58265000D01*
X97500000Y-59500000D02*
X92000000Y-59500000D01*
X98735000Y-58265000D02*
X97500000Y-59500000D01*
%TO.N,Net-(J4-Pad6)*%
X104375000Y-55725000D02*
X99275000Y-55725000D01*
X99275000Y-55725000D02*
X98000000Y-57000000D01*
X98000000Y-57000000D02*
X92000000Y-57000000D01*
%TO.N,Net-(J4-Pad7)*%
X104375000Y-53185000D02*
X98315000Y-53185000D01*
X97000000Y-54500000D02*
X92000000Y-54500000D01*
X98315000Y-53185000D02*
X97000000Y-54500000D01*
%TO.N,Net-(J4-Pad8)*%
X104375000Y-50645000D02*
X98855000Y-50645000D01*
X98855000Y-50645000D02*
X97500000Y-52000000D01*
X97500000Y-52000000D02*
X92000000Y-52000000D01*
%TO.N,Net-(J4-Pad9)*%
X98645000Y-48105000D02*
X97250000Y-49500000D01*
X104375000Y-48105000D02*
X98645000Y-48105000D01*
X97250000Y-49500000D02*
X92000000Y-49500000D01*
%TO.N,Net-(J4-Pad10)*%
X99435000Y-45565000D02*
X98000000Y-47000000D01*
X104375000Y-45565000D02*
X99435000Y-45565000D01*
X98000000Y-47000000D02*
X92000000Y-47000000D01*
%TO.N,Net-(J5-Pad3)*%
X127000000Y-49500000D02*
X132525000Y-49500000D01*
X123065000Y-45565000D02*
X127000000Y-49500000D01*
X119615000Y-45565000D02*
X123065000Y-45565000D01*
%TO.N,Net-(J5-Pad4)*%
X119615000Y-48105000D02*
X123605000Y-48105000D01*
X123605000Y-48105000D02*
X127500000Y-52000000D01*
X127500000Y-52000000D02*
X132525000Y-52000000D01*
%TO.N,Net-(J5-Pad5)*%
X124145000Y-50645000D02*
X128000000Y-54500000D01*
X128000000Y-54500000D02*
X132525000Y-54500000D01*
X119615000Y-50645000D02*
X124145000Y-50645000D01*
%TO.N,Net-(J5-Pad6)*%
X124185000Y-53185000D02*
X128000000Y-57000000D01*
X128000000Y-57000000D02*
X132525000Y-57000000D01*
X119615000Y-53185000D02*
X124185000Y-53185000D01*
%TO.N,Net-(J5-Pad7)*%
X123725000Y-55725000D02*
X127500000Y-59500000D01*
X127500000Y-59500000D02*
X132525000Y-59500000D01*
X119615000Y-55725000D02*
X123725000Y-55725000D01*
%TO.N,Net-(J5-Pad8)*%
X119615000Y-58265000D02*
X123765000Y-58265000D01*
X127500000Y-62000000D02*
X132525000Y-62000000D01*
X123765000Y-58265000D02*
X127500000Y-62000000D01*
%TO.N,Net-(J5-Pad9)*%
X123805000Y-60805000D02*
X127500000Y-64500000D01*
X127500000Y-64500000D02*
X132525000Y-64500000D01*
X119615000Y-60805000D02*
X123805000Y-60805000D01*
%TO.N,Net-(J5-Pad10)*%
X127500000Y-67000000D02*
X132525000Y-67000000D01*
X123845000Y-63345000D02*
X127500000Y-67000000D01*
X119615000Y-63345000D02*
X123845000Y-63345000D01*
%TO.N,Net-(J6-Pad3)*%
X159375000Y-63345000D02*
X155155000Y-63345000D01*
X154000000Y-64500000D02*
X147000000Y-64500000D01*
X155155000Y-63345000D02*
X154000000Y-64500000D01*
%TO.N,Net-(J6-Pad4)*%
X154695000Y-60805000D02*
X153500000Y-62000000D01*
X153500000Y-62000000D02*
X147000000Y-62000000D01*
X159375000Y-60805000D02*
X154695000Y-60805000D01*
%TO.N,Net-(J6-Pad5)*%
X159375000Y-58265000D02*
X155235000Y-58265000D01*
X155235000Y-58265000D02*
X154000000Y-59500000D01*
X154000000Y-59500000D02*
X147000000Y-59500000D01*
%TO.N,Net-(J6-Pad6)*%
X155275000Y-55725000D02*
X154000000Y-57000000D01*
X154000000Y-57000000D02*
X147000000Y-57000000D01*
X159375000Y-55725000D02*
X155275000Y-55725000D01*
%TO.N,Net-(J6-Pad7)*%
X159375000Y-53185000D02*
X155315000Y-53185000D01*
X154000000Y-54500000D02*
X147000000Y-54500000D01*
X155315000Y-53185000D02*
X154000000Y-54500000D01*
%TO.N,Net-(J6-Pad8)*%
X159375000Y-50645000D02*
X155355000Y-50645000D01*
X155355000Y-50645000D02*
X154000000Y-52000000D01*
X154000000Y-52000000D02*
X147000000Y-52000000D01*
%TO.N,Net-(J6-Pad9)*%
X159375000Y-48105000D02*
X154895000Y-48105000D01*
X154895000Y-48105000D02*
X153500000Y-49500000D01*
X153500000Y-49500000D02*
X147000000Y-49500000D01*
%TO.N,Net-(J6-Pad10)*%
X155500000Y-45500000D02*
X154500000Y-45500000D01*
X159375000Y-45565000D02*
X155565000Y-45565000D01*
X155565000Y-45565000D02*
X155500000Y-45500000D01*
X153000000Y-47000000D02*
X147000000Y-47000000D01*
X154500000Y-45500000D02*
X153000000Y-47000000D01*
%TO.N,Net-(J7-Pad3)*%
X183000000Y-49500000D02*
X187000000Y-49500000D01*
X179065000Y-45565000D02*
X183000000Y-49500000D01*
X174615000Y-45565000D02*
X179065000Y-45565000D01*
%TO.N,Net-(J7-Pad4)*%
X174615000Y-48105000D02*
X178605000Y-48105000D01*
X178605000Y-48105000D02*
X182500000Y-52000000D01*
X182500000Y-52000000D02*
X187000000Y-52000000D01*
%TO.N,Net-(J7-Pad5)*%
X182500000Y-54500000D02*
X187000000Y-54500000D01*
X178645000Y-50645000D02*
X182500000Y-54500000D01*
X174615000Y-50645000D02*
X178645000Y-50645000D01*
%TO.N,Net-(J7-Pad6)*%
X178685000Y-53185000D02*
X182500000Y-57000000D01*
X174615000Y-53185000D02*
X178685000Y-53185000D01*
X182500000Y-57000000D02*
X187000000Y-57000000D01*
%TO.N,Net-(J7-Pad7)*%
X182500000Y-59500000D02*
X187000000Y-59500000D01*
X174615000Y-55725000D02*
X178725000Y-55725000D01*
X178725000Y-55725000D02*
X182500000Y-59500000D01*
%TO.N,Net-(J7-Pad8)*%
X182500000Y-62000000D02*
X187000000Y-62000000D01*
X178765000Y-58265000D02*
X182500000Y-62000000D01*
X174615000Y-58265000D02*
X178765000Y-58265000D01*
%TO.N,Net-(J7-Pad9)*%
X174615000Y-60805000D02*
X178805000Y-60805000D01*
X182500000Y-64500000D02*
X187000000Y-64500000D01*
X178805000Y-60805000D02*
X182500000Y-64500000D01*
%TO.N,Net-(J7-Pad10)*%
X182500000Y-67000000D02*
X187000000Y-67000000D01*
X178845000Y-63345000D02*
X182500000Y-67000000D01*
X174615000Y-63345000D02*
X178845000Y-63345000D01*
%TO.N,Net-(J8-Pad3)*%
X211875000Y-63345000D02*
X208655000Y-63345000D01*
X208655000Y-63345000D02*
X207500000Y-64500000D01*
X207500000Y-64500000D02*
X199500000Y-64500000D01*
%TO.N,Net-(J8-Pad4)*%
X208695000Y-60805000D02*
X207500000Y-62000000D01*
X211875000Y-60805000D02*
X208695000Y-60805000D01*
X207500000Y-62000000D02*
X199500000Y-62000000D01*
%TO.N,Net-(J8-Pad5)*%
X211875000Y-58265000D02*
X208235000Y-58265000D01*
X208235000Y-58265000D02*
X207000000Y-59500000D01*
X207000000Y-59500000D02*
X199500000Y-59500000D01*
%TO.N,Net-(J8-Pad6)*%
X206500000Y-57000000D02*
X199500000Y-57000000D01*
X211875000Y-55725000D02*
X207775000Y-55725000D01*
X207775000Y-55725000D02*
X206500000Y-57000000D01*
%TO.N,Net-(J8-Pad7)*%
X211875000Y-53185000D02*
X208315000Y-53185000D01*
X207000000Y-54500000D02*
X199500000Y-54500000D01*
X208315000Y-53185000D02*
X207000000Y-54500000D01*
%TO.N,Net-(J8-Pad8)*%
X208355000Y-50645000D02*
X207000000Y-52000000D01*
X207000000Y-52000000D02*
X199500000Y-52000000D01*
X211875000Y-50645000D02*
X208355000Y-50645000D01*
%TO.N,Net-(J8-Pad9)*%
X208395000Y-48105000D02*
X207000000Y-49500000D01*
X207000000Y-49500000D02*
X199500000Y-49500000D01*
X211875000Y-48105000D02*
X208395000Y-48105000D01*
%TO.N,Net-(J8-Pad10)*%
X211875000Y-45565000D02*
X207935000Y-45565000D01*
X206500000Y-47000000D02*
X199500000Y-47000000D01*
X207935000Y-45565000D02*
X206500000Y-47000000D01*
%TO.N,Net-(J9-Pad3)*%
X233000000Y-49500000D02*
X237525000Y-49500000D01*
X229065000Y-45565000D02*
X233000000Y-49500000D01*
X227115000Y-45565000D02*
X229065000Y-45565000D01*
%TO.N,Net-(J9-Pad4)*%
X229105000Y-48105000D02*
X233000000Y-52000000D01*
X233000000Y-52000000D02*
X237525000Y-52000000D01*
X227115000Y-48105000D02*
X229105000Y-48105000D01*
%TO.N,Net-(J9-Pad5)*%
X233000000Y-54500000D02*
X237525000Y-54500000D01*
X227115000Y-50645000D02*
X229145000Y-50645000D01*
X229145000Y-50645000D02*
X233000000Y-54500000D01*
%TO.N,Net-(J9-Pad6)*%
X233000000Y-57000000D02*
X237525000Y-57000000D01*
X229185000Y-53185000D02*
X233000000Y-57000000D01*
X227115000Y-53185000D02*
X229185000Y-53185000D01*
%TO.N,Net-(J9-Pad7)*%
X233000000Y-59500000D02*
X237525000Y-59500000D01*
X229225000Y-55725000D02*
X233000000Y-59500000D01*
X227115000Y-55725000D02*
X229225000Y-55725000D01*
%TO.N,Net-(J9-Pad8)*%
X227115000Y-58265000D02*
X229265000Y-58265000D01*
X233000000Y-62000000D02*
X237525000Y-62000000D01*
X229265000Y-58265000D02*
X233000000Y-62000000D01*
%TO.N,Net-(J9-Pad9)*%
X229805000Y-60805000D02*
X233500000Y-64500000D01*
X227115000Y-60805000D02*
X229805000Y-60805000D01*
X233500000Y-64500000D02*
X237525000Y-64500000D01*
%TO.N,Net-(J9-Pad10)*%
X227115000Y-63345000D02*
X229845000Y-63345000D01*
X229845000Y-63345000D02*
X233500000Y-67000000D01*
X233500000Y-67000000D02*
X237525000Y-67000000D01*
%TD*%
M02*
