%TF.GenerationSoftware,KiCad,Pcbnew,(6.0.7)*%
%TF.CreationDate,2023-06-05T08:41:08+05:30*%
%TF.ProjectId,autonomous chess playing machine,6175746f-6e6f-46d6-9f75-732063686573,rev?*%
%TF.SameCoordinates,Original*%
%TF.FileFunction,Legend,Top*%
%TF.FilePolarity,Positive*%
%FSLAX46Y46*%
G04 Gerber Fmt 4.6, Leading zero omitted, Abs format (unit mm)*
G04 Created by KiCad (PCBNEW (6.0.7)) date 2023-06-05 08:41:08*
%MOMM*%
%LPD*%
G01*
G04 APERTURE LIST*
%TA.AperFunction,Profile*%
%ADD10C,0.100000*%
%TD*%
%ADD11C,0.150000*%
%ADD12C,0.120000*%
G04 APERTURE END LIST*
D10*
X28000000Y-30000000D02*
X248000000Y-30000000D01*
X248000000Y-30000000D02*
X248000000Y-100000000D01*
X248000000Y-100000000D02*
X28000000Y-100000000D01*
X28000000Y-100000000D02*
X28000000Y-30000000D01*
D11*
%TO.C,REF\u002A\u002A*%
X242666666Y-30252380D02*
X242333333Y-29776190D01*
X242095238Y-30252380D02*
X242095238Y-29252380D01*
X242476190Y-29252380D01*
X242571428Y-29300000D01*
X242619047Y-29347619D01*
X242666666Y-29442857D01*
X242666666Y-29585714D01*
X242619047Y-29680952D01*
X242571428Y-29728571D01*
X242476190Y-29776190D01*
X242095238Y-29776190D01*
X243095238Y-29728571D02*
X243428571Y-29728571D01*
X243571428Y-30252380D02*
X243095238Y-30252380D01*
X243095238Y-29252380D01*
X243571428Y-29252380D01*
X244333333Y-29728571D02*
X244000000Y-29728571D01*
X244000000Y-30252380D02*
X244000000Y-29252380D01*
X244476190Y-29252380D01*
X245000000Y-29252380D02*
X245000000Y-29490476D01*
X244761904Y-29395238D02*
X245000000Y-29490476D01*
X245238095Y-29395238D01*
X244857142Y-29680952D02*
X245000000Y-29490476D01*
X245142857Y-29680952D01*
X245761904Y-29252380D02*
X245761904Y-29490476D01*
X245523809Y-29395238D02*
X245761904Y-29490476D01*
X246000000Y-29395238D01*
X245619047Y-29680952D02*
X245761904Y-29490476D01*
X245904761Y-29680952D01*
X242666666Y-92252380D02*
X242333333Y-91776190D01*
X242095238Y-92252380D02*
X242095238Y-91252380D01*
X242476190Y-91252380D01*
X242571428Y-91300000D01*
X242619047Y-91347619D01*
X242666666Y-91442857D01*
X242666666Y-91585714D01*
X242619047Y-91680952D01*
X242571428Y-91728571D01*
X242476190Y-91776190D01*
X242095238Y-91776190D01*
X243095238Y-91728571D02*
X243428571Y-91728571D01*
X243571428Y-92252380D02*
X243095238Y-92252380D01*
X243095238Y-91252380D01*
X243571428Y-91252380D01*
X244333333Y-91728571D02*
X244000000Y-91728571D01*
X244000000Y-92252380D02*
X244000000Y-91252380D01*
X244476190Y-91252380D01*
X245000000Y-91252380D02*
X245000000Y-91490476D01*
X244761904Y-91395238D02*
X245000000Y-91490476D01*
X245238095Y-91395238D01*
X244857142Y-91680952D02*
X245000000Y-91490476D01*
X245142857Y-91680952D01*
X245761904Y-91252380D02*
X245761904Y-91490476D01*
X245523809Y-91395238D02*
X245761904Y-91490476D01*
X246000000Y-91395238D01*
X245619047Y-91680952D02*
X245761904Y-91490476D01*
X245904761Y-91680952D01*
X30666666Y-92252380D02*
X30333333Y-91776190D01*
X30095238Y-92252380D02*
X30095238Y-91252380D01*
X30476190Y-91252380D01*
X30571428Y-91300000D01*
X30619047Y-91347619D01*
X30666666Y-91442857D01*
X30666666Y-91585714D01*
X30619047Y-91680952D01*
X30571428Y-91728571D01*
X30476190Y-91776190D01*
X30095238Y-91776190D01*
X31095238Y-91728571D02*
X31428571Y-91728571D01*
X31571428Y-92252380D02*
X31095238Y-92252380D01*
X31095238Y-91252380D01*
X31571428Y-91252380D01*
X32333333Y-91728571D02*
X32000000Y-91728571D01*
X32000000Y-92252380D02*
X32000000Y-91252380D01*
X32476190Y-91252380D01*
X33000000Y-91252380D02*
X33000000Y-91490476D01*
X32761904Y-91395238D02*
X33000000Y-91490476D01*
X33238095Y-91395238D01*
X32857142Y-91680952D02*
X33000000Y-91490476D01*
X33142857Y-91680952D01*
X33761904Y-91252380D02*
X33761904Y-91490476D01*
X33523809Y-91395238D02*
X33761904Y-91490476D01*
X34000000Y-91395238D01*
X33619047Y-91680952D02*
X33761904Y-91490476D01*
X33904761Y-91680952D01*
X30666666Y-30252380D02*
X30333333Y-29776190D01*
X30095238Y-30252380D02*
X30095238Y-29252380D01*
X30476190Y-29252380D01*
X30571428Y-29300000D01*
X30619047Y-29347619D01*
X30666666Y-29442857D01*
X30666666Y-29585714D01*
X30619047Y-29680952D01*
X30571428Y-29728571D01*
X30476190Y-29776190D01*
X30095238Y-29776190D01*
X31095238Y-29728571D02*
X31428571Y-29728571D01*
X31571428Y-30252380D02*
X31095238Y-30252380D01*
X31095238Y-29252380D01*
X31571428Y-29252380D01*
X32333333Y-29728571D02*
X32000000Y-29728571D01*
X32000000Y-30252380D02*
X32000000Y-29252380D01*
X32476190Y-29252380D01*
X33000000Y-29252380D02*
X33000000Y-29490476D01*
X32761904Y-29395238D02*
X33000000Y-29490476D01*
X33238095Y-29395238D01*
X32857142Y-29680952D02*
X33000000Y-29490476D01*
X33142857Y-29680952D01*
X33761904Y-29252380D02*
X33761904Y-29490476D01*
X33523809Y-29395238D02*
X33761904Y-29490476D01*
X34000000Y-29395238D01*
X33619047Y-29680952D02*
X33761904Y-29490476D01*
X33904761Y-29680952D01*
%TO.C,C2*%
X112083333Y-36607142D02*
X112035714Y-36654761D01*
X111892857Y-36702380D01*
X111797619Y-36702380D01*
X111654761Y-36654761D01*
X111559523Y-36559523D01*
X111511904Y-36464285D01*
X111464285Y-36273809D01*
X111464285Y-36130952D01*
X111511904Y-35940476D01*
X111559523Y-35845238D01*
X111654761Y-35750000D01*
X111797619Y-35702380D01*
X111892857Y-35702380D01*
X112035714Y-35750000D01*
X112083333Y-35797619D01*
X112464285Y-35797619D02*
X112511904Y-35750000D01*
X112607142Y-35702380D01*
X112845238Y-35702380D01*
X112940476Y-35750000D01*
X112988095Y-35797619D01*
X113035714Y-35892857D01*
X113035714Y-35988095D01*
X112988095Y-36130952D01*
X112416666Y-36702380D01*
X113035714Y-36702380D01*
%TO.C,C1*%
X59083333Y-36607142D02*
X59035714Y-36654761D01*
X58892857Y-36702380D01*
X58797619Y-36702380D01*
X58654761Y-36654761D01*
X58559523Y-36559523D01*
X58511904Y-36464285D01*
X58464285Y-36273809D01*
X58464285Y-36130952D01*
X58511904Y-35940476D01*
X58559523Y-35845238D01*
X58654761Y-35750000D01*
X58797619Y-35702380D01*
X58892857Y-35702380D01*
X59035714Y-35750000D01*
X59083333Y-35797619D01*
X60035714Y-36702380D02*
X59464285Y-36702380D01*
X59750000Y-36702380D02*
X59750000Y-35702380D01*
X59654761Y-35845238D01*
X59559523Y-35940476D01*
X59464285Y-35988095D01*
%TO.C,J5*%
X135527380Y-57333333D02*
X136241666Y-57333333D01*
X136384523Y-57380952D01*
X136479761Y-57476190D01*
X136527380Y-57619047D01*
X136527380Y-57714285D01*
X135527380Y-56380952D02*
X135527380Y-56857142D01*
X136003571Y-56904761D01*
X135955952Y-56857142D01*
X135908333Y-56761904D01*
X135908333Y-56523809D01*
X135955952Y-56428571D01*
X136003571Y-56380952D01*
X136098809Y-56333333D01*
X136336904Y-56333333D01*
X136432142Y-56380952D01*
X136479761Y-56428571D01*
X136527380Y-56523809D01*
X136527380Y-56761904D01*
X136479761Y-56857142D01*
X136432142Y-56904761D01*
%TO.C,J3*%
X83027380Y-57333333D02*
X83741666Y-57333333D01*
X83884523Y-57380952D01*
X83979761Y-57476190D01*
X84027380Y-57619047D01*
X84027380Y-57714285D01*
X83027380Y-56952380D02*
X83027380Y-56333333D01*
X83408333Y-56666666D01*
X83408333Y-56523809D01*
X83455952Y-56428571D01*
X83503571Y-56380952D01*
X83598809Y-56333333D01*
X83836904Y-56333333D01*
X83932142Y-56380952D01*
X83979761Y-56428571D01*
X84027380Y-56523809D01*
X84027380Y-56809523D01*
X83979761Y-56904761D01*
X83932142Y-56952380D01*
%TO.C,J6*%
X142902380Y-57333333D02*
X143616666Y-57333333D01*
X143759523Y-57380952D01*
X143854761Y-57476190D01*
X143902380Y-57619047D01*
X143902380Y-57714285D01*
X142902380Y-56428571D02*
X142902380Y-56619047D01*
X142950000Y-56714285D01*
X142997619Y-56761904D01*
X143140476Y-56857142D01*
X143330952Y-56904761D01*
X143711904Y-56904761D01*
X143807142Y-56857142D01*
X143854761Y-56809523D01*
X143902380Y-56714285D01*
X143902380Y-56523809D01*
X143854761Y-56428571D01*
X143807142Y-56380952D01*
X143711904Y-56333333D01*
X143473809Y-56333333D01*
X143378571Y-56380952D01*
X143330952Y-56428571D01*
X143283333Y-56523809D01*
X143283333Y-56714285D01*
X143330952Y-56809523D01*
X143378571Y-56857142D01*
X143473809Y-56904761D01*
%TO.C,U3*%
X156738095Y-73452380D02*
X156738095Y-74261904D01*
X156785714Y-74357142D01*
X156833333Y-74404761D01*
X156928571Y-74452380D01*
X157119047Y-74452380D01*
X157214285Y-74404761D01*
X157261904Y-74357142D01*
X157309523Y-74261904D01*
X157309523Y-73452380D01*
X157690476Y-73452380D02*
X158309523Y-73452380D01*
X157976190Y-73833333D01*
X158119047Y-73833333D01*
X158214285Y-73880952D01*
X158261904Y-73928571D01*
X158309523Y-74023809D01*
X158309523Y-74261904D01*
X158261904Y-74357142D01*
X158214285Y-74404761D01*
X158119047Y-74452380D01*
X157833333Y-74452380D01*
X157738095Y-74404761D01*
X157690476Y-74357142D01*
%TO.C,J4*%
X87902380Y-57333333D02*
X88616666Y-57333333D01*
X88759523Y-57380952D01*
X88854761Y-57476190D01*
X88902380Y-57619047D01*
X88902380Y-57714285D01*
X88235714Y-56428571D02*
X88902380Y-56428571D01*
X87854761Y-56666666D02*
X88569047Y-56904761D01*
X88569047Y-56285714D01*
%TO.C,J1*%
X39282380Y-92308333D02*
X39996666Y-92308333D01*
X40139523Y-92355952D01*
X40234761Y-92451190D01*
X40282380Y-92594047D01*
X40282380Y-92689285D01*
X40282380Y-91308333D02*
X40282380Y-91879761D01*
X40282380Y-91594047D02*
X39282380Y-91594047D01*
X39425238Y-91689285D01*
X39520476Y-91784523D01*
X39568095Y-91879761D01*
%TO.C,J9*%
X240527380Y-57333333D02*
X241241666Y-57333333D01*
X241384523Y-57380952D01*
X241479761Y-57476190D01*
X241527380Y-57619047D01*
X241527380Y-57714285D01*
X241527380Y-56809523D02*
X241527380Y-56619047D01*
X241479761Y-56523809D01*
X241432142Y-56476190D01*
X241289285Y-56380952D01*
X241098809Y-56333333D01*
X240717857Y-56333333D01*
X240622619Y-56380952D01*
X240575000Y-56428571D01*
X240527380Y-56523809D01*
X240527380Y-56714285D01*
X240575000Y-56809523D01*
X240622619Y-56857142D01*
X240717857Y-56904761D01*
X240955952Y-56904761D01*
X241051190Y-56857142D01*
X241098809Y-56809523D01*
X241146428Y-56714285D01*
X241146428Y-56523809D01*
X241098809Y-56428571D01*
X241051190Y-56380952D01*
X240955952Y-56333333D01*
%TO.C,C4*%
X219083333Y-36607142D02*
X219035714Y-36654761D01*
X218892857Y-36702380D01*
X218797619Y-36702380D01*
X218654761Y-36654761D01*
X218559523Y-36559523D01*
X218511904Y-36464285D01*
X218464285Y-36273809D01*
X218464285Y-36130952D01*
X218511904Y-35940476D01*
X218559523Y-35845238D01*
X218654761Y-35750000D01*
X218797619Y-35702380D01*
X218892857Y-35702380D01*
X219035714Y-35750000D01*
X219083333Y-35797619D01*
X219940476Y-36035714D02*
X219940476Y-36702380D01*
X219702380Y-35654761D02*
X219464285Y-36369047D01*
X220083333Y-36369047D01*
%TO.C,U2*%
X101738095Y-73452380D02*
X101738095Y-74261904D01*
X101785714Y-74357142D01*
X101833333Y-74404761D01*
X101928571Y-74452380D01*
X102119047Y-74452380D01*
X102214285Y-74404761D01*
X102261904Y-74357142D01*
X102309523Y-74261904D01*
X102309523Y-73452380D01*
X102738095Y-73547619D02*
X102785714Y-73500000D01*
X102880952Y-73452380D01*
X103119047Y-73452380D01*
X103214285Y-73500000D01*
X103261904Y-73547619D01*
X103309523Y-73642857D01*
X103309523Y-73738095D01*
X103261904Y-73880952D01*
X102690476Y-74452380D01*
X103309523Y-74452380D01*
%TO.C,C3*%
X167083333Y-36607142D02*
X167035714Y-36654761D01*
X166892857Y-36702380D01*
X166797619Y-36702380D01*
X166654761Y-36654761D01*
X166559523Y-36559523D01*
X166511904Y-36464285D01*
X166464285Y-36273809D01*
X166464285Y-36130952D01*
X166511904Y-35940476D01*
X166559523Y-35845238D01*
X166654761Y-35750000D01*
X166797619Y-35702380D01*
X166892857Y-35702380D01*
X167035714Y-35750000D01*
X167083333Y-35797619D01*
X167416666Y-35702380D02*
X168035714Y-35702380D01*
X167702380Y-36083333D01*
X167845238Y-36083333D01*
X167940476Y-36130952D01*
X167988095Y-36178571D01*
X168035714Y-36273809D01*
X168035714Y-36511904D01*
X167988095Y-36607142D01*
X167940476Y-36654761D01*
X167845238Y-36702380D01*
X167559523Y-36702380D01*
X167464285Y-36654761D01*
X167416666Y-36607142D01*
%TO.C,J8*%
X195402380Y-57333333D02*
X196116666Y-57333333D01*
X196259523Y-57380952D01*
X196354761Y-57476190D01*
X196402380Y-57619047D01*
X196402380Y-57714285D01*
X195830952Y-56714285D02*
X195783333Y-56809523D01*
X195735714Y-56857142D01*
X195640476Y-56904761D01*
X195592857Y-56904761D01*
X195497619Y-56857142D01*
X195450000Y-56809523D01*
X195402380Y-56714285D01*
X195402380Y-56523809D01*
X195450000Y-56428571D01*
X195497619Y-56380952D01*
X195592857Y-56333333D01*
X195640476Y-56333333D01*
X195735714Y-56380952D01*
X195783333Y-56428571D01*
X195830952Y-56523809D01*
X195830952Y-56714285D01*
X195878571Y-56809523D01*
X195926190Y-56857142D01*
X196021428Y-56904761D01*
X196211904Y-56904761D01*
X196307142Y-56857142D01*
X196354761Y-56809523D01*
X196402380Y-56714285D01*
X196402380Y-56523809D01*
X196354761Y-56428571D01*
X196307142Y-56380952D01*
X196211904Y-56333333D01*
X196021428Y-56333333D01*
X195926190Y-56380952D01*
X195878571Y-56428571D01*
X195830952Y-56523809D01*
%TO.C,J2*%
X35402380Y-57333333D02*
X36116666Y-57333333D01*
X36259523Y-57380952D01*
X36354761Y-57476190D01*
X36402380Y-57619047D01*
X36402380Y-57714285D01*
X35497619Y-56904761D02*
X35450000Y-56857142D01*
X35402380Y-56761904D01*
X35402380Y-56523809D01*
X35450000Y-56428571D01*
X35497619Y-56380952D01*
X35592857Y-56333333D01*
X35688095Y-56333333D01*
X35830952Y-56380952D01*
X36402380Y-56952380D01*
X36402380Y-56333333D01*
%TO.C,U4*%
X209238095Y-73452380D02*
X209238095Y-74261904D01*
X209285714Y-74357142D01*
X209333333Y-74404761D01*
X209428571Y-74452380D01*
X209619047Y-74452380D01*
X209714285Y-74404761D01*
X209761904Y-74357142D01*
X209809523Y-74261904D01*
X209809523Y-73452380D01*
X210714285Y-73785714D02*
X210714285Y-74452380D01*
X210476190Y-73404761D02*
X210238095Y-74119047D01*
X210857142Y-74119047D01*
%TO.C,J7*%
X190002380Y-57333333D02*
X190716666Y-57333333D01*
X190859523Y-57380952D01*
X190954761Y-57476190D01*
X191002380Y-57619047D01*
X191002380Y-57714285D01*
X190002380Y-56952380D02*
X190002380Y-56285714D01*
X191002380Y-56714285D01*
%TO.C,U1*%
X48738095Y-73452380D02*
X48738095Y-74261904D01*
X48785714Y-74357142D01*
X48833333Y-74404761D01*
X48928571Y-74452380D01*
X49119047Y-74452380D01*
X49214285Y-74404761D01*
X49261904Y-74357142D01*
X49309523Y-74261904D01*
X49309523Y-73452380D01*
X50309523Y-74452380D02*
X49738095Y-74452380D01*
X50023809Y-74452380D02*
X50023809Y-73452380D01*
X49928571Y-73595238D01*
X49833333Y-73690476D01*
X49738095Y-73738095D01*
D12*
%TO.C,C2*%
X114670000Y-37380000D02*
X114670000Y-40620000D01*
X109830000Y-40620000D02*
X114670000Y-40620000D01*
X109830000Y-37380000D02*
X114670000Y-37380000D01*
X109830000Y-37380000D02*
X109830000Y-40620000D01*
%TO.C,C1*%
X56830000Y-37380000D02*
X56830000Y-40620000D01*
X56830000Y-37380000D02*
X61670000Y-37380000D01*
X56830000Y-40620000D02*
X61670000Y-40620000D01*
X61670000Y-37380000D02*
X61670000Y-40620000D01*
%TO.C,J5*%
X134225000Y-41950000D02*
X134225000Y-43750000D01*
X134225000Y-72050000D02*
X134975000Y-72050000D01*
X129015000Y-72060000D02*
X134985000Y-72060000D01*
X134975000Y-43750000D02*
X134975000Y-41950000D01*
X132725000Y-42700000D02*
X129775000Y-42700000D01*
X129775000Y-71300000D02*
X129775000Y-57000000D01*
X134225000Y-45250000D02*
X134225000Y-68750000D01*
X134985000Y-41940000D02*
X129015000Y-41940000D01*
X134975000Y-70250000D02*
X134225000Y-70250000D01*
X129775000Y-42700000D02*
X129775000Y-57000000D01*
X132725000Y-41950000D02*
X132725000Y-42700000D01*
X134975000Y-45250000D02*
X134225000Y-45250000D01*
X134225000Y-68750000D02*
X134975000Y-68750000D01*
X134225000Y-43750000D02*
X134975000Y-43750000D01*
X134975000Y-72050000D02*
X134975000Y-70250000D01*
X135275000Y-41650000D02*
X134025000Y-41650000D01*
X135275000Y-42900000D02*
X135275000Y-41650000D01*
X132725000Y-72050000D02*
X132725000Y-71300000D01*
X129015000Y-41940000D02*
X129015000Y-72060000D01*
X134985000Y-72060000D02*
X134985000Y-41940000D01*
X134225000Y-70250000D02*
X134225000Y-72050000D01*
X134975000Y-68750000D02*
X134975000Y-45250000D01*
X134975000Y-41950000D02*
X134225000Y-41950000D01*
X132725000Y-71300000D02*
X129775000Y-71300000D01*
%TO.C,J3*%
X82485000Y-72060000D02*
X82485000Y-41940000D01*
X81725000Y-72050000D02*
X82475000Y-72050000D01*
X80225000Y-72050000D02*
X80225000Y-71300000D01*
X82475000Y-70250000D02*
X81725000Y-70250000D01*
X82475000Y-43750000D02*
X82475000Y-41950000D01*
X77275000Y-71300000D02*
X77275000Y-57000000D01*
X81725000Y-43750000D02*
X82475000Y-43750000D01*
X82485000Y-41940000D02*
X76515000Y-41940000D01*
X81725000Y-70250000D02*
X81725000Y-72050000D01*
X82475000Y-68750000D02*
X82475000Y-45250000D01*
X82475000Y-72050000D02*
X82475000Y-70250000D01*
X81725000Y-68750000D02*
X82475000Y-68750000D01*
X80225000Y-71300000D02*
X77275000Y-71300000D01*
X82475000Y-45250000D02*
X81725000Y-45250000D01*
X82475000Y-41950000D02*
X81725000Y-41950000D01*
X82775000Y-41650000D02*
X81525000Y-41650000D01*
X80225000Y-42700000D02*
X77275000Y-42700000D01*
X81725000Y-45250000D02*
X81725000Y-68750000D01*
X76515000Y-72060000D02*
X82485000Y-72060000D01*
X80225000Y-41950000D02*
X80225000Y-42700000D01*
X77275000Y-42700000D02*
X77275000Y-57000000D01*
X81725000Y-41950000D02*
X81725000Y-43750000D01*
X76515000Y-41940000D02*
X76515000Y-72060000D01*
X82775000Y-42900000D02*
X82775000Y-41650000D01*
%TO.C,J6*%
X144550000Y-45250000D02*
X144550000Y-68750000D01*
X145300000Y-72050000D02*
X145300000Y-70250000D01*
X149750000Y-71300000D02*
X149750000Y-57000000D01*
X145300000Y-70250000D02*
X144550000Y-70250000D01*
X144250000Y-72350000D02*
X145500000Y-72350000D01*
X144550000Y-41950000D02*
X144550000Y-43750000D01*
X144540000Y-72060000D02*
X150510000Y-72060000D01*
X146800000Y-72050000D02*
X146800000Y-71300000D01*
X144550000Y-70250000D02*
X144550000Y-72050000D01*
X144250000Y-71100000D02*
X144250000Y-72350000D01*
X150510000Y-72060000D02*
X150510000Y-41940000D01*
X144550000Y-68750000D02*
X145300000Y-68750000D01*
X146800000Y-42700000D02*
X149750000Y-42700000D01*
X150510000Y-41940000D02*
X144540000Y-41940000D01*
X144540000Y-41940000D02*
X144540000Y-72060000D01*
X145300000Y-68750000D02*
X145300000Y-45250000D01*
X145300000Y-43750000D02*
X145300000Y-41950000D01*
X144550000Y-72050000D02*
X145300000Y-72050000D01*
X146800000Y-71300000D02*
X149750000Y-71300000D01*
X144550000Y-43750000D02*
X145300000Y-43750000D01*
X149750000Y-42700000D02*
X149750000Y-57000000D01*
X146800000Y-41950000D02*
X146800000Y-42700000D01*
X145300000Y-41950000D02*
X144550000Y-41950000D01*
X145300000Y-45250000D02*
X144550000Y-45250000D01*
%TO.C,U3*%
X173055000Y-72295000D02*
X173055000Y-41695000D01*
X176055000Y-41635000D02*
X157935000Y-41635000D01*
X157935000Y-41635000D02*
X157935000Y-72355000D01*
X165995000Y-41695000D02*
X160935000Y-41695000D01*
X160935000Y-41695000D02*
X160935000Y-72295000D01*
X157935000Y-72355000D02*
X176055000Y-72355000D01*
X173055000Y-41695000D02*
X167995000Y-41695000D01*
X176055000Y-72355000D02*
X176055000Y-41635000D01*
X160935000Y-72295000D02*
X173055000Y-72295000D01*
X165995000Y-41695000D02*
G75*
G03*
X167995000Y-41695000I1000000J0D01*
G01*
%TO.C,J4*%
X95510000Y-41940000D02*
X89540000Y-41940000D01*
X89550000Y-45250000D02*
X89550000Y-68750000D01*
X91800000Y-42700000D02*
X94750000Y-42700000D01*
X89550000Y-72050000D02*
X90300000Y-72050000D01*
X95510000Y-72060000D02*
X95510000Y-41940000D01*
X89550000Y-70250000D02*
X89550000Y-72050000D01*
X89550000Y-68750000D02*
X90300000Y-68750000D01*
X90300000Y-72050000D02*
X90300000Y-70250000D01*
X90300000Y-41950000D02*
X89550000Y-41950000D01*
X90300000Y-70250000D02*
X89550000Y-70250000D01*
X94750000Y-71300000D02*
X94750000Y-57000000D01*
X89540000Y-72060000D02*
X95510000Y-72060000D01*
X91800000Y-71300000D02*
X94750000Y-71300000D01*
X90300000Y-43750000D02*
X90300000Y-41950000D01*
X89550000Y-43750000D02*
X90300000Y-43750000D01*
X91800000Y-72050000D02*
X91800000Y-71300000D01*
X89250000Y-71100000D02*
X89250000Y-72350000D01*
X89550000Y-41950000D02*
X89550000Y-43750000D01*
X90300000Y-45250000D02*
X89550000Y-45250000D01*
X94750000Y-42700000D02*
X94750000Y-57000000D01*
X90300000Y-68750000D02*
X90300000Y-45250000D01*
X89250000Y-72350000D02*
X90500000Y-72350000D01*
X91800000Y-41950000D02*
X91800000Y-42700000D01*
X89540000Y-41940000D02*
X89540000Y-72060000D01*
%TO.C,J1*%
X41270000Y-90645000D02*
X42600000Y-90645000D01*
X41270000Y-91975000D02*
X41270000Y-90645000D01*
X66790000Y-93305000D02*
X66790000Y-90645000D01*
X43870000Y-93305000D02*
X66790000Y-93305000D01*
X43870000Y-93305000D02*
X43870000Y-90645000D01*
X43870000Y-90645000D02*
X66790000Y-90645000D01*
%TO.C,J9*%
X239975000Y-45250000D02*
X239225000Y-45250000D01*
X237725000Y-71300000D02*
X234775000Y-71300000D01*
X240275000Y-42900000D02*
X240275000Y-41650000D01*
X234015000Y-72060000D02*
X239985000Y-72060000D01*
X239975000Y-70250000D02*
X239225000Y-70250000D01*
X237725000Y-72050000D02*
X237725000Y-71300000D01*
X239975000Y-72050000D02*
X239975000Y-70250000D01*
X239225000Y-43750000D02*
X239975000Y-43750000D01*
X239225000Y-70250000D02*
X239225000Y-72050000D01*
X237725000Y-42700000D02*
X234775000Y-42700000D01*
X239985000Y-72060000D02*
X239985000Y-41940000D01*
X239225000Y-41950000D02*
X239225000Y-43750000D01*
X239225000Y-72050000D02*
X239975000Y-72050000D01*
X239975000Y-41950000D02*
X239225000Y-41950000D01*
X234775000Y-71300000D02*
X234775000Y-57000000D01*
X239985000Y-41940000D02*
X234015000Y-41940000D01*
X240275000Y-41650000D02*
X239025000Y-41650000D01*
X234775000Y-42700000D02*
X234775000Y-57000000D01*
X239975000Y-43750000D02*
X239975000Y-41950000D01*
X239225000Y-68750000D02*
X239975000Y-68750000D01*
X237725000Y-41950000D02*
X237725000Y-42700000D01*
X239225000Y-45250000D02*
X239225000Y-68750000D01*
X234015000Y-41940000D02*
X234015000Y-72060000D01*
X239975000Y-68750000D02*
X239975000Y-45250000D01*
%TO.C,C4*%
X216830000Y-37380000D02*
X216830000Y-40620000D01*
X221670000Y-37380000D02*
X221670000Y-40620000D01*
X216830000Y-37380000D02*
X221670000Y-37380000D01*
X216830000Y-40620000D02*
X221670000Y-40620000D01*
%TO.C,U2*%
X110995000Y-41695000D02*
X105935000Y-41695000D01*
X118055000Y-41695000D02*
X112995000Y-41695000D01*
X105935000Y-41695000D02*
X105935000Y-72295000D01*
X121055000Y-72355000D02*
X121055000Y-41635000D01*
X102935000Y-41635000D02*
X102935000Y-72355000D01*
X118055000Y-72295000D02*
X118055000Y-41695000D01*
X105935000Y-72295000D02*
X118055000Y-72295000D01*
X121055000Y-41635000D02*
X102935000Y-41635000D01*
X102935000Y-72355000D02*
X121055000Y-72355000D01*
X110995000Y-41695000D02*
G75*
G03*
X112995000Y-41695000I1000000J0D01*
G01*
%TO.C,C3*%
X164830000Y-37380000D02*
X164830000Y-40620000D01*
X169670000Y-37380000D02*
X169670000Y-40620000D01*
X164830000Y-37380000D02*
X169670000Y-37380000D01*
X164830000Y-40620000D02*
X169670000Y-40620000D01*
%TO.C,J8*%
X197050000Y-45250000D02*
X197050000Y-68750000D01*
X197050000Y-41950000D02*
X197050000Y-43750000D01*
X202250000Y-71300000D02*
X202250000Y-57000000D01*
X199300000Y-42700000D02*
X202250000Y-42700000D01*
X197050000Y-68750000D02*
X197800000Y-68750000D01*
X197800000Y-43750000D02*
X197800000Y-41950000D01*
X199300000Y-41950000D02*
X199300000Y-42700000D01*
X197040000Y-41940000D02*
X197040000Y-72060000D01*
X197800000Y-72050000D02*
X197800000Y-70250000D01*
X197800000Y-70250000D02*
X197050000Y-70250000D01*
X203010000Y-41940000D02*
X197040000Y-41940000D01*
X197800000Y-41950000D02*
X197050000Y-41950000D01*
X202250000Y-42700000D02*
X202250000Y-57000000D01*
X197050000Y-70250000D02*
X197050000Y-72050000D01*
X203010000Y-72060000D02*
X203010000Y-41940000D01*
X196750000Y-72350000D02*
X198000000Y-72350000D01*
X197800000Y-45250000D02*
X197050000Y-45250000D01*
X197050000Y-72050000D02*
X197800000Y-72050000D01*
X196750000Y-71100000D02*
X196750000Y-72350000D01*
X197800000Y-68750000D02*
X197800000Y-45250000D01*
X197040000Y-72060000D02*
X203010000Y-72060000D01*
X199300000Y-72050000D02*
X199300000Y-71300000D01*
X197050000Y-43750000D02*
X197800000Y-43750000D01*
X199300000Y-71300000D02*
X202250000Y-71300000D01*
%TO.C,J2*%
X37050000Y-68750000D02*
X37800000Y-68750000D01*
X39300000Y-42700000D02*
X42250000Y-42700000D01*
X37800000Y-41950000D02*
X37050000Y-41950000D01*
X37800000Y-43750000D02*
X37800000Y-41950000D01*
X43010000Y-41940000D02*
X37040000Y-41940000D01*
X37800000Y-68750000D02*
X37800000Y-45250000D01*
X42250000Y-42700000D02*
X42250000Y-57000000D01*
X37800000Y-70250000D02*
X37050000Y-70250000D01*
X37050000Y-41950000D02*
X37050000Y-43750000D01*
X43010000Y-72060000D02*
X43010000Y-41940000D01*
X37050000Y-45250000D02*
X37050000Y-68750000D01*
X37040000Y-41940000D02*
X37040000Y-72060000D01*
X36750000Y-72350000D02*
X38000000Y-72350000D01*
X39300000Y-72050000D02*
X39300000Y-71300000D01*
X37800000Y-45250000D02*
X37050000Y-45250000D01*
X37040000Y-72060000D02*
X43010000Y-72060000D01*
X39300000Y-41950000D02*
X39300000Y-42700000D01*
X37050000Y-72050000D02*
X37800000Y-72050000D01*
X37050000Y-70250000D02*
X37050000Y-72050000D01*
X37050000Y-43750000D02*
X37800000Y-43750000D01*
X37800000Y-72050000D02*
X37800000Y-70250000D01*
X36750000Y-71100000D02*
X36750000Y-72350000D01*
X39300000Y-71300000D02*
X42250000Y-71300000D01*
X42250000Y-71300000D02*
X42250000Y-57000000D01*
%TO.C,U4*%
X225555000Y-72295000D02*
X225555000Y-41695000D01*
X225555000Y-41695000D02*
X220495000Y-41695000D01*
X218495000Y-41695000D02*
X213435000Y-41695000D01*
X228555000Y-72355000D02*
X228555000Y-41635000D01*
X228555000Y-41635000D02*
X210435000Y-41635000D01*
X213435000Y-41695000D02*
X213435000Y-72295000D01*
X210435000Y-72355000D02*
X228555000Y-72355000D01*
X213435000Y-72295000D02*
X225555000Y-72295000D01*
X210435000Y-41635000D02*
X210435000Y-72355000D01*
X218495000Y-41695000D02*
G75*
G03*
X220495000Y-41695000I1000000J0D01*
G01*
%TO.C,J7*%
X189460000Y-72060000D02*
X189460000Y-41940000D01*
X188700000Y-43750000D02*
X189450000Y-43750000D01*
X189450000Y-72050000D02*
X189450000Y-70250000D01*
X189450000Y-43750000D02*
X189450000Y-41950000D01*
X188700000Y-70250000D02*
X188700000Y-72050000D01*
X184250000Y-42700000D02*
X184250000Y-57000000D01*
X189450000Y-45250000D02*
X188700000Y-45250000D01*
X184250000Y-71300000D02*
X184250000Y-57000000D01*
X188700000Y-41950000D02*
X188700000Y-43750000D01*
X183490000Y-72060000D02*
X189460000Y-72060000D01*
X188700000Y-45250000D02*
X188700000Y-68750000D01*
X189450000Y-70250000D02*
X188700000Y-70250000D01*
X189750000Y-41650000D02*
X188500000Y-41650000D01*
X187200000Y-41950000D02*
X187200000Y-42700000D01*
X187200000Y-42700000D02*
X184250000Y-42700000D01*
X187200000Y-72050000D02*
X187200000Y-71300000D01*
X187200000Y-71300000D02*
X184250000Y-71300000D01*
X189460000Y-41940000D02*
X183490000Y-41940000D01*
X188700000Y-72050000D02*
X189450000Y-72050000D01*
X189450000Y-41950000D02*
X188700000Y-41950000D01*
X189450000Y-68750000D02*
X189450000Y-45250000D01*
X189750000Y-42900000D02*
X189750000Y-41650000D01*
X183490000Y-41940000D02*
X183490000Y-72060000D01*
X188700000Y-68750000D02*
X189450000Y-68750000D01*
%TO.C,U1*%
X53435000Y-72295000D02*
X65555000Y-72295000D01*
X65555000Y-72295000D02*
X65555000Y-41695000D01*
X58495000Y-41695000D02*
X53435000Y-41695000D01*
X50435000Y-41635000D02*
X50435000Y-72355000D01*
X68555000Y-72355000D02*
X68555000Y-41635000D01*
X53435000Y-41695000D02*
X53435000Y-72295000D01*
X68555000Y-41635000D02*
X50435000Y-41635000D01*
X65555000Y-41695000D02*
X60495000Y-41695000D01*
X50435000Y-72355000D02*
X68555000Y-72355000D01*
X58495000Y-41695000D02*
G75*
G03*
X60495000Y-41695000I1000000J0D01*
G01*
%TD*%
M02*
