%TF.GenerationSoftware,KiCad,Pcbnew,(6.0.7)*%
%TF.CreationDate,2023-06-05T08:41:08+05:30*%
%TF.ProjectId,autonomous chess playing machine,6175746f-6e6f-46d6-9f75-732063686573,rev?*%
%TF.SameCoordinates,Original*%
%TF.FileFunction,AssemblyDrawing,Top*%
%FSLAX46Y46*%
G04 Gerber Fmt 4.6, Leading zero omitted, Abs format (unit mm)*
G04 Created by KiCad (PCBNEW (6.0.7)) date 2023-06-05 08:41:08*
%MOMM*%
%LPD*%
G01*
G04 APERTURE LIST*
%TA.AperFunction,Profile*%
%ADD10C,0.100000*%
%TD*%
%ADD11C,0.150000*%
%ADD12C,0.138000*%
%ADD13C,0.100000*%
G04 APERTURE END LIST*
D10*
X28000000Y-30000000D02*
X248000000Y-30000000D01*
X248000000Y-30000000D02*
X248000000Y-100000000D01*
X248000000Y-100000000D02*
X28000000Y-100000000D01*
X28000000Y-100000000D02*
X28000000Y-30000000D01*
D11*
%TO.C,REF\u002A\u002A*%
X234880952Y-38652380D02*
X234880952Y-37652380D01*
X235214285Y-38366666D01*
X235547619Y-37652380D01*
X235547619Y-38652380D01*
X236166666Y-38652380D02*
X236071428Y-38604761D01*
X236023809Y-38557142D01*
X235976190Y-38461904D01*
X235976190Y-38176190D01*
X236023809Y-38080952D01*
X236071428Y-38033333D01*
X236166666Y-37985714D01*
X236309523Y-37985714D01*
X236404761Y-38033333D01*
X236452380Y-38080952D01*
X236500000Y-38176190D01*
X236500000Y-38461904D01*
X236452380Y-38557142D01*
X236404761Y-38604761D01*
X236309523Y-38652380D01*
X236166666Y-38652380D01*
X237357142Y-37985714D02*
X237357142Y-38652380D01*
X236928571Y-37985714D02*
X236928571Y-38509523D01*
X236976190Y-38604761D01*
X237071428Y-38652380D01*
X237214285Y-38652380D01*
X237309523Y-38604761D01*
X237357142Y-38557142D01*
X237833333Y-37985714D02*
X237833333Y-38652380D01*
X237833333Y-38080952D02*
X237880952Y-38033333D01*
X237976190Y-37985714D01*
X238119047Y-37985714D01*
X238214285Y-38033333D01*
X238261904Y-38128571D01*
X238261904Y-38652380D01*
X238595238Y-37985714D02*
X238976190Y-37985714D01*
X238738095Y-37652380D02*
X238738095Y-38509523D01*
X238785714Y-38604761D01*
X238880952Y-38652380D01*
X238976190Y-38652380D01*
X239309523Y-38652380D02*
X239309523Y-37985714D01*
X239309523Y-37652380D02*
X239261904Y-37700000D01*
X239309523Y-37747619D01*
X239357142Y-37700000D01*
X239309523Y-37652380D01*
X239309523Y-37747619D01*
X239785714Y-37985714D02*
X239785714Y-38652380D01*
X239785714Y-38080952D02*
X239833333Y-38033333D01*
X239928571Y-37985714D01*
X240071428Y-37985714D01*
X240166666Y-38033333D01*
X240214285Y-38128571D01*
X240214285Y-38652380D01*
X241119047Y-37985714D02*
X241119047Y-38795238D01*
X241071428Y-38890476D01*
X241023809Y-38938095D01*
X240928571Y-38985714D01*
X240785714Y-38985714D01*
X240690476Y-38938095D01*
X241119047Y-38604761D02*
X241023809Y-38652380D01*
X240833333Y-38652380D01*
X240738095Y-38604761D01*
X240690476Y-38557142D01*
X240642857Y-38461904D01*
X240642857Y-38176190D01*
X240690476Y-38080952D01*
X240738095Y-38033333D01*
X240833333Y-37985714D01*
X241023809Y-37985714D01*
X241119047Y-38033333D01*
X241595238Y-38652380D02*
X241595238Y-37652380D01*
X241595238Y-38128571D02*
X242166666Y-38128571D01*
X242166666Y-38652380D02*
X242166666Y-37652380D01*
X242785714Y-38652380D02*
X242690476Y-38604761D01*
X242642857Y-38557142D01*
X242595238Y-38461904D01*
X242595238Y-38176190D01*
X242642857Y-38080952D01*
X242690476Y-38033333D01*
X242785714Y-37985714D01*
X242928571Y-37985714D01*
X243023809Y-38033333D01*
X243071428Y-38080952D01*
X243119047Y-38176190D01*
X243119047Y-38461904D01*
X243071428Y-38557142D01*
X243023809Y-38604761D01*
X242928571Y-38652380D01*
X242785714Y-38652380D01*
X243690476Y-38652380D02*
X243595238Y-38604761D01*
X243547619Y-38509523D01*
X243547619Y-37652380D01*
X244452380Y-38604761D02*
X244357142Y-38652380D01*
X244166666Y-38652380D01*
X244071428Y-38604761D01*
X244023809Y-38509523D01*
X244023809Y-38128571D01*
X244071428Y-38033333D01*
X244166666Y-37985714D01*
X244357142Y-37985714D01*
X244452380Y-38033333D01*
X244500000Y-38128571D01*
X244500000Y-38223809D01*
X244023809Y-38319047D01*
X244690476Y-38747619D02*
X245452380Y-38747619D01*
X245595238Y-37652380D02*
X246214285Y-37652380D01*
X245880952Y-38033333D01*
X246023809Y-38033333D01*
X246119047Y-38080952D01*
X246166666Y-38128571D01*
X246214285Y-38223809D01*
X246214285Y-38461904D01*
X246166666Y-38557142D01*
X246119047Y-38604761D01*
X246023809Y-38652380D01*
X245738095Y-38652380D01*
X245642857Y-38604761D01*
X245595238Y-38557142D01*
X246642857Y-38557142D02*
X246690476Y-38604761D01*
X246642857Y-38652380D01*
X246595238Y-38604761D01*
X246642857Y-38557142D01*
X246642857Y-38652380D01*
X247071428Y-37747619D02*
X247119047Y-37700000D01*
X247214285Y-37652380D01*
X247452380Y-37652380D01*
X247547619Y-37700000D01*
X247595238Y-37747619D01*
X247642857Y-37842857D01*
X247642857Y-37938095D01*
X247595238Y-38080952D01*
X247023809Y-38652380D01*
X247642857Y-38652380D01*
X248071428Y-38652380D02*
X248071428Y-37985714D01*
X248071428Y-38080952D02*
X248119047Y-38033333D01*
X248214285Y-37985714D01*
X248357142Y-37985714D01*
X248452380Y-38033333D01*
X248500000Y-38128571D01*
X248500000Y-38652380D01*
X248500000Y-38128571D02*
X248547619Y-38033333D01*
X248642857Y-37985714D01*
X248785714Y-37985714D01*
X248880952Y-38033333D01*
X248928571Y-38128571D01*
X248928571Y-38652380D01*
X249404761Y-38652380D02*
X249404761Y-37985714D01*
X249404761Y-38080952D02*
X249452380Y-38033333D01*
X249547619Y-37985714D01*
X249690476Y-37985714D01*
X249785714Y-38033333D01*
X249833333Y-38128571D01*
X249833333Y-38652380D01*
X249833333Y-38128571D02*
X249880952Y-38033333D01*
X249976190Y-37985714D01*
X250119047Y-37985714D01*
X250214285Y-38033333D01*
X250261904Y-38128571D01*
X250261904Y-38652380D01*
X250500000Y-38747619D02*
X251261904Y-38747619D01*
X251500000Y-38652380D02*
X251500000Y-37652380D01*
X251833333Y-38366666D01*
X252166666Y-37652380D01*
X252166666Y-38652380D01*
X252547619Y-37652380D02*
X253166666Y-37652380D01*
X252833333Y-38033333D01*
X252976190Y-38033333D01*
X253071428Y-38080952D01*
X253119047Y-38128571D01*
X253166666Y-38223809D01*
X253166666Y-38461904D01*
X253119047Y-38557142D01*
X253071428Y-38604761D01*
X252976190Y-38652380D01*
X252690476Y-38652380D01*
X252595238Y-38604761D01*
X252547619Y-38557142D01*
X242666666Y-34452380D02*
X242333333Y-33976190D01*
X242095238Y-34452380D02*
X242095238Y-33452380D01*
X242476190Y-33452380D01*
X242571428Y-33500000D01*
X242619047Y-33547619D01*
X242666666Y-33642857D01*
X242666666Y-33785714D01*
X242619047Y-33880952D01*
X242571428Y-33928571D01*
X242476190Y-33976190D01*
X242095238Y-33976190D01*
X243095238Y-33928571D02*
X243428571Y-33928571D01*
X243571428Y-34452380D02*
X243095238Y-34452380D01*
X243095238Y-33452380D01*
X243571428Y-33452380D01*
X244333333Y-33928571D02*
X244000000Y-33928571D01*
X244000000Y-34452380D02*
X244000000Y-33452380D01*
X244476190Y-33452380D01*
X245000000Y-33452380D02*
X245000000Y-33690476D01*
X244761904Y-33595238D02*
X245000000Y-33690476D01*
X245238095Y-33595238D01*
X244857142Y-33880952D02*
X245000000Y-33690476D01*
X245142857Y-33880952D01*
X245761904Y-33452380D02*
X245761904Y-33690476D01*
X245523809Y-33595238D02*
X245761904Y-33690476D01*
X246000000Y-33595238D01*
X245619047Y-33880952D02*
X245761904Y-33690476D01*
X245904761Y-33880952D01*
X234880952Y-100652380D02*
X234880952Y-99652380D01*
X235214285Y-100366666D01*
X235547619Y-99652380D01*
X235547619Y-100652380D01*
X236166666Y-100652380D02*
X236071428Y-100604761D01*
X236023809Y-100557142D01*
X235976190Y-100461904D01*
X235976190Y-100176190D01*
X236023809Y-100080952D01*
X236071428Y-100033333D01*
X236166666Y-99985714D01*
X236309523Y-99985714D01*
X236404761Y-100033333D01*
X236452380Y-100080952D01*
X236500000Y-100176190D01*
X236500000Y-100461904D01*
X236452380Y-100557142D01*
X236404761Y-100604761D01*
X236309523Y-100652380D01*
X236166666Y-100652380D01*
X237357142Y-99985714D02*
X237357142Y-100652380D01*
X236928571Y-99985714D02*
X236928571Y-100509523D01*
X236976190Y-100604761D01*
X237071428Y-100652380D01*
X237214285Y-100652380D01*
X237309523Y-100604761D01*
X237357142Y-100557142D01*
X237833333Y-99985714D02*
X237833333Y-100652380D01*
X237833333Y-100080952D02*
X237880952Y-100033333D01*
X237976190Y-99985714D01*
X238119047Y-99985714D01*
X238214285Y-100033333D01*
X238261904Y-100128571D01*
X238261904Y-100652380D01*
X238595238Y-99985714D02*
X238976190Y-99985714D01*
X238738095Y-99652380D02*
X238738095Y-100509523D01*
X238785714Y-100604761D01*
X238880952Y-100652380D01*
X238976190Y-100652380D01*
X239309523Y-100652380D02*
X239309523Y-99985714D01*
X239309523Y-99652380D02*
X239261904Y-99700000D01*
X239309523Y-99747619D01*
X239357142Y-99700000D01*
X239309523Y-99652380D01*
X239309523Y-99747619D01*
X239785714Y-99985714D02*
X239785714Y-100652380D01*
X239785714Y-100080952D02*
X239833333Y-100033333D01*
X239928571Y-99985714D01*
X240071428Y-99985714D01*
X240166666Y-100033333D01*
X240214285Y-100128571D01*
X240214285Y-100652380D01*
X241119047Y-99985714D02*
X241119047Y-100795238D01*
X241071428Y-100890476D01*
X241023809Y-100938095D01*
X240928571Y-100985714D01*
X240785714Y-100985714D01*
X240690476Y-100938095D01*
X241119047Y-100604761D02*
X241023809Y-100652380D01*
X240833333Y-100652380D01*
X240738095Y-100604761D01*
X240690476Y-100557142D01*
X240642857Y-100461904D01*
X240642857Y-100176190D01*
X240690476Y-100080952D01*
X240738095Y-100033333D01*
X240833333Y-99985714D01*
X241023809Y-99985714D01*
X241119047Y-100033333D01*
X241595238Y-100652380D02*
X241595238Y-99652380D01*
X241595238Y-100128571D02*
X242166666Y-100128571D01*
X242166666Y-100652380D02*
X242166666Y-99652380D01*
X242785714Y-100652380D02*
X242690476Y-100604761D01*
X242642857Y-100557142D01*
X242595238Y-100461904D01*
X242595238Y-100176190D01*
X242642857Y-100080952D01*
X242690476Y-100033333D01*
X242785714Y-99985714D01*
X242928571Y-99985714D01*
X243023809Y-100033333D01*
X243071428Y-100080952D01*
X243119047Y-100176190D01*
X243119047Y-100461904D01*
X243071428Y-100557142D01*
X243023809Y-100604761D01*
X242928571Y-100652380D01*
X242785714Y-100652380D01*
X243690476Y-100652380D02*
X243595238Y-100604761D01*
X243547619Y-100509523D01*
X243547619Y-99652380D01*
X244452380Y-100604761D02*
X244357142Y-100652380D01*
X244166666Y-100652380D01*
X244071428Y-100604761D01*
X244023809Y-100509523D01*
X244023809Y-100128571D01*
X244071428Y-100033333D01*
X244166666Y-99985714D01*
X244357142Y-99985714D01*
X244452380Y-100033333D01*
X244500000Y-100128571D01*
X244500000Y-100223809D01*
X244023809Y-100319047D01*
X244690476Y-100747619D02*
X245452380Y-100747619D01*
X245595238Y-99652380D02*
X246214285Y-99652380D01*
X245880952Y-100033333D01*
X246023809Y-100033333D01*
X246119047Y-100080952D01*
X246166666Y-100128571D01*
X246214285Y-100223809D01*
X246214285Y-100461904D01*
X246166666Y-100557142D01*
X246119047Y-100604761D01*
X246023809Y-100652380D01*
X245738095Y-100652380D01*
X245642857Y-100604761D01*
X245595238Y-100557142D01*
X246642857Y-100557142D02*
X246690476Y-100604761D01*
X246642857Y-100652380D01*
X246595238Y-100604761D01*
X246642857Y-100557142D01*
X246642857Y-100652380D01*
X247071428Y-99747619D02*
X247119047Y-99700000D01*
X247214285Y-99652380D01*
X247452380Y-99652380D01*
X247547619Y-99700000D01*
X247595238Y-99747619D01*
X247642857Y-99842857D01*
X247642857Y-99938095D01*
X247595238Y-100080952D01*
X247023809Y-100652380D01*
X247642857Y-100652380D01*
X248071428Y-100652380D02*
X248071428Y-99985714D01*
X248071428Y-100080952D02*
X248119047Y-100033333D01*
X248214285Y-99985714D01*
X248357142Y-99985714D01*
X248452380Y-100033333D01*
X248500000Y-100128571D01*
X248500000Y-100652380D01*
X248500000Y-100128571D02*
X248547619Y-100033333D01*
X248642857Y-99985714D01*
X248785714Y-99985714D01*
X248880952Y-100033333D01*
X248928571Y-100128571D01*
X248928571Y-100652380D01*
X249404761Y-100652380D02*
X249404761Y-99985714D01*
X249404761Y-100080952D02*
X249452380Y-100033333D01*
X249547619Y-99985714D01*
X249690476Y-99985714D01*
X249785714Y-100033333D01*
X249833333Y-100128571D01*
X249833333Y-100652380D01*
X249833333Y-100128571D02*
X249880952Y-100033333D01*
X249976190Y-99985714D01*
X250119047Y-99985714D01*
X250214285Y-100033333D01*
X250261904Y-100128571D01*
X250261904Y-100652380D01*
X250500000Y-100747619D02*
X251261904Y-100747619D01*
X251500000Y-100652380D02*
X251500000Y-99652380D01*
X251833333Y-100366666D01*
X252166666Y-99652380D01*
X252166666Y-100652380D01*
X252547619Y-99652380D02*
X253166666Y-99652380D01*
X252833333Y-100033333D01*
X252976190Y-100033333D01*
X253071428Y-100080952D01*
X253119047Y-100128571D01*
X253166666Y-100223809D01*
X253166666Y-100461904D01*
X253119047Y-100557142D01*
X253071428Y-100604761D01*
X252976190Y-100652380D01*
X252690476Y-100652380D01*
X252595238Y-100604761D01*
X252547619Y-100557142D01*
X242666666Y-96452380D02*
X242333333Y-95976190D01*
X242095238Y-96452380D02*
X242095238Y-95452380D01*
X242476190Y-95452380D01*
X242571428Y-95500000D01*
X242619047Y-95547619D01*
X242666666Y-95642857D01*
X242666666Y-95785714D01*
X242619047Y-95880952D01*
X242571428Y-95928571D01*
X242476190Y-95976190D01*
X242095238Y-95976190D01*
X243095238Y-95928571D02*
X243428571Y-95928571D01*
X243571428Y-96452380D02*
X243095238Y-96452380D01*
X243095238Y-95452380D01*
X243571428Y-95452380D01*
X244333333Y-95928571D02*
X244000000Y-95928571D01*
X244000000Y-96452380D02*
X244000000Y-95452380D01*
X244476190Y-95452380D01*
X245000000Y-95452380D02*
X245000000Y-95690476D01*
X244761904Y-95595238D02*
X245000000Y-95690476D01*
X245238095Y-95595238D01*
X244857142Y-95880952D02*
X245000000Y-95690476D01*
X245142857Y-95880952D01*
X245761904Y-95452380D02*
X245761904Y-95690476D01*
X245523809Y-95595238D02*
X245761904Y-95690476D01*
X246000000Y-95595238D01*
X245619047Y-95880952D02*
X245761904Y-95690476D01*
X245904761Y-95880952D01*
X22880952Y-100652380D02*
X22880952Y-99652380D01*
X23214285Y-100366666D01*
X23547619Y-99652380D01*
X23547619Y-100652380D01*
X24166666Y-100652380D02*
X24071428Y-100604761D01*
X24023809Y-100557142D01*
X23976190Y-100461904D01*
X23976190Y-100176190D01*
X24023809Y-100080952D01*
X24071428Y-100033333D01*
X24166666Y-99985714D01*
X24309523Y-99985714D01*
X24404761Y-100033333D01*
X24452380Y-100080952D01*
X24500000Y-100176190D01*
X24500000Y-100461904D01*
X24452380Y-100557142D01*
X24404761Y-100604761D01*
X24309523Y-100652380D01*
X24166666Y-100652380D01*
X25357142Y-99985714D02*
X25357142Y-100652380D01*
X24928571Y-99985714D02*
X24928571Y-100509523D01*
X24976190Y-100604761D01*
X25071428Y-100652380D01*
X25214285Y-100652380D01*
X25309523Y-100604761D01*
X25357142Y-100557142D01*
X25833333Y-99985714D02*
X25833333Y-100652380D01*
X25833333Y-100080952D02*
X25880952Y-100033333D01*
X25976190Y-99985714D01*
X26119047Y-99985714D01*
X26214285Y-100033333D01*
X26261904Y-100128571D01*
X26261904Y-100652380D01*
X26595238Y-99985714D02*
X26976190Y-99985714D01*
X26738095Y-99652380D02*
X26738095Y-100509523D01*
X26785714Y-100604761D01*
X26880952Y-100652380D01*
X26976190Y-100652380D01*
X27309523Y-100652380D02*
X27309523Y-99985714D01*
X27309523Y-99652380D02*
X27261904Y-99700000D01*
X27309523Y-99747619D01*
X27357142Y-99700000D01*
X27309523Y-99652380D01*
X27309523Y-99747619D01*
X27785714Y-99985714D02*
X27785714Y-100652380D01*
X27785714Y-100080952D02*
X27833333Y-100033333D01*
X27928571Y-99985714D01*
X28071428Y-99985714D01*
X28166666Y-100033333D01*
X28214285Y-100128571D01*
X28214285Y-100652380D01*
X29119047Y-99985714D02*
X29119047Y-100795238D01*
X29071428Y-100890476D01*
X29023809Y-100938095D01*
X28928571Y-100985714D01*
X28785714Y-100985714D01*
X28690476Y-100938095D01*
X29119047Y-100604761D02*
X29023809Y-100652380D01*
X28833333Y-100652380D01*
X28738095Y-100604761D01*
X28690476Y-100557142D01*
X28642857Y-100461904D01*
X28642857Y-100176190D01*
X28690476Y-100080952D01*
X28738095Y-100033333D01*
X28833333Y-99985714D01*
X29023809Y-99985714D01*
X29119047Y-100033333D01*
X29595238Y-100652380D02*
X29595238Y-99652380D01*
X29595238Y-100128571D02*
X30166666Y-100128571D01*
X30166666Y-100652380D02*
X30166666Y-99652380D01*
X30785714Y-100652380D02*
X30690476Y-100604761D01*
X30642857Y-100557142D01*
X30595238Y-100461904D01*
X30595238Y-100176190D01*
X30642857Y-100080952D01*
X30690476Y-100033333D01*
X30785714Y-99985714D01*
X30928571Y-99985714D01*
X31023809Y-100033333D01*
X31071428Y-100080952D01*
X31119047Y-100176190D01*
X31119047Y-100461904D01*
X31071428Y-100557142D01*
X31023809Y-100604761D01*
X30928571Y-100652380D01*
X30785714Y-100652380D01*
X31690476Y-100652380D02*
X31595238Y-100604761D01*
X31547619Y-100509523D01*
X31547619Y-99652380D01*
X32452380Y-100604761D02*
X32357142Y-100652380D01*
X32166666Y-100652380D01*
X32071428Y-100604761D01*
X32023809Y-100509523D01*
X32023809Y-100128571D01*
X32071428Y-100033333D01*
X32166666Y-99985714D01*
X32357142Y-99985714D01*
X32452380Y-100033333D01*
X32499999Y-100128571D01*
X32499999Y-100223809D01*
X32023809Y-100319047D01*
X32690476Y-100747619D02*
X33452380Y-100747619D01*
X33595238Y-99652380D02*
X34214285Y-99652380D01*
X33880952Y-100033333D01*
X34023809Y-100033333D01*
X34119047Y-100080952D01*
X34166666Y-100128571D01*
X34214285Y-100223809D01*
X34214285Y-100461904D01*
X34166666Y-100557142D01*
X34119047Y-100604761D01*
X34023809Y-100652380D01*
X33738095Y-100652380D01*
X33642857Y-100604761D01*
X33595238Y-100557142D01*
X34642857Y-100557142D02*
X34690476Y-100604761D01*
X34642857Y-100652380D01*
X34595238Y-100604761D01*
X34642857Y-100557142D01*
X34642857Y-100652380D01*
X35071428Y-99747619D02*
X35119047Y-99700000D01*
X35214285Y-99652380D01*
X35452380Y-99652380D01*
X35547619Y-99700000D01*
X35595238Y-99747619D01*
X35642857Y-99842857D01*
X35642857Y-99938095D01*
X35595238Y-100080952D01*
X35023809Y-100652380D01*
X35642857Y-100652380D01*
X36071428Y-100652380D02*
X36071428Y-99985714D01*
X36071428Y-100080952D02*
X36119047Y-100033333D01*
X36214285Y-99985714D01*
X36357142Y-99985714D01*
X36452380Y-100033333D01*
X36499999Y-100128571D01*
X36499999Y-100652380D01*
X36499999Y-100128571D02*
X36547619Y-100033333D01*
X36642857Y-99985714D01*
X36785714Y-99985714D01*
X36880952Y-100033333D01*
X36928571Y-100128571D01*
X36928571Y-100652380D01*
X37404761Y-100652380D02*
X37404761Y-99985714D01*
X37404761Y-100080952D02*
X37452380Y-100033333D01*
X37547619Y-99985714D01*
X37690476Y-99985714D01*
X37785714Y-100033333D01*
X37833333Y-100128571D01*
X37833333Y-100652380D01*
X37833333Y-100128571D02*
X37880952Y-100033333D01*
X37976190Y-99985714D01*
X38119047Y-99985714D01*
X38214285Y-100033333D01*
X38261904Y-100128571D01*
X38261904Y-100652380D01*
X38499999Y-100747619D02*
X39261904Y-100747619D01*
X39499999Y-100652380D02*
X39499999Y-99652380D01*
X39833333Y-100366666D01*
X40166666Y-99652380D01*
X40166666Y-100652380D01*
X40547619Y-99652380D02*
X41166666Y-99652380D01*
X40833333Y-100033333D01*
X40976190Y-100033333D01*
X41071428Y-100080952D01*
X41119047Y-100128571D01*
X41166666Y-100223809D01*
X41166666Y-100461904D01*
X41119047Y-100557142D01*
X41071428Y-100604761D01*
X40976190Y-100652380D01*
X40690476Y-100652380D01*
X40595238Y-100604761D01*
X40547619Y-100557142D01*
X30666666Y-96452380D02*
X30333333Y-95976190D01*
X30095238Y-96452380D02*
X30095238Y-95452380D01*
X30476190Y-95452380D01*
X30571428Y-95500000D01*
X30619047Y-95547619D01*
X30666666Y-95642857D01*
X30666666Y-95785714D01*
X30619047Y-95880952D01*
X30571428Y-95928571D01*
X30476190Y-95976190D01*
X30095238Y-95976190D01*
X31095238Y-95928571D02*
X31428571Y-95928571D01*
X31571428Y-96452380D02*
X31095238Y-96452380D01*
X31095238Y-95452380D01*
X31571428Y-95452380D01*
X32333333Y-95928571D02*
X32000000Y-95928571D01*
X32000000Y-96452380D02*
X32000000Y-95452380D01*
X32476190Y-95452380D01*
X33000000Y-95452380D02*
X33000000Y-95690476D01*
X32761904Y-95595238D02*
X33000000Y-95690476D01*
X33238095Y-95595238D01*
X32857142Y-95880952D02*
X33000000Y-95690476D01*
X33142857Y-95880952D01*
X33761904Y-95452380D02*
X33761904Y-95690476D01*
X33523809Y-95595238D02*
X33761904Y-95690476D01*
X34000000Y-95595238D01*
X33619047Y-95880952D02*
X33761904Y-95690476D01*
X33904761Y-95880952D01*
X22880952Y-38652380D02*
X22880952Y-37652380D01*
X23214285Y-38366666D01*
X23547619Y-37652380D01*
X23547619Y-38652380D01*
X24166666Y-38652380D02*
X24071428Y-38604761D01*
X24023809Y-38557142D01*
X23976190Y-38461904D01*
X23976190Y-38176190D01*
X24023809Y-38080952D01*
X24071428Y-38033333D01*
X24166666Y-37985714D01*
X24309523Y-37985714D01*
X24404761Y-38033333D01*
X24452380Y-38080952D01*
X24500000Y-38176190D01*
X24500000Y-38461904D01*
X24452380Y-38557142D01*
X24404761Y-38604761D01*
X24309523Y-38652380D01*
X24166666Y-38652380D01*
X25357142Y-37985714D02*
X25357142Y-38652380D01*
X24928571Y-37985714D02*
X24928571Y-38509523D01*
X24976190Y-38604761D01*
X25071428Y-38652380D01*
X25214285Y-38652380D01*
X25309523Y-38604761D01*
X25357142Y-38557142D01*
X25833333Y-37985714D02*
X25833333Y-38652380D01*
X25833333Y-38080952D02*
X25880952Y-38033333D01*
X25976190Y-37985714D01*
X26119047Y-37985714D01*
X26214285Y-38033333D01*
X26261904Y-38128571D01*
X26261904Y-38652380D01*
X26595238Y-37985714D02*
X26976190Y-37985714D01*
X26738095Y-37652380D02*
X26738095Y-38509523D01*
X26785714Y-38604761D01*
X26880952Y-38652380D01*
X26976190Y-38652380D01*
X27309523Y-38652380D02*
X27309523Y-37985714D01*
X27309523Y-37652380D02*
X27261904Y-37700000D01*
X27309523Y-37747619D01*
X27357142Y-37700000D01*
X27309523Y-37652380D01*
X27309523Y-37747619D01*
X27785714Y-37985714D02*
X27785714Y-38652380D01*
X27785714Y-38080952D02*
X27833333Y-38033333D01*
X27928571Y-37985714D01*
X28071428Y-37985714D01*
X28166666Y-38033333D01*
X28214285Y-38128571D01*
X28214285Y-38652380D01*
X29119047Y-37985714D02*
X29119047Y-38795238D01*
X29071428Y-38890476D01*
X29023809Y-38938095D01*
X28928571Y-38985714D01*
X28785714Y-38985714D01*
X28690476Y-38938095D01*
X29119047Y-38604761D02*
X29023809Y-38652380D01*
X28833333Y-38652380D01*
X28738095Y-38604761D01*
X28690476Y-38557142D01*
X28642857Y-38461904D01*
X28642857Y-38176190D01*
X28690476Y-38080952D01*
X28738095Y-38033333D01*
X28833333Y-37985714D01*
X29023809Y-37985714D01*
X29119047Y-38033333D01*
X29595238Y-38652380D02*
X29595238Y-37652380D01*
X29595238Y-38128571D02*
X30166666Y-38128571D01*
X30166666Y-38652380D02*
X30166666Y-37652380D01*
X30785714Y-38652380D02*
X30690476Y-38604761D01*
X30642857Y-38557142D01*
X30595238Y-38461904D01*
X30595238Y-38176190D01*
X30642857Y-38080952D01*
X30690476Y-38033333D01*
X30785714Y-37985714D01*
X30928571Y-37985714D01*
X31023809Y-38033333D01*
X31071428Y-38080952D01*
X31119047Y-38176190D01*
X31119047Y-38461904D01*
X31071428Y-38557142D01*
X31023809Y-38604761D01*
X30928571Y-38652380D01*
X30785714Y-38652380D01*
X31690476Y-38652380D02*
X31595238Y-38604761D01*
X31547619Y-38509523D01*
X31547619Y-37652380D01*
X32452380Y-38604761D02*
X32357142Y-38652380D01*
X32166666Y-38652380D01*
X32071428Y-38604761D01*
X32023809Y-38509523D01*
X32023809Y-38128571D01*
X32071428Y-38033333D01*
X32166666Y-37985714D01*
X32357142Y-37985714D01*
X32452380Y-38033333D01*
X32499999Y-38128571D01*
X32499999Y-38223809D01*
X32023809Y-38319047D01*
X32690476Y-38747619D02*
X33452380Y-38747619D01*
X33595238Y-37652380D02*
X34214285Y-37652380D01*
X33880952Y-38033333D01*
X34023809Y-38033333D01*
X34119047Y-38080952D01*
X34166666Y-38128571D01*
X34214285Y-38223809D01*
X34214285Y-38461904D01*
X34166666Y-38557142D01*
X34119047Y-38604761D01*
X34023809Y-38652380D01*
X33738095Y-38652380D01*
X33642857Y-38604761D01*
X33595238Y-38557142D01*
X34642857Y-38557142D02*
X34690476Y-38604761D01*
X34642857Y-38652380D01*
X34595238Y-38604761D01*
X34642857Y-38557142D01*
X34642857Y-38652380D01*
X35071428Y-37747619D02*
X35119047Y-37700000D01*
X35214285Y-37652380D01*
X35452380Y-37652380D01*
X35547619Y-37700000D01*
X35595238Y-37747619D01*
X35642857Y-37842857D01*
X35642857Y-37938095D01*
X35595238Y-38080952D01*
X35023809Y-38652380D01*
X35642857Y-38652380D01*
X36071428Y-38652380D02*
X36071428Y-37985714D01*
X36071428Y-38080952D02*
X36119047Y-38033333D01*
X36214285Y-37985714D01*
X36357142Y-37985714D01*
X36452380Y-38033333D01*
X36499999Y-38128571D01*
X36499999Y-38652380D01*
X36499999Y-38128571D02*
X36547619Y-38033333D01*
X36642857Y-37985714D01*
X36785714Y-37985714D01*
X36880952Y-38033333D01*
X36928571Y-38128571D01*
X36928571Y-38652380D01*
X37404761Y-38652380D02*
X37404761Y-37985714D01*
X37404761Y-38080952D02*
X37452380Y-38033333D01*
X37547619Y-37985714D01*
X37690476Y-37985714D01*
X37785714Y-38033333D01*
X37833333Y-38128571D01*
X37833333Y-38652380D01*
X37833333Y-38128571D02*
X37880952Y-38033333D01*
X37976190Y-37985714D01*
X38119047Y-37985714D01*
X38214285Y-38033333D01*
X38261904Y-38128571D01*
X38261904Y-38652380D01*
X38499999Y-38747619D02*
X39261904Y-38747619D01*
X39499999Y-38652380D02*
X39499999Y-37652380D01*
X39833333Y-38366666D01*
X40166666Y-37652380D01*
X40166666Y-38652380D01*
X40547619Y-37652380D02*
X41166666Y-37652380D01*
X40833333Y-38033333D01*
X40976190Y-38033333D01*
X41071428Y-38080952D01*
X41119047Y-38128571D01*
X41166666Y-38223809D01*
X41166666Y-38461904D01*
X41119047Y-38557142D01*
X41071428Y-38604761D01*
X40976190Y-38652380D01*
X40690476Y-38652380D01*
X40595238Y-38604761D01*
X40547619Y-38557142D01*
X30666666Y-34452380D02*
X30333333Y-33976190D01*
X30095238Y-34452380D02*
X30095238Y-33452380D01*
X30476190Y-33452380D01*
X30571428Y-33500000D01*
X30619047Y-33547619D01*
X30666666Y-33642857D01*
X30666666Y-33785714D01*
X30619047Y-33880952D01*
X30571428Y-33928571D01*
X30476190Y-33976190D01*
X30095238Y-33976190D01*
X31095238Y-33928571D02*
X31428571Y-33928571D01*
X31571428Y-34452380D02*
X31095238Y-34452380D01*
X31095238Y-33452380D01*
X31571428Y-33452380D01*
X32333333Y-33928571D02*
X32000000Y-33928571D01*
X32000000Y-34452380D02*
X32000000Y-33452380D01*
X32476190Y-33452380D01*
X33000000Y-33452380D02*
X33000000Y-33690476D01*
X32761904Y-33595238D02*
X33000000Y-33690476D01*
X33238095Y-33595238D01*
X32857142Y-33880952D02*
X33000000Y-33690476D01*
X33142857Y-33880952D01*
X33761904Y-33452380D02*
X33761904Y-33690476D01*
X33523809Y-33595238D02*
X33761904Y-33690476D01*
X34000000Y-33595238D01*
X33619047Y-33880952D02*
X33761904Y-33690476D01*
X33904761Y-33880952D01*
%TO.C,C2*%
X110607142Y-41202380D02*
X110702380Y-41202380D01*
X110797619Y-41250000D01*
X110845238Y-41297619D01*
X110892857Y-41392857D01*
X110940476Y-41583333D01*
X110940476Y-41821428D01*
X110892857Y-42011904D01*
X110845238Y-42107142D01*
X110797619Y-42154761D01*
X110702380Y-42202380D01*
X110607142Y-42202380D01*
X110511904Y-42154761D01*
X110464285Y-42107142D01*
X110416666Y-42011904D01*
X110369047Y-41821428D01*
X110369047Y-41583333D01*
X110416666Y-41392857D01*
X110464285Y-41297619D01*
X110511904Y-41250000D01*
X110607142Y-41202380D01*
X111369047Y-42107142D02*
X111416666Y-42154761D01*
X111369047Y-42202380D01*
X111321428Y-42154761D01*
X111369047Y-42107142D01*
X111369047Y-42202380D01*
X112369047Y-42202380D02*
X111797619Y-42202380D01*
X112083333Y-42202380D02*
X112083333Y-41202380D01*
X111988095Y-41345238D01*
X111892857Y-41440476D01*
X111797619Y-41488095D01*
X113226190Y-41535714D02*
X113226190Y-42202380D01*
X112797619Y-41535714D02*
X112797619Y-42059523D01*
X112845238Y-42154761D01*
X112940476Y-42202380D01*
X113083333Y-42202380D01*
X113178571Y-42154761D01*
X113226190Y-42107142D01*
X114035714Y-41678571D02*
X113702380Y-41678571D01*
X113702380Y-42202380D02*
X113702380Y-41202380D01*
X114178571Y-41202380D01*
D12*
X112096666Y-39328571D02*
X112052857Y-39372380D01*
X111921428Y-39416190D01*
X111833809Y-39416190D01*
X111702380Y-39372380D01*
X111614761Y-39284761D01*
X111570952Y-39197142D01*
X111527142Y-39021904D01*
X111527142Y-38890476D01*
X111570952Y-38715238D01*
X111614761Y-38627619D01*
X111702380Y-38540000D01*
X111833809Y-38496190D01*
X111921428Y-38496190D01*
X112052857Y-38540000D01*
X112096666Y-38583809D01*
X112447142Y-38583809D02*
X112490952Y-38540000D01*
X112578571Y-38496190D01*
X112797619Y-38496190D01*
X112885238Y-38540000D01*
X112929047Y-38583809D01*
X112972857Y-38671428D01*
X112972857Y-38759047D01*
X112929047Y-38890476D01*
X112403333Y-39416190D01*
X112972857Y-39416190D01*
D11*
%TO.C,C1*%
X57607142Y-41202380D02*
X57702380Y-41202380D01*
X57797619Y-41250000D01*
X57845238Y-41297619D01*
X57892857Y-41392857D01*
X57940476Y-41583333D01*
X57940476Y-41821428D01*
X57892857Y-42011904D01*
X57845238Y-42107142D01*
X57797619Y-42154761D01*
X57702380Y-42202380D01*
X57607142Y-42202380D01*
X57511904Y-42154761D01*
X57464285Y-42107142D01*
X57416666Y-42011904D01*
X57369047Y-41821428D01*
X57369047Y-41583333D01*
X57416666Y-41392857D01*
X57464285Y-41297619D01*
X57511904Y-41250000D01*
X57607142Y-41202380D01*
X58369047Y-42107142D02*
X58416666Y-42154761D01*
X58369047Y-42202380D01*
X58321428Y-42154761D01*
X58369047Y-42107142D01*
X58369047Y-42202380D01*
X59369047Y-42202380D02*
X58797619Y-42202380D01*
X59083333Y-42202380D02*
X59083333Y-41202380D01*
X58988095Y-41345238D01*
X58892857Y-41440476D01*
X58797619Y-41488095D01*
X60226190Y-41535714D02*
X60226190Y-42202380D01*
X59797619Y-41535714D02*
X59797619Y-42059523D01*
X59845238Y-42154761D01*
X59940476Y-42202380D01*
X60083333Y-42202380D01*
X60178571Y-42154761D01*
X60226190Y-42107142D01*
X61035714Y-41678571D02*
X60702380Y-41678571D01*
X60702380Y-42202380D02*
X60702380Y-41202380D01*
X61178571Y-41202380D01*
D12*
X59096666Y-39328571D02*
X59052857Y-39372380D01*
X58921428Y-39416190D01*
X58833809Y-39416190D01*
X58702380Y-39372380D01*
X58614761Y-39284761D01*
X58570952Y-39197142D01*
X58527142Y-39021904D01*
X58527142Y-38890476D01*
X58570952Y-38715238D01*
X58614761Y-38627619D01*
X58702380Y-38540000D01*
X58833809Y-38496190D01*
X58921428Y-38496190D01*
X59052857Y-38540000D01*
X59096666Y-38583809D01*
X59972857Y-39416190D02*
X59447142Y-39416190D01*
X59710000Y-39416190D02*
X59710000Y-38496190D01*
X59622380Y-38627619D01*
X59534761Y-38715238D01*
X59447142Y-38759047D01*
D11*
%TO.C,J5*%
X128282142Y-59380952D02*
X128329761Y-59428571D01*
X128377380Y-59571428D01*
X128377380Y-59666666D01*
X128329761Y-59809523D01*
X128234523Y-59904761D01*
X128139285Y-59952380D01*
X127948809Y-60000000D01*
X127805952Y-60000000D01*
X127615476Y-59952380D01*
X127520238Y-59904761D01*
X127425000Y-59809523D01*
X127377380Y-59666666D01*
X127377380Y-59571428D01*
X127425000Y-59428571D01*
X127472619Y-59380952D01*
X128377380Y-58809523D02*
X128329761Y-58904761D01*
X128282142Y-58952380D01*
X128186904Y-59000000D01*
X127901190Y-59000000D01*
X127805952Y-58952380D01*
X127758333Y-58904761D01*
X127710714Y-58809523D01*
X127710714Y-58666666D01*
X127758333Y-58571428D01*
X127805952Y-58523809D01*
X127901190Y-58476190D01*
X128186904Y-58476190D01*
X128282142Y-58523809D01*
X128329761Y-58571428D01*
X128377380Y-58666666D01*
X128377380Y-58809523D01*
X127710714Y-58047619D02*
X128377380Y-58047619D01*
X127805952Y-58047619D02*
X127758333Y-58000000D01*
X127710714Y-57904761D01*
X127710714Y-57761904D01*
X127758333Y-57666666D01*
X127853571Y-57619047D01*
X128377380Y-57619047D01*
X127710714Y-57142857D02*
X128377380Y-57142857D01*
X127805952Y-57142857D02*
X127758333Y-57095238D01*
X127710714Y-57000000D01*
X127710714Y-56857142D01*
X127758333Y-56761904D01*
X127853571Y-56714285D01*
X128377380Y-56714285D01*
X128472619Y-56476190D02*
X128472619Y-55714285D01*
X127472619Y-55523809D02*
X127425000Y-55476190D01*
X127377380Y-55380952D01*
X127377380Y-55142857D01*
X127425000Y-55047619D01*
X127472619Y-55000000D01*
X127567857Y-54952380D01*
X127663095Y-54952380D01*
X127805952Y-55000000D01*
X128377380Y-55571428D01*
X128377380Y-54952380D01*
X127472619Y-54571428D02*
X127425000Y-54523809D01*
X127377380Y-54428571D01*
X127377380Y-54190476D01*
X127425000Y-54095238D01*
X127472619Y-54047619D01*
X127567857Y-54000000D01*
X127663095Y-54000000D01*
X127805952Y-54047619D01*
X128377380Y-54619047D01*
X128377380Y-54000000D01*
X129277380Y-57333333D02*
X129991666Y-57333333D01*
X130134523Y-57380952D01*
X130229761Y-57476190D01*
X130277380Y-57619047D01*
X130277380Y-57714285D01*
X129277380Y-56380952D02*
X129277380Y-56857142D01*
X129753571Y-56904761D01*
X129705952Y-56857142D01*
X129658333Y-56761904D01*
X129658333Y-56523809D01*
X129705952Y-56428571D01*
X129753571Y-56380952D01*
X129848809Y-56333333D01*
X130086904Y-56333333D01*
X130182142Y-56380952D01*
X130229761Y-56428571D01*
X130277380Y-56523809D01*
X130277380Y-56761904D01*
X130229761Y-56857142D01*
X130182142Y-56904761D01*
%TO.C,J3*%
X75782142Y-59380952D02*
X75829761Y-59428571D01*
X75877380Y-59571428D01*
X75877380Y-59666666D01*
X75829761Y-59809523D01*
X75734523Y-59904761D01*
X75639285Y-59952380D01*
X75448809Y-60000000D01*
X75305952Y-60000000D01*
X75115476Y-59952380D01*
X75020238Y-59904761D01*
X74925000Y-59809523D01*
X74877380Y-59666666D01*
X74877380Y-59571428D01*
X74925000Y-59428571D01*
X74972619Y-59380952D01*
X75877380Y-58809523D02*
X75829761Y-58904761D01*
X75782142Y-58952380D01*
X75686904Y-59000000D01*
X75401190Y-59000000D01*
X75305952Y-58952380D01*
X75258333Y-58904761D01*
X75210714Y-58809523D01*
X75210714Y-58666666D01*
X75258333Y-58571428D01*
X75305952Y-58523809D01*
X75401190Y-58476190D01*
X75686904Y-58476190D01*
X75782142Y-58523809D01*
X75829761Y-58571428D01*
X75877380Y-58666666D01*
X75877380Y-58809523D01*
X75210714Y-58047619D02*
X75877380Y-58047619D01*
X75305952Y-58047619D02*
X75258333Y-58000000D01*
X75210714Y-57904761D01*
X75210714Y-57761904D01*
X75258333Y-57666666D01*
X75353571Y-57619047D01*
X75877380Y-57619047D01*
X75210714Y-57142857D02*
X75877380Y-57142857D01*
X75305952Y-57142857D02*
X75258333Y-57095238D01*
X75210714Y-57000000D01*
X75210714Y-56857142D01*
X75258333Y-56761904D01*
X75353571Y-56714285D01*
X75877380Y-56714285D01*
X75972619Y-56476190D02*
X75972619Y-55714285D01*
X75877380Y-54952380D02*
X75877380Y-55523809D01*
X75877380Y-55238095D02*
X74877380Y-55238095D01*
X75020238Y-55333333D01*
X75115476Y-55428571D01*
X75163095Y-55523809D01*
X74972619Y-54571428D02*
X74925000Y-54523809D01*
X74877380Y-54428571D01*
X74877380Y-54190476D01*
X74925000Y-54095238D01*
X74972619Y-54047619D01*
X75067857Y-54000000D01*
X75163095Y-54000000D01*
X75305952Y-54047619D01*
X75877380Y-54619047D01*
X75877380Y-54000000D01*
X76777380Y-57333333D02*
X77491666Y-57333333D01*
X77634523Y-57380952D01*
X77729761Y-57476190D01*
X77777380Y-57619047D01*
X77777380Y-57714285D01*
X76777380Y-56952380D02*
X76777380Y-56333333D01*
X77158333Y-56666666D01*
X77158333Y-56523809D01*
X77205952Y-56428571D01*
X77253571Y-56380952D01*
X77348809Y-56333333D01*
X77586904Y-56333333D01*
X77682142Y-56380952D01*
X77729761Y-56428571D01*
X77777380Y-56523809D01*
X77777380Y-56809523D01*
X77729761Y-56904761D01*
X77682142Y-56952380D01*
%TO.C,J6*%
X151957142Y-59380952D02*
X152004761Y-59428571D01*
X152052380Y-59571428D01*
X152052380Y-59666666D01*
X152004761Y-59809523D01*
X151909523Y-59904761D01*
X151814285Y-59952380D01*
X151623809Y-60000000D01*
X151480952Y-60000000D01*
X151290476Y-59952380D01*
X151195238Y-59904761D01*
X151100000Y-59809523D01*
X151052380Y-59666666D01*
X151052380Y-59571428D01*
X151100000Y-59428571D01*
X151147619Y-59380952D01*
X152052380Y-58809523D02*
X152004761Y-58904761D01*
X151957142Y-58952380D01*
X151861904Y-59000000D01*
X151576190Y-59000000D01*
X151480952Y-58952380D01*
X151433333Y-58904761D01*
X151385714Y-58809523D01*
X151385714Y-58666666D01*
X151433333Y-58571428D01*
X151480952Y-58523809D01*
X151576190Y-58476190D01*
X151861904Y-58476190D01*
X151957142Y-58523809D01*
X152004761Y-58571428D01*
X152052380Y-58666666D01*
X152052380Y-58809523D01*
X151385714Y-58047619D02*
X152052380Y-58047619D01*
X151480952Y-58047619D02*
X151433333Y-58000000D01*
X151385714Y-57904761D01*
X151385714Y-57761904D01*
X151433333Y-57666666D01*
X151528571Y-57619047D01*
X152052380Y-57619047D01*
X151385714Y-57142857D02*
X152052380Y-57142857D01*
X151480952Y-57142857D02*
X151433333Y-57095238D01*
X151385714Y-57000000D01*
X151385714Y-56857142D01*
X151433333Y-56761904D01*
X151528571Y-56714285D01*
X152052380Y-56714285D01*
X152147619Y-56476190D02*
X152147619Y-55714285D01*
X151052380Y-55571428D02*
X151052380Y-54952380D01*
X151433333Y-55285714D01*
X151433333Y-55142857D01*
X151480952Y-55047619D01*
X151528571Y-55000000D01*
X151623809Y-54952380D01*
X151861904Y-54952380D01*
X151957142Y-55000000D01*
X152004761Y-55047619D01*
X152052380Y-55142857D01*
X152052380Y-55428571D01*
X152004761Y-55523809D01*
X151957142Y-55571428D01*
X152052380Y-54000000D02*
X152052380Y-54571428D01*
X152052380Y-54285714D02*
X151052380Y-54285714D01*
X151195238Y-54380952D01*
X151290476Y-54476190D01*
X151338095Y-54571428D01*
X149152380Y-57333333D02*
X149866666Y-57333333D01*
X150009523Y-57380952D01*
X150104761Y-57476190D01*
X150152380Y-57619047D01*
X150152380Y-57714285D01*
X149152380Y-56428571D02*
X149152380Y-56619047D01*
X149200000Y-56714285D01*
X149247619Y-56761904D01*
X149390476Y-56857142D01*
X149580952Y-56904761D01*
X149961904Y-56904761D01*
X150057142Y-56857142D01*
X150104761Y-56809523D01*
X150152380Y-56714285D01*
X150152380Y-56523809D01*
X150104761Y-56428571D01*
X150057142Y-56380952D01*
X149961904Y-56333333D01*
X149723809Y-56333333D01*
X149628571Y-56380952D01*
X149580952Y-56428571D01*
X149533333Y-56523809D01*
X149533333Y-56714285D01*
X149580952Y-56809523D01*
X149628571Y-56857142D01*
X149723809Y-56904761D01*
%TO.C,U3*%
X162352142Y-73652142D02*
X162304523Y-73699761D01*
X162161666Y-73747380D01*
X162066428Y-73747380D01*
X161923571Y-73699761D01*
X161828333Y-73604523D01*
X161780714Y-73509285D01*
X161733095Y-73318809D01*
X161733095Y-73175952D01*
X161780714Y-72985476D01*
X161828333Y-72890238D01*
X161923571Y-72795000D01*
X162066428Y-72747380D01*
X162161666Y-72747380D01*
X162304523Y-72795000D01*
X162352142Y-72842619D01*
X162780714Y-73747380D02*
X162780714Y-72747380D01*
X163018809Y-72747380D01*
X163161666Y-72795000D01*
X163256904Y-72890238D01*
X163304523Y-72985476D01*
X163352142Y-73175952D01*
X163352142Y-73318809D01*
X163304523Y-73509285D01*
X163256904Y-73604523D01*
X163161666Y-73699761D01*
X163018809Y-73747380D01*
X162780714Y-73747380D01*
X163685476Y-72747380D02*
X164352142Y-72747380D01*
X163923571Y-73747380D01*
X165161666Y-73080714D02*
X165161666Y-73747380D01*
X164923571Y-72699761D02*
X164685476Y-73414047D01*
X165304523Y-73414047D01*
X165685476Y-73747380D02*
X165685476Y-72747380D01*
X165685476Y-73223571D02*
X166256904Y-73223571D01*
X166256904Y-73747380D02*
X166256904Y-72747380D01*
X167304523Y-73652142D02*
X167256904Y-73699761D01*
X167114047Y-73747380D01*
X167018809Y-73747380D01*
X166875952Y-73699761D01*
X166780714Y-73604523D01*
X166733095Y-73509285D01*
X166685476Y-73318809D01*
X166685476Y-73175952D01*
X166733095Y-72985476D01*
X166780714Y-72890238D01*
X166875952Y-72795000D01*
X167018809Y-72747380D01*
X167114047Y-72747380D01*
X167256904Y-72795000D01*
X167304523Y-72842619D01*
X168161666Y-73080714D02*
X168161666Y-73747380D01*
X167923571Y-72699761D02*
X167685476Y-73414047D01*
X168304523Y-73414047D01*
X168875952Y-72747380D02*
X168971190Y-72747380D01*
X169066428Y-72795000D01*
X169114047Y-72842619D01*
X169161666Y-72937857D01*
X169209285Y-73128333D01*
X169209285Y-73366428D01*
X169161666Y-73556904D01*
X169114047Y-73652142D01*
X169066428Y-73699761D01*
X168971190Y-73747380D01*
X168875952Y-73747380D01*
X168780714Y-73699761D01*
X168733095Y-73652142D01*
X168685476Y-73556904D01*
X168637857Y-73366428D01*
X168637857Y-73128333D01*
X168685476Y-72937857D01*
X168733095Y-72842619D01*
X168780714Y-72795000D01*
X168875952Y-72747380D01*
X170066428Y-72747380D02*
X169875952Y-72747380D01*
X169780714Y-72795000D01*
X169733095Y-72842619D01*
X169637857Y-72985476D01*
X169590238Y-73175952D01*
X169590238Y-73556904D01*
X169637857Y-73652142D01*
X169685476Y-73699761D01*
X169780714Y-73747380D01*
X169971190Y-73747380D01*
X170066428Y-73699761D01*
X170114047Y-73652142D01*
X170161666Y-73556904D01*
X170161666Y-73318809D01*
X170114047Y-73223571D01*
X170066428Y-73175952D01*
X169971190Y-73128333D01*
X169780714Y-73128333D01*
X169685476Y-73175952D01*
X169637857Y-73223571D01*
X169590238Y-73318809D01*
X170495000Y-72747380D02*
X171161666Y-72747380D01*
X170733095Y-73747380D01*
X171542619Y-73747380D02*
X171542619Y-72747380D01*
X171875952Y-73461666D01*
X172209285Y-72747380D01*
X172209285Y-73747380D01*
X166233095Y-56447380D02*
X166233095Y-57256904D01*
X166280714Y-57352142D01*
X166328333Y-57399761D01*
X166423571Y-57447380D01*
X166614047Y-57447380D01*
X166709285Y-57399761D01*
X166756904Y-57352142D01*
X166804523Y-57256904D01*
X166804523Y-56447380D01*
X167185476Y-56447380D02*
X167804523Y-56447380D01*
X167471190Y-56828333D01*
X167614047Y-56828333D01*
X167709285Y-56875952D01*
X167756904Y-56923571D01*
X167804523Y-57018809D01*
X167804523Y-57256904D01*
X167756904Y-57352142D01*
X167709285Y-57399761D01*
X167614047Y-57447380D01*
X167328333Y-57447380D01*
X167233095Y-57399761D01*
X167185476Y-57352142D01*
%TO.C,J4*%
X96957142Y-59380952D02*
X97004761Y-59428571D01*
X97052380Y-59571428D01*
X97052380Y-59666666D01*
X97004761Y-59809523D01*
X96909523Y-59904761D01*
X96814285Y-59952380D01*
X96623809Y-60000000D01*
X96480952Y-60000000D01*
X96290476Y-59952380D01*
X96195238Y-59904761D01*
X96100000Y-59809523D01*
X96052380Y-59666666D01*
X96052380Y-59571428D01*
X96100000Y-59428571D01*
X96147619Y-59380952D01*
X97052380Y-58809523D02*
X97004761Y-58904761D01*
X96957142Y-58952380D01*
X96861904Y-59000000D01*
X96576190Y-59000000D01*
X96480952Y-58952380D01*
X96433333Y-58904761D01*
X96385714Y-58809523D01*
X96385714Y-58666666D01*
X96433333Y-58571428D01*
X96480952Y-58523809D01*
X96576190Y-58476190D01*
X96861904Y-58476190D01*
X96957142Y-58523809D01*
X97004761Y-58571428D01*
X97052380Y-58666666D01*
X97052380Y-58809523D01*
X96385714Y-58047619D02*
X97052380Y-58047619D01*
X96480952Y-58047619D02*
X96433333Y-58000000D01*
X96385714Y-57904761D01*
X96385714Y-57761904D01*
X96433333Y-57666666D01*
X96528571Y-57619047D01*
X97052380Y-57619047D01*
X96385714Y-57142857D02*
X97052380Y-57142857D01*
X96480952Y-57142857D02*
X96433333Y-57095238D01*
X96385714Y-57000000D01*
X96385714Y-56857142D01*
X96433333Y-56761904D01*
X96528571Y-56714285D01*
X97052380Y-56714285D01*
X97147619Y-56476190D02*
X97147619Y-55714285D01*
X96147619Y-55523809D02*
X96100000Y-55476190D01*
X96052380Y-55380952D01*
X96052380Y-55142857D01*
X96100000Y-55047619D01*
X96147619Y-55000000D01*
X96242857Y-54952380D01*
X96338095Y-54952380D01*
X96480952Y-55000000D01*
X97052380Y-55571428D01*
X97052380Y-54952380D01*
X97052380Y-54000000D02*
X97052380Y-54571428D01*
X97052380Y-54285714D02*
X96052380Y-54285714D01*
X96195238Y-54380952D01*
X96290476Y-54476190D01*
X96338095Y-54571428D01*
X94152380Y-57333333D02*
X94866666Y-57333333D01*
X95009523Y-57380952D01*
X95104761Y-57476190D01*
X95152380Y-57619047D01*
X95152380Y-57714285D01*
X94485714Y-56428571D02*
X95152380Y-56428571D01*
X94104761Y-56666666D02*
X94819047Y-56904761D01*
X94819047Y-56285714D01*
%TO.C,J1*%
X68587142Y-95808333D02*
X68634761Y-95855952D01*
X68682380Y-95998809D01*
X68682380Y-96094047D01*
X68634761Y-96236904D01*
X68539523Y-96332142D01*
X68444285Y-96379761D01*
X68253809Y-96427380D01*
X68110952Y-96427380D01*
X67920476Y-96379761D01*
X67825238Y-96332142D01*
X67730000Y-96236904D01*
X67682380Y-96094047D01*
X67682380Y-95998809D01*
X67730000Y-95855952D01*
X67777619Y-95808333D01*
X68682380Y-95236904D02*
X68634761Y-95332142D01*
X68587142Y-95379761D01*
X68491904Y-95427380D01*
X68206190Y-95427380D01*
X68110952Y-95379761D01*
X68063333Y-95332142D01*
X68015714Y-95236904D01*
X68015714Y-95094047D01*
X68063333Y-94998809D01*
X68110952Y-94951190D01*
X68206190Y-94903571D01*
X68491904Y-94903571D01*
X68587142Y-94951190D01*
X68634761Y-94998809D01*
X68682380Y-95094047D01*
X68682380Y-95236904D01*
X68015714Y-94475000D02*
X68682380Y-94475000D01*
X68110952Y-94475000D02*
X68063333Y-94427380D01*
X68015714Y-94332142D01*
X68015714Y-94189285D01*
X68063333Y-94094047D01*
X68158571Y-94046428D01*
X68682380Y-94046428D01*
X68015714Y-93570238D02*
X68682380Y-93570238D01*
X68110952Y-93570238D02*
X68063333Y-93522619D01*
X68015714Y-93427380D01*
X68015714Y-93284523D01*
X68063333Y-93189285D01*
X68158571Y-93141666D01*
X68682380Y-93141666D01*
X68777619Y-92903571D02*
X68777619Y-92141666D01*
X68634761Y-91951190D02*
X68682380Y-91855952D01*
X68682380Y-91665476D01*
X68634761Y-91570238D01*
X68539523Y-91522619D01*
X68491904Y-91522619D01*
X68396666Y-91570238D01*
X68349047Y-91665476D01*
X68349047Y-91808333D01*
X68301428Y-91903571D01*
X68206190Y-91951190D01*
X68158571Y-91951190D01*
X68063333Y-91903571D01*
X68015714Y-91808333D01*
X68015714Y-91665476D01*
X68063333Y-91570238D01*
X68682380Y-90951190D02*
X68634761Y-91046428D01*
X68587142Y-91094047D01*
X68491904Y-91141666D01*
X68206190Y-91141666D01*
X68110952Y-91094047D01*
X68063333Y-91046428D01*
X68015714Y-90951190D01*
X68015714Y-90808333D01*
X68063333Y-90713095D01*
X68110952Y-90665476D01*
X68206190Y-90617857D01*
X68491904Y-90617857D01*
X68587142Y-90665476D01*
X68634761Y-90713095D01*
X68682380Y-90808333D01*
X68682380Y-90951190D01*
X68634761Y-89760714D02*
X68682380Y-89855952D01*
X68682380Y-90046428D01*
X68634761Y-90141666D01*
X68587142Y-90189285D01*
X68491904Y-90236904D01*
X68206190Y-90236904D01*
X68110952Y-90189285D01*
X68063333Y-90141666D01*
X68015714Y-90046428D01*
X68015714Y-89855952D01*
X68063333Y-89760714D01*
X68682380Y-89332142D02*
X67682380Y-89332142D01*
X68301428Y-89236904D02*
X68682380Y-88951190D01*
X68015714Y-88951190D02*
X68396666Y-89332142D01*
X68634761Y-88141666D02*
X68682380Y-88236904D01*
X68682380Y-88427380D01*
X68634761Y-88522619D01*
X68539523Y-88570238D01*
X68158571Y-88570238D01*
X68063333Y-88522619D01*
X68015714Y-88427380D01*
X68015714Y-88236904D01*
X68063333Y-88141666D01*
X68158571Y-88094047D01*
X68253809Y-88094047D01*
X68349047Y-88570238D01*
X68015714Y-87808333D02*
X68015714Y-87427380D01*
X67682380Y-87665476D02*
X68539523Y-87665476D01*
X68634761Y-87617857D01*
X68682380Y-87522619D01*
X68682380Y-87427380D01*
X53696666Y-91427380D02*
X53696666Y-92141666D01*
X53649047Y-92284523D01*
X53553809Y-92379761D01*
X53410952Y-92427380D01*
X53315714Y-92427380D01*
X54696666Y-92427380D02*
X54125238Y-92427380D01*
X54410952Y-92427380D02*
X54410952Y-91427380D01*
X54315714Y-91570238D01*
X54220476Y-91665476D01*
X54125238Y-91713095D01*
%TO.C,J9*%
X233282142Y-59380952D02*
X233329761Y-59428571D01*
X233377380Y-59571428D01*
X233377380Y-59666666D01*
X233329761Y-59809523D01*
X233234523Y-59904761D01*
X233139285Y-59952380D01*
X232948809Y-60000000D01*
X232805952Y-60000000D01*
X232615476Y-59952380D01*
X232520238Y-59904761D01*
X232425000Y-59809523D01*
X232377380Y-59666666D01*
X232377380Y-59571428D01*
X232425000Y-59428571D01*
X232472619Y-59380952D01*
X233377380Y-58809523D02*
X233329761Y-58904761D01*
X233282142Y-58952380D01*
X233186904Y-59000000D01*
X232901190Y-59000000D01*
X232805952Y-58952380D01*
X232758333Y-58904761D01*
X232710714Y-58809523D01*
X232710714Y-58666666D01*
X232758333Y-58571428D01*
X232805952Y-58523809D01*
X232901190Y-58476190D01*
X233186904Y-58476190D01*
X233282142Y-58523809D01*
X233329761Y-58571428D01*
X233377380Y-58666666D01*
X233377380Y-58809523D01*
X232710714Y-58047619D02*
X233377380Y-58047619D01*
X232805952Y-58047619D02*
X232758333Y-58000000D01*
X232710714Y-57904761D01*
X232710714Y-57761904D01*
X232758333Y-57666666D01*
X232853571Y-57619047D01*
X233377380Y-57619047D01*
X232710714Y-57142857D02*
X233377380Y-57142857D01*
X232805952Y-57142857D02*
X232758333Y-57095238D01*
X232710714Y-57000000D01*
X232710714Y-56857142D01*
X232758333Y-56761904D01*
X232853571Y-56714285D01*
X233377380Y-56714285D01*
X233472619Y-56476190D02*
X233472619Y-55714285D01*
X232710714Y-55047619D02*
X233377380Y-55047619D01*
X232329761Y-55285714D02*
X233044047Y-55523809D01*
X233044047Y-54904761D01*
X232472619Y-54571428D02*
X232425000Y-54523809D01*
X232377380Y-54428571D01*
X232377380Y-54190476D01*
X232425000Y-54095238D01*
X232472619Y-54047619D01*
X232567857Y-54000000D01*
X232663095Y-54000000D01*
X232805952Y-54047619D01*
X233377380Y-54619047D01*
X233377380Y-54000000D01*
X234277380Y-57333333D02*
X234991666Y-57333333D01*
X235134523Y-57380952D01*
X235229761Y-57476190D01*
X235277380Y-57619047D01*
X235277380Y-57714285D01*
X235277380Y-56809523D02*
X235277380Y-56619047D01*
X235229761Y-56523809D01*
X235182142Y-56476190D01*
X235039285Y-56380952D01*
X234848809Y-56333333D01*
X234467857Y-56333333D01*
X234372619Y-56380952D01*
X234325000Y-56428571D01*
X234277380Y-56523809D01*
X234277380Y-56714285D01*
X234325000Y-56809523D01*
X234372619Y-56857142D01*
X234467857Y-56904761D01*
X234705952Y-56904761D01*
X234801190Y-56857142D01*
X234848809Y-56809523D01*
X234896428Y-56714285D01*
X234896428Y-56523809D01*
X234848809Y-56428571D01*
X234801190Y-56380952D01*
X234705952Y-56333333D01*
%TO.C,C4*%
X217607142Y-41202380D02*
X217702380Y-41202380D01*
X217797619Y-41250000D01*
X217845238Y-41297619D01*
X217892857Y-41392857D01*
X217940476Y-41583333D01*
X217940476Y-41821428D01*
X217892857Y-42011904D01*
X217845238Y-42107142D01*
X217797619Y-42154761D01*
X217702380Y-42202380D01*
X217607142Y-42202380D01*
X217511904Y-42154761D01*
X217464285Y-42107142D01*
X217416666Y-42011904D01*
X217369047Y-41821428D01*
X217369047Y-41583333D01*
X217416666Y-41392857D01*
X217464285Y-41297619D01*
X217511904Y-41250000D01*
X217607142Y-41202380D01*
X218369047Y-42107142D02*
X218416666Y-42154761D01*
X218369047Y-42202380D01*
X218321428Y-42154761D01*
X218369047Y-42107142D01*
X218369047Y-42202380D01*
X219369047Y-42202380D02*
X218797619Y-42202380D01*
X219083333Y-42202380D02*
X219083333Y-41202380D01*
X218988095Y-41345238D01*
X218892857Y-41440476D01*
X218797619Y-41488095D01*
X220226190Y-41535714D02*
X220226190Y-42202380D01*
X219797619Y-41535714D02*
X219797619Y-42059523D01*
X219845238Y-42154761D01*
X219940476Y-42202380D01*
X220083333Y-42202380D01*
X220178571Y-42154761D01*
X220226190Y-42107142D01*
X221035714Y-41678571D02*
X220702380Y-41678571D01*
X220702380Y-42202380D02*
X220702380Y-41202380D01*
X221178571Y-41202380D01*
D12*
X219096666Y-39328571D02*
X219052857Y-39372380D01*
X218921428Y-39416190D01*
X218833809Y-39416190D01*
X218702380Y-39372380D01*
X218614761Y-39284761D01*
X218570952Y-39197142D01*
X218527142Y-39021904D01*
X218527142Y-38890476D01*
X218570952Y-38715238D01*
X218614761Y-38627619D01*
X218702380Y-38540000D01*
X218833809Y-38496190D01*
X218921428Y-38496190D01*
X219052857Y-38540000D01*
X219096666Y-38583809D01*
X219885238Y-38802857D02*
X219885238Y-39416190D01*
X219666190Y-38452380D02*
X219447142Y-39109523D01*
X220016666Y-39109523D01*
D11*
%TO.C,U2*%
X107352142Y-73652142D02*
X107304523Y-73699761D01*
X107161666Y-73747380D01*
X107066428Y-73747380D01*
X106923571Y-73699761D01*
X106828333Y-73604523D01*
X106780714Y-73509285D01*
X106733095Y-73318809D01*
X106733095Y-73175952D01*
X106780714Y-72985476D01*
X106828333Y-72890238D01*
X106923571Y-72795000D01*
X107066428Y-72747380D01*
X107161666Y-72747380D01*
X107304523Y-72795000D01*
X107352142Y-72842619D01*
X107780714Y-73747380D02*
X107780714Y-72747380D01*
X108018809Y-72747380D01*
X108161666Y-72795000D01*
X108256904Y-72890238D01*
X108304523Y-72985476D01*
X108352142Y-73175952D01*
X108352142Y-73318809D01*
X108304523Y-73509285D01*
X108256904Y-73604523D01*
X108161666Y-73699761D01*
X108018809Y-73747380D01*
X107780714Y-73747380D01*
X108685476Y-72747380D02*
X109352142Y-72747380D01*
X108923571Y-73747380D01*
X110161666Y-73080714D02*
X110161666Y-73747380D01*
X109923571Y-72699761D02*
X109685476Y-73414047D01*
X110304523Y-73414047D01*
X110685476Y-73747380D02*
X110685476Y-72747380D01*
X110685476Y-73223571D02*
X111256904Y-73223571D01*
X111256904Y-73747380D02*
X111256904Y-72747380D01*
X112304523Y-73652142D02*
X112256904Y-73699761D01*
X112114047Y-73747380D01*
X112018809Y-73747380D01*
X111875952Y-73699761D01*
X111780714Y-73604523D01*
X111733095Y-73509285D01*
X111685476Y-73318809D01*
X111685476Y-73175952D01*
X111733095Y-72985476D01*
X111780714Y-72890238D01*
X111875952Y-72795000D01*
X112018809Y-72747380D01*
X112114047Y-72747380D01*
X112256904Y-72795000D01*
X112304523Y-72842619D01*
X113161666Y-73080714D02*
X113161666Y-73747380D01*
X112923571Y-72699761D02*
X112685476Y-73414047D01*
X113304523Y-73414047D01*
X113875952Y-72747380D02*
X113971190Y-72747380D01*
X114066428Y-72795000D01*
X114114047Y-72842619D01*
X114161666Y-72937857D01*
X114209285Y-73128333D01*
X114209285Y-73366428D01*
X114161666Y-73556904D01*
X114114047Y-73652142D01*
X114066428Y-73699761D01*
X113971190Y-73747380D01*
X113875952Y-73747380D01*
X113780714Y-73699761D01*
X113733095Y-73652142D01*
X113685476Y-73556904D01*
X113637857Y-73366428D01*
X113637857Y-73128333D01*
X113685476Y-72937857D01*
X113733095Y-72842619D01*
X113780714Y-72795000D01*
X113875952Y-72747380D01*
X115066428Y-72747380D02*
X114875952Y-72747380D01*
X114780714Y-72795000D01*
X114733095Y-72842619D01*
X114637857Y-72985476D01*
X114590238Y-73175952D01*
X114590238Y-73556904D01*
X114637857Y-73652142D01*
X114685476Y-73699761D01*
X114780714Y-73747380D01*
X114971190Y-73747380D01*
X115066428Y-73699761D01*
X115114047Y-73652142D01*
X115161666Y-73556904D01*
X115161666Y-73318809D01*
X115114047Y-73223571D01*
X115066428Y-73175952D01*
X114971190Y-73128333D01*
X114780714Y-73128333D01*
X114685476Y-73175952D01*
X114637857Y-73223571D01*
X114590238Y-73318809D01*
X115495000Y-72747380D02*
X116161666Y-72747380D01*
X115733095Y-73747380D01*
X116542619Y-73747380D02*
X116542619Y-72747380D01*
X116875952Y-73461666D01*
X117209285Y-72747380D01*
X117209285Y-73747380D01*
X111233095Y-56447380D02*
X111233095Y-57256904D01*
X111280714Y-57352142D01*
X111328333Y-57399761D01*
X111423571Y-57447380D01*
X111614047Y-57447380D01*
X111709285Y-57399761D01*
X111756904Y-57352142D01*
X111804523Y-57256904D01*
X111804523Y-56447380D01*
X112233095Y-56542619D02*
X112280714Y-56495000D01*
X112375952Y-56447380D01*
X112614047Y-56447380D01*
X112709285Y-56495000D01*
X112756904Y-56542619D01*
X112804523Y-56637857D01*
X112804523Y-56733095D01*
X112756904Y-56875952D01*
X112185476Y-57447380D01*
X112804523Y-57447380D01*
%TO.C,C3*%
X165607142Y-41202380D02*
X165702380Y-41202380D01*
X165797619Y-41250000D01*
X165845238Y-41297619D01*
X165892857Y-41392857D01*
X165940476Y-41583333D01*
X165940476Y-41821428D01*
X165892857Y-42011904D01*
X165845238Y-42107142D01*
X165797619Y-42154761D01*
X165702380Y-42202380D01*
X165607142Y-42202380D01*
X165511904Y-42154761D01*
X165464285Y-42107142D01*
X165416666Y-42011904D01*
X165369047Y-41821428D01*
X165369047Y-41583333D01*
X165416666Y-41392857D01*
X165464285Y-41297619D01*
X165511904Y-41250000D01*
X165607142Y-41202380D01*
X166369047Y-42107142D02*
X166416666Y-42154761D01*
X166369047Y-42202380D01*
X166321428Y-42154761D01*
X166369047Y-42107142D01*
X166369047Y-42202380D01*
X167369047Y-42202380D02*
X166797619Y-42202380D01*
X167083333Y-42202380D02*
X167083333Y-41202380D01*
X166988095Y-41345238D01*
X166892857Y-41440476D01*
X166797619Y-41488095D01*
X168226190Y-41535714D02*
X168226190Y-42202380D01*
X167797619Y-41535714D02*
X167797619Y-42059523D01*
X167845238Y-42154761D01*
X167940476Y-42202380D01*
X168083333Y-42202380D01*
X168178571Y-42154761D01*
X168226190Y-42107142D01*
X169035714Y-41678571D02*
X168702380Y-41678571D01*
X168702380Y-42202380D02*
X168702380Y-41202380D01*
X169178571Y-41202380D01*
D12*
X167096666Y-39328571D02*
X167052857Y-39372380D01*
X166921428Y-39416190D01*
X166833809Y-39416190D01*
X166702380Y-39372380D01*
X166614761Y-39284761D01*
X166570952Y-39197142D01*
X166527142Y-39021904D01*
X166527142Y-38890476D01*
X166570952Y-38715238D01*
X166614761Y-38627619D01*
X166702380Y-38540000D01*
X166833809Y-38496190D01*
X166921428Y-38496190D01*
X167052857Y-38540000D01*
X167096666Y-38583809D01*
X167403333Y-38496190D02*
X167972857Y-38496190D01*
X167666190Y-38846666D01*
X167797619Y-38846666D01*
X167885238Y-38890476D01*
X167929047Y-38934285D01*
X167972857Y-39021904D01*
X167972857Y-39240952D01*
X167929047Y-39328571D01*
X167885238Y-39372380D01*
X167797619Y-39416190D01*
X167534761Y-39416190D01*
X167447142Y-39372380D01*
X167403333Y-39328571D01*
D11*
%TO.C,J8*%
X204457142Y-59380952D02*
X204504761Y-59428571D01*
X204552380Y-59571428D01*
X204552380Y-59666666D01*
X204504761Y-59809523D01*
X204409523Y-59904761D01*
X204314285Y-59952380D01*
X204123809Y-60000000D01*
X203980952Y-60000000D01*
X203790476Y-59952380D01*
X203695238Y-59904761D01*
X203600000Y-59809523D01*
X203552380Y-59666666D01*
X203552380Y-59571428D01*
X203600000Y-59428571D01*
X203647619Y-59380952D01*
X204552380Y-58809523D02*
X204504761Y-58904761D01*
X204457142Y-58952380D01*
X204361904Y-59000000D01*
X204076190Y-59000000D01*
X203980952Y-58952380D01*
X203933333Y-58904761D01*
X203885714Y-58809523D01*
X203885714Y-58666666D01*
X203933333Y-58571428D01*
X203980952Y-58523809D01*
X204076190Y-58476190D01*
X204361904Y-58476190D01*
X204457142Y-58523809D01*
X204504761Y-58571428D01*
X204552380Y-58666666D01*
X204552380Y-58809523D01*
X203885714Y-58047619D02*
X204552380Y-58047619D01*
X203980952Y-58047619D02*
X203933333Y-58000000D01*
X203885714Y-57904761D01*
X203885714Y-57761904D01*
X203933333Y-57666666D01*
X204028571Y-57619047D01*
X204552380Y-57619047D01*
X203885714Y-57142857D02*
X204552380Y-57142857D01*
X203980952Y-57142857D02*
X203933333Y-57095238D01*
X203885714Y-57000000D01*
X203885714Y-56857142D01*
X203933333Y-56761904D01*
X204028571Y-56714285D01*
X204552380Y-56714285D01*
X204647619Y-56476190D02*
X204647619Y-55714285D01*
X203885714Y-55047619D02*
X204552380Y-55047619D01*
X203504761Y-55285714D02*
X204219047Y-55523809D01*
X204219047Y-54904761D01*
X204552380Y-54000000D02*
X204552380Y-54571428D01*
X204552380Y-54285714D02*
X203552380Y-54285714D01*
X203695238Y-54380952D01*
X203790476Y-54476190D01*
X203838095Y-54571428D01*
X201652380Y-57333333D02*
X202366666Y-57333333D01*
X202509523Y-57380952D01*
X202604761Y-57476190D01*
X202652380Y-57619047D01*
X202652380Y-57714285D01*
X202080952Y-56714285D02*
X202033333Y-56809523D01*
X201985714Y-56857142D01*
X201890476Y-56904761D01*
X201842857Y-56904761D01*
X201747619Y-56857142D01*
X201700000Y-56809523D01*
X201652380Y-56714285D01*
X201652380Y-56523809D01*
X201700000Y-56428571D01*
X201747619Y-56380952D01*
X201842857Y-56333333D01*
X201890476Y-56333333D01*
X201985714Y-56380952D01*
X202033333Y-56428571D01*
X202080952Y-56523809D01*
X202080952Y-56714285D01*
X202128571Y-56809523D01*
X202176190Y-56857142D01*
X202271428Y-56904761D01*
X202461904Y-56904761D01*
X202557142Y-56857142D01*
X202604761Y-56809523D01*
X202652380Y-56714285D01*
X202652380Y-56523809D01*
X202604761Y-56428571D01*
X202557142Y-56380952D01*
X202461904Y-56333333D01*
X202271428Y-56333333D01*
X202176190Y-56380952D01*
X202128571Y-56428571D01*
X202080952Y-56523809D01*
%TO.C,J2*%
X44457142Y-59380952D02*
X44504761Y-59428571D01*
X44552380Y-59571428D01*
X44552380Y-59666666D01*
X44504761Y-59809523D01*
X44409523Y-59904761D01*
X44314285Y-59952380D01*
X44123809Y-60000000D01*
X43980952Y-60000000D01*
X43790476Y-59952380D01*
X43695238Y-59904761D01*
X43600000Y-59809523D01*
X43552380Y-59666666D01*
X43552380Y-59571428D01*
X43600000Y-59428571D01*
X43647619Y-59380952D01*
X44552380Y-58809523D02*
X44504761Y-58904761D01*
X44457142Y-58952380D01*
X44361904Y-59000000D01*
X44076190Y-59000000D01*
X43980952Y-58952380D01*
X43933333Y-58904761D01*
X43885714Y-58809523D01*
X43885714Y-58666666D01*
X43933333Y-58571428D01*
X43980952Y-58523809D01*
X44076190Y-58476190D01*
X44361904Y-58476190D01*
X44457142Y-58523809D01*
X44504761Y-58571428D01*
X44552380Y-58666666D01*
X44552380Y-58809523D01*
X43885714Y-58047619D02*
X44552380Y-58047619D01*
X43980952Y-58047619D02*
X43933333Y-58000000D01*
X43885714Y-57904761D01*
X43885714Y-57761904D01*
X43933333Y-57666666D01*
X44028571Y-57619047D01*
X44552380Y-57619047D01*
X43885714Y-57142857D02*
X44552380Y-57142857D01*
X43980952Y-57142857D02*
X43933333Y-57095238D01*
X43885714Y-57000000D01*
X43885714Y-56857142D01*
X43933333Y-56761904D01*
X44028571Y-56714285D01*
X44552380Y-56714285D01*
X44647619Y-56476190D02*
X44647619Y-55714285D01*
X44552380Y-54952380D02*
X44552380Y-55523809D01*
X44552380Y-55238095D02*
X43552380Y-55238095D01*
X43695238Y-55333333D01*
X43790476Y-55428571D01*
X43838095Y-55523809D01*
X44552380Y-54000000D02*
X44552380Y-54571428D01*
X44552380Y-54285714D02*
X43552380Y-54285714D01*
X43695238Y-54380952D01*
X43790476Y-54476190D01*
X43838095Y-54571428D01*
X41652380Y-57333333D02*
X42366666Y-57333333D01*
X42509523Y-57380952D01*
X42604761Y-57476190D01*
X42652380Y-57619047D01*
X42652380Y-57714285D01*
X41747619Y-56904761D02*
X41700000Y-56857142D01*
X41652380Y-56761904D01*
X41652380Y-56523809D01*
X41700000Y-56428571D01*
X41747619Y-56380952D01*
X41842857Y-56333333D01*
X41938095Y-56333333D01*
X42080952Y-56380952D01*
X42652380Y-56952380D01*
X42652380Y-56333333D01*
%TO.C,U4*%
X214852142Y-73652142D02*
X214804523Y-73699761D01*
X214661666Y-73747380D01*
X214566428Y-73747380D01*
X214423571Y-73699761D01*
X214328333Y-73604523D01*
X214280714Y-73509285D01*
X214233095Y-73318809D01*
X214233095Y-73175952D01*
X214280714Y-72985476D01*
X214328333Y-72890238D01*
X214423571Y-72795000D01*
X214566428Y-72747380D01*
X214661666Y-72747380D01*
X214804523Y-72795000D01*
X214852142Y-72842619D01*
X215280714Y-73747380D02*
X215280714Y-72747380D01*
X215518809Y-72747380D01*
X215661666Y-72795000D01*
X215756904Y-72890238D01*
X215804523Y-72985476D01*
X215852142Y-73175952D01*
X215852142Y-73318809D01*
X215804523Y-73509285D01*
X215756904Y-73604523D01*
X215661666Y-73699761D01*
X215518809Y-73747380D01*
X215280714Y-73747380D01*
X216185476Y-72747380D02*
X216852142Y-72747380D01*
X216423571Y-73747380D01*
X217661666Y-73080714D02*
X217661666Y-73747380D01*
X217423571Y-72699761D02*
X217185476Y-73414047D01*
X217804523Y-73414047D01*
X218185476Y-73747380D02*
X218185476Y-72747380D01*
X218185476Y-73223571D02*
X218756904Y-73223571D01*
X218756904Y-73747380D02*
X218756904Y-72747380D01*
X219804523Y-73652142D02*
X219756904Y-73699761D01*
X219614047Y-73747380D01*
X219518809Y-73747380D01*
X219375952Y-73699761D01*
X219280714Y-73604523D01*
X219233095Y-73509285D01*
X219185476Y-73318809D01*
X219185476Y-73175952D01*
X219233095Y-72985476D01*
X219280714Y-72890238D01*
X219375952Y-72795000D01*
X219518809Y-72747380D01*
X219614047Y-72747380D01*
X219756904Y-72795000D01*
X219804523Y-72842619D01*
X220661666Y-73080714D02*
X220661666Y-73747380D01*
X220423571Y-72699761D02*
X220185476Y-73414047D01*
X220804523Y-73414047D01*
X221375952Y-72747380D02*
X221471190Y-72747380D01*
X221566428Y-72795000D01*
X221614047Y-72842619D01*
X221661666Y-72937857D01*
X221709285Y-73128333D01*
X221709285Y-73366428D01*
X221661666Y-73556904D01*
X221614047Y-73652142D01*
X221566428Y-73699761D01*
X221471190Y-73747380D01*
X221375952Y-73747380D01*
X221280714Y-73699761D01*
X221233095Y-73652142D01*
X221185476Y-73556904D01*
X221137857Y-73366428D01*
X221137857Y-73128333D01*
X221185476Y-72937857D01*
X221233095Y-72842619D01*
X221280714Y-72795000D01*
X221375952Y-72747380D01*
X222566428Y-72747380D02*
X222375952Y-72747380D01*
X222280714Y-72795000D01*
X222233095Y-72842619D01*
X222137857Y-72985476D01*
X222090238Y-73175952D01*
X222090238Y-73556904D01*
X222137857Y-73652142D01*
X222185476Y-73699761D01*
X222280714Y-73747380D01*
X222471190Y-73747380D01*
X222566428Y-73699761D01*
X222614047Y-73652142D01*
X222661666Y-73556904D01*
X222661666Y-73318809D01*
X222614047Y-73223571D01*
X222566428Y-73175952D01*
X222471190Y-73128333D01*
X222280714Y-73128333D01*
X222185476Y-73175952D01*
X222137857Y-73223571D01*
X222090238Y-73318809D01*
X222995000Y-72747380D02*
X223661666Y-72747380D01*
X223233095Y-73747380D01*
X224042619Y-73747380D02*
X224042619Y-72747380D01*
X224375952Y-73461666D01*
X224709285Y-72747380D01*
X224709285Y-73747380D01*
X218733095Y-56447380D02*
X218733095Y-57256904D01*
X218780714Y-57352142D01*
X218828333Y-57399761D01*
X218923571Y-57447380D01*
X219114047Y-57447380D01*
X219209285Y-57399761D01*
X219256904Y-57352142D01*
X219304523Y-57256904D01*
X219304523Y-56447380D01*
X220209285Y-56780714D02*
X220209285Y-57447380D01*
X219971190Y-56399761D02*
X219733095Y-57114047D01*
X220352142Y-57114047D01*
%TO.C,J7*%
X182757142Y-59380952D02*
X182804761Y-59428571D01*
X182852380Y-59571428D01*
X182852380Y-59666666D01*
X182804761Y-59809523D01*
X182709523Y-59904761D01*
X182614285Y-59952380D01*
X182423809Y-60000000D01*
X182280952Y-60000000D01*
X182090476Y-59952380D01*
X181995238Y-59904761D01*
X181900000Y-59809523D01*
X181852380Y-59666666D01*
X181852380Y-59571428D01*
X181900000Y-59428571D01*
X181947619Y-59380952D01*
X182852380Y-58809523D02*
X182804761Y-58904761D01*
X182757142Y-58952380D01*
X182661904Y-59000000D01*
X182376190Y-59000000D01*
X182280952Y-58952380D01*
X182233333Y-58904761D01*
X182185714Y-58809523D01*
X182185714Y-58666666D01*
X182233333Y-58571428D01*
X182280952Y-58523809D01*
X182376190Y-58476190D01*
X182661904Y-58476190D01*
X182757142Y-58523809D01*
X182804761Y-58571428D01*
X182852380Y-58666666D01*
X182852380Y-58809523D01*
X182185714Y-58047619D02*
X182852380Y-58047619D01*
X182280952Y-58047619D02*
X182233333Y-58000000D01*
X182185714Y-57904761D01*
X182185714Y-57761904D01*
X182233333Y-57666666D01*
X182328571Y-57619047D01*
X182852380Y-57619047D01*
X182185714Y-57142857D02*
X182852380Y-57142857D01*
X182280952Y-57142857D02*
X182233333Y-57095238D01*
X182185714Y-57000000D01*
X182185714Y-56857142D01*
X182233333Y-56761904D01*
X182328571Y-56714285D01*
X182852380Y-56714285D01*
X182947619Y-56476190D02*
X182947619Y-55714285D01*
X181852380Y-55571428D02*
X181852380Y-54952380D01*
X182233333Y-55285714D01*
X182233333Y-55142857D01*
X182280952Y-55047619D01*
X182328571Y-55000000D01*
X182423809Y-54952380D01*
X182661904Y-54952380D01*
X182757142Y-55000000D01*
X182804761Y-55047619D01*
X182852380Y-55142857D01*
X182852380Y-55428571D01*
X182804761Y-55523809D01*
X182757142Y-55571428D01*
X181947619Y-54571428D02*
X181900000Y-54523809D01*
X181852380Y-54428571D01*
X181852380Y-54190476D01*
X181900000Y-54095238D01*
X181947619Y-54047619D01*
X182042857Y-54000000D01*
X182138095Y-54000000D01*
X182280952Y-54047619D01*
X182852380Y-54619047D01*
X182852380Y-54000000D01*
X183752380Y-57333333D02*
X184466666Y-57333333D01*
X184609523Y-57380952D01*
X184704761Y-57476190D01*
X184752380Y-57619047D01*
X184752380Y-57714285D01*
X183752380Y-56952380D02*
X183752380Y-56285714D01*
X184752380Y-56714285D01*
%TO.C,U1*%
X54852142Y-73652142D02*
X54804523Y-73699761D01*
X54661666Y-73747380D01*
X54566428Y-73747380D01*
X54423571Y-73699761D01*
X54328333Y-73604523D01*
X54280714Y-73509285D01*
X54233095Y-73318809D01*
X54233095Y-73175952D01*
X54280714Y-72985476D01*
X54328333Y-72890238D01*
X54423571Y-72795000D01*
X54566428Y-72747380D01*
X54661666Y-72747380D01*
X54804523Y-72795000D01*
X54852142Y-72842619D01*
X55280714Y-73747380D02*
X55280714Y-72747380D01*
X55518809Y-72747380D01*
X55661666Y-72795000D01*
X55756904Y-72890238D01*
X55804523Y-72985476D01*
X55852142Y-73175952D01*
X55852142Y-73318809D01*
X55804523Y-73509285D01*
X55756904Y-73604523D01*
X55661666Y-73699761D01*
X55518809Y-73747380D01*
X55280714Y-73747380D01*
X56185476Y-72747380D02*
X56852142Y-72747380D01*
X56423571Y-73747380D01*
X57661666Y-73080714D02*
X57661666Y-73747380D01*
X57423571Y-72699761D02*
X57185476Y-73414047D01*
X57804523Y-73414047D01*
X58185476Y-73747380D02*
X58185476Y-72747380D01*
X58185476Y-73223571D02*
X58756904Y-73223571D01*
X58756904Y-73747380D02*
X58756904Y-72747380D01*
X59804523Y-73652142D02*
X59756904Y-73699761D01*
X59614047Y-73747380D01*
X59518809Y-73747380D01*
X59375952Y-73699761D01*
X59280714Y-73604523D01*
X59233095Y-73509285D01*
X59185476Y-73318809D01*
X59185476Y-73175952D01*
X59233095Y-72985476D01*
X59280714Y-72890238D01*
X59375952Y-72795000D01*
X59518809Y-72747380D01*
X59614047Y-72747380D01*
X59756904Y-72795000D01*
X59804523Y-72842619D01*
X60661666Y-73080714D02*
X60661666Y-73747380D01*
X60423571Y-72699761D02*
X60185476Y-73414047D01*
X60804523Y-73414047D01*
X61375952Y-72747380D02*
X61471190Y-72747380D01*
X61566428Y-72795000D01*
X61614047Y-72842619D01*
X61661666Y-72937857D01*
X61709285Y-73128333D01*
X61709285Y-73366428D01*
X61661666Y-73556904D01*
X61614047Y-73652142D01*
X61566428Y-73699761D01*
X61471190Y-73747380D01*
X61375952Y-73747380D01*
X61280714Y-73699761D01*
X61233095Y-73652142D01*
X61185476Y-73556904D01*
X61137857Y-73366428D01*
X61137857Y-73128333D01*
X61185476Y-72937857D01*
X61233095Y-72842619D01*
X61280714Y-72795000D01*
X61375952Y-72747380D01*
X62566428Y-72747380D02*
X62375952Y-72747380D01*
X62280714Y-72795000D01*
X62233095Y-72842619D01*
X62137857Y-72985476D01*
X62090238Y-73175952D01*
X62090238Y-73556904D01*
X62137857Y-73652142D01*
X62185476Y-73699761D01*
X62280714Y-73747380D01*
X62471190Y-73747380D01*
X62566428Y-73699761D01*
X62614047Y-73652142D01*
X62661666Y-73556904D01*
X62661666Y-73318809D01*
X62614047Y-73223571D01*
X62566428Y-73175952D01*
X62471190Y-73128333D01*
X62280714Y-73128333D01*
X62185476Y-73175952D01*
X62137857Y-73223571D01*
X62090238Y-73318809D01*
X62995000Y-72747380D02*
X63661666Y-72747380D01*
X63233095Y-73747380D01*
X64042619Y-73747380D02*
X64042619Y-72747380D01*
X64375952Y-73461666D01*
X64709285Y-72747380D01*
X64709285Y-73747380D01*
X58733095Y-56447380D02*
X58733095Y-57256904D01*
X58780714Y-57352142D01*
X58828333Y-57399761D01*
X58923571Y-57447380D01*
X59114047Y-57447380D01*
X59209285Y-57399761D01*
X59256904Y-57352142D01*
X59304523Y-57256904D01*
X59304523Y-56447380D01*
X60304523Y-57447380D02*
X59733095Y-57447380D01*
X60018809Y-57447380D02*
X60018809Y-56447380D01*
X59923571Y-56590238D01*
X59828333Y-56685476D01*
X59733095Y-56733095D01*
D13*
%TO.C,C2*%
X114550000Y-40500000D02*
X114550000Y-37500000D01*
X109950000Y-37500000D02*
X109950000Y-40500000D01*
X109950000Y-40500000D02*
X114550000Y-40500000D01*
X114550000Y-37500000D02*
X109950000Y-37500000D01*
%TO.C,C1*%
X56950000Y-40500000D02*
X61550000Y-40500000D01*
X56950000Y-37500000D02*
X56950000Y-40500000D01*
X61550000Y-40500000D02*
X61550000Y-37500000D01*
X61550000Y-37500000D02*
X56950000Y-37500000D01*
%TO.C,J5*%
X129125000Y-42050000D02*
X129125000Y-71950000D01*
X129125000Y-71950000D02*
X134875000Y-71950000D01*
X134875000Y-42050000D02*
X129125000Y-42050000D01*
X133875000Y-44500000D02*
X134875000Y-45125000D01*
X134875000Y-43875000D02*
X133875000Y-44500000D01*
X134875000Y-71950000D02*
X134875000Y-42050000D01*
%TO.C,J3*%
X82375000Y-42050000D02*
X76625000Y-42050000D01*
X82375000Y-43875000D02*
X81375000Y-44500000D01*
X81375000Y-44500000D02*
X82375000Y-45125000D01*
X76625000Y-71950000D02*
X82375000Y-71950000D01*
X76625000Y-42050000D02*
X76625000Y-71950000D01*
X82375000Y-71950000D02*
X82375000Y-42050000D01*
%TO.C,J6*%
X144650000Y-42050000D02*
X144650000Y-71950000D01*
X145650000Y-69500000D02*
X144650000Y-68875000D01*
X150400000Y-42050000D02*
X144650000Y-42050000D01*
X144650000Y-71950000D02*
X150400000Y-71950000D01*
X150400000Y-71950000D02*
X150400000Y-42050000D01*
X144650000Y-70125000D02*
X145650000Y-69500000D01*
%TO.C,U3*%
X175885000Y-72295000D02*
X175885000Y-41695000D01*
X174360000Y-72235000D02*
X159630000Y-72235000D01*
X160630000Y-41755000D02*
X174360000Y-41755000D01*
X159630000Y-42755000D02*
X160630000Y-41755000D01*
X174360000Y-41755000D02*
X174360000Y-72235000D01*
X159630000Y-72235000D02*
X159630000Y-42755000D01*
X158105000Y-41695000D02*
X158105000Y-72295000D01*
X175885000Y-41695000D02*
X158105000Y-41695000D01*
X158105000Y-72295000D02*
X175885000Y-72295000D01*
%TO.C,J4*%
X89650000Y-42050000D02*
X89650000Y-71950000D01*
X89650000Y-70125000D02*
X90650000Y-69500000D01*
X90650000Y-69500000D02*
X89650000Y-68875000D01*
X95400000Y-42050000D02*
X89650000Y-42050000D01*
X89650000Y-71950000D02*
X95400000Y-71950000D01*
X95400000Y-71950000D02*
X95400000Y-42050000D01*
%TO.C,J1*%
X41330000Y-93245000D02*
X41330000Y-91340000D01*
X41965000Y-90705000D02*
X66730000Y-90705000D01*
X66730000Y-93245000D02*
X41330000Y-93245000D01*
X41330000Y-91340000D02*
X41965000Y-90705000D01*
X66730000Y-90705000D02*
X66730000Y-93245000D01*
%TO.C,J9*%
X238875000Y-44500000D02*
X239875000Y-45125000D01*
X239875000Y-43875000D02*
X238875000Y-44500000D01*
X234125000Y-71950000D02*
X239875000Y-71950000D01*
X234125000Y-42050000D02*
X234125000Y-71950000D01*
X239875000Y-71950000D02*
X239875000Y-42050000D01*
X239875000Y-42050000D02*
X234125000Y-42050000D01*
%TO.C,C4*%
X221550000Y-40500000D02*
X221550000Y-37500000D01*
X216950000Y-37500000D02*
X216950000Y-40500000D01*
X221550000Y-37500000D02*
X216950000Y-37500000D01*
X216950000Y-40500000D02*
X221550000Y-40500000D01*
%TO.C,U2*%
X103105000Y-41695000D02*
X103105000Y-72295000D01*
X120885000Y-41695000D02*
X103105000Y-41695000D01*
X104630000Y-72235000D02*
X104630000Y-42755000D01*
X103105000Y-72295000D02*
X120885000Y-72295000D01*
X120885000Y-72295000D02*
X120885000Y-41695000D01*
X104630000Y-42755000D02*
X105630000Y-41755000D01*
X119360000Y-41755000D02*
X119360000Y-72235000D01*
X119360000Y-72235000D02*
X104630000Y-72235000D01*
X105630000Y-41755000D02*
X119360000Y-41755000D01*
%TO.C,C3*%
X164950000Y-37500000D02*
X164950000Y-40500000D01*
X169550000Y-37500000D02*
X164950000Y-37500000D01*
X164950000Y-40500000D02*
X169550000Y-40500000D01*
X169550000Y-40500000D02*
X169550000Y-37500000D01*
%TO.C,J8*%
X197150000Y-70125000D02*
X198150000Y-69500000D01*
X202900000Y-71950000D02*
X202900000Y-42050000D01*
X197150000Y-42050000D02*
X197150000Y-71950000D01*
X198150000Y-69500000D02*
X197150000Y-68875000D01*
X197150000Y-71950000D02*
X202900000Y-71950000D01*
X202900000Y-42050000D02*
X197150000Y-42050000D01*
%TO.C,J2*%
X37150000Y-70125000D02*
X38150000Y-69500000D01*
X38150000Y-69500000D02*
X37150000Y-68875000D01*
X42900000Y-42050000D02*
X37150000Y-42050000D01*
X37150000Y-42050000D02*
X37150000Y-71950000D01*
X37150000Y-71950000D02*
X42900000Y-71950000D01*
X42900000Y-71950000D02*
X42900000Y-42050000D01*
%TO.C,U4*%
X210605000Y-72295000D02*
X228385000Y-72295000D01*
X228385000Y-72295000D02*
X228385000Y-41695000D01*
X212130000Y-42755000D02*
X213130000Y-41755000D01*
X226860000Y-72235000D02*
X212130000Y-72235000D01*
X213130000Y-41755000D02*
X226860000Y-41755000D01*
X226860000Y-41755000D02*
X226860000Y-72235000D01*
X212130000Y-72235000D02*
X212130000Y-42755000D01*
X228385000Y-41695000D02*
X210605000Y-41695000D01*
X210605000Y-41695000D02*
X210605000Y-72295000D01*
%TO.C,J7*%
X189350000Y-43875000D02*
X188350000Y-44500000D01*
X189350000Y-71950000D02*
X189350000Y-42050000D01*
X188350000Y-44500000D02*
X189350000Y-45125000D01*
X183600000Y-42050000D02*
X183600000Y-71950000D01*
X189350000Y-42050000D02*
X183600000Y-42050000D01*
X183600000Y-71950000D02*
X189350000Y-71950000D01*
%TO.C,U1*%
X52130000Y-72235000D02*
X52130000Y-42755000D01*
X53130000Y-41755000D02*
X66860000Y-41755000D01*
X52130000Y-42755000D02*
X53130000Y-41755000D01*
X68385000Y-41695000D02*
X50605000Y-41695000D01*
X50605000Y-72295000D02*
X68385000Y-72295000D01*
X68385000Y-72295000D02*
X68385000Y-41695000D01*
X50605000Y-41695000D02*
X50605000Y-72295000D01*
X66860000Y-41755000D02*
X66860000Y-72235000D01*
X66860000Y-72235000D02*
X52130000Y-72235000D01*
%TD*%
M02*
