M48
; DRILL file {KiCad (6.0.7)} date Mon Jun  5 08:41:14 2023
; FORMAT={-:-/ absolute / metric / decimal}
; #@! TF.CreationDate,2023-06-05T08:41:14+05:30
; #@! TF.GenerationSoftware,Kicad,Pcbnew,(6.0.7)
; #@! TF.FileFunction,Plated,1,2,PTH
FMAT,2
METRIC
; #@! TA.AperFunction,Plated,PTH,ViaDrill
T1C0.500
; #@! TA.AperFunction,Plated,PTH,ComponentDrill
T2C0.700
; #@! TA.AperFunction,Plated,PTH,ComponentDrill
T3C0.800
; #@! TA.AperFunction,Plated,PTH,ComponentDrill
T4C0.950
; #@! TA.AperFunction,Plated,PTH,ComponentDrill
T5C1.000
%
G90
G05
T1
X54.75Y-83.75
X54.8Y-74.0
X59.0Y-74.0
X59.0Y-88.0
X63.0Y-74.0
X63.0Y-83.0
X67.0Y-74.0
X67.0Y-86.0
X98.0Y-44.0
X98.0Y-89.0
X108.0Y-74.0
X108.0Y-80.0
X114.0Y-74.0
X114.0Y-83.0
X119.5Y-74.0
X119.5Y-86.0
X153.0Y-44.0
X153.0Y-90.0
X163.5Y-74.0
X163.5Y-80.0
X169.5Y-74.0
X169.5Y-83.0
X174.5Y-74.0
X174.5Y-86.0
X205.0Y-44.0
X205.0Y-91.0
X215.5Y-74.0
X215.5Y-79.0
T2
X58.0Y-39.0
X60.5Y-39.0
X111.0Y-39.0
X113.5Y-39.0
X166.0Y-39.0
X168.5Y-39.0
X218.0Y-39.0
X220.5Y-39.0
T3
X51.875Y-43.025
X51.875Y-45.565
X51.875Y-48.105
X51.875Y-50.645
X51.875Y-53.185
X51.875Y-55.725
X51.875Y-58.265
X51.875Y-60.805
X51.875Y-63.345
X51.875Y-65.885
X51.875Y-68.425
X51.875Y-70.965
X67.115Y-43.025
X67.115Y-45.565
X67.115Y-48.105
X67.115Y-50.645
X67.115Y-53.185
X67.115Y-55.725
X67.115Y-58.265
X67.115Y-60.805
X67.115Y-63.345
X67.115Y-65.885
X67.115Y-68.425
X67.115Y-70.965
X104.375Y-43.025
X104.375Y-45.565
X104.375Y-48.105
X104.375Y-50.645
X104.375Y-53.185
X104.375Y-55.725
X104.375Y-58.265
X104.375Y-60.805
X104.375Y-63.345
X104.375Y-65.885
X104.375Y-68.425
X104.375Y-70.965
X119.615Y-43.025
X119.615Y-45.565
X119.615Y-48.105
X119.615Y-50.645
X119.615Y-53.185
X119.615Y-55.725
X119.615Y-58.265
X119.615Y-60.805
X119.615Y-63.345
X119.615Y-65.885
X119.615Y-68.425
X119.615Y-70.965
X159.375Y-43.025
X159.375Y-45.565
X159.375Y-48.105
X159.375Y-50.645
X159.375Y-53.185
X159.375Y-55.725
X159.375Y-58.265
X159.375Y-60.805
X159.375Y-63.345
X159.375Y-65.885
X159.375Y-68.425
X159.375Y-70.965
X174.615Y-43.025
X174.615Y-45.565
X174.615Y-48.105
X174.615Y-50.645
X174.615Y-53.185
X174.615Y-55.725
X174.615Y-58.265
X174.615Y-60.805
X174.615Y-63.345
X174.615Y-65.885
X174.615Y-68.425
X174.615Y-70.965
X211.875Y-43.025
X211.875Y-45.565
X211.875Y-48.105
X211.875Y-50.645
X211.875Y-53.185
X211.875Y-55.725
X211.875Y-58.265
X211.875Y-60.805
X211.875Y-63.345
X211.875Y-65.885
X211.875Y-68.425
X211.875Y-70.965
X227.115Y-43.025
X227.115Y-45.565
X227.115Y-48.105
X227.115Y-50.645
X227.115Y-53.185
X227.115Y-55.725
X227.115Y-58.265
X227.115Y-60.805
X227.115Y-63.345
X227.115Y-65.885
X227.115Y-68.425
X227.115Y-70.965
T4
X39.5Y-44.5
X39.5Y-47.0
X39.5Y-49.5
X39.5Y-52.0
X39.5Y-54.5
X39.5Y-57.0
X39.5Y-59.5
X39.5Y-62.0
X39.5Y-64.5
X39.5Y-67.0
X39.5Y-69.5
X80.025Y-44.5
X80.025Y-47.0
X80.025Y-49.5
X80.025Y-52.0
X80.025Y-54.5
X80.025Y-57.0
X80.025Y-59.5
X80.025Y-62.0
X80.025Y-64.5
X80.025Y-67.0
X80.025Y-69.5
X92.0Y-44.5
X92.0Y-47.0
X92.0Y-49.5
X92.0Y-52.0
X92.0Y-54.5
X92.0Y-57.0
X92.0Y-59.5
X92.0Y-62.0
X92.0Y-64.5
X92.0Y-67.0
X92.0Y-69.5
X132.525Y-44.5
X132.525Y-47.0
X132.525Y-49.5
X132.525Y-52.0
X132.525Y-54.5
X132.525Y-57.0
X132.525Y-59.5
X132.525Y-62.0
X132.525Y-64.5
X132.525Y-67.0
X132.525Y-69.5
X147.0Y-44.5
X147.0Y-47.0
X147.0Y-49.5
X147.0Y-52.0
X147.0Y-54.5
X147.0Y-57.0
X147.0Y-59.5
X147.0Y-62.0
X147.0Y-64.5
X147.0Y-67.0
X147.0Y-69.5
X187.0Y-44.5
X187.0Y-47.0
X187.0Y-49.5
X187.0Y-52.0
X187.0Y-54.5
X187.0Y-57.0
X187.0Y-59.5
X187.0Y-62.0
X187.0Y-64.5
X187.0Y-67.0
X187.0Y-69.5
X199.5Y-44.5
X199.5Y-47.0
X199.5Y-49.5
X199.5Y-52.0
X199.5Y-54.5
X199.5Y-57.0
X199.5Y-59.5
X199.5Y-62.0
X199.5Y-64.5
X199.5Y-67.0
X199.5Y-69.5
X237.525Y-44.5
X237.525Y-47.0
X237.525Y-49.5
X237.525Y-52.0
X237.525Y-54.5
X237.525Y-57.0
X237.525Y-59.5
X237.525Y-62.0
X237.525Y-64.5
X237.525Y-67.0
X237.525Y-69.5
T5
X42.6Y-91.975
X45.14Y-91.975
X47.68Y-91.975
X50.22Y-91.975
X52.76Y-91.975
X55.3Y-91.975
X57.84Y-91.975
X60.38Y-91.975
X62.92Y-91.975
X65.46Y-91.975
T0
M30
