%TF.GenerationSoftware,KiCad,Pcbnew,(6.0.7)*%
%TF.CreationDate,2023-06-05T08:02:43+05:30*%
%TF.ProjectId,acpm-arduino_motor_part,6163706d-2d61-4726-9475-696e6f5f6d6f,rev?*%
%TF.SameCoordinates,Original*%
%TF.FileFunction,Drillmap*%
%TF.FilePolarity,Positive*%
%FSLAX45Y45*%
G04 Gerber Fmt 4.5, Leading zero omitted, Abs format (unit mm)*
G04 Created by KiCad (PCBNEW (6.0.7)) date 2023-06-05 08:02:43*
%MOMM*%
%LPD*%
G01*
G04 APERTURE LIST*
%ADD10C,0.100000*%
%ADD11C,0.200000*%
%ADD12C,0.040000*%
%ADD13C,0.080000*%
%ADD14C,0.095000*%
%ADD15C,0.110000*%
G04 APERTURE END LIST*
D10*
X3900000Y-3800000D02*
X25900000Y-3800000D01*
X25900000Y-3800000D02*
X25900000Y-10800000D01*
X25900000Y-10800000D02*
X3900000Y-10800000D01*
X3900000Y-10800000D02*
X3900000Y-3800000D01*
D11*
D12*
X5900250Y-9230000D02*
X5940250Y-9270000D01*
X5940250Y-9230000D02*
X5900250Y-9270000D01*
X6150250Y-9380000D02*
X6190250Y-9420000D01*
X6190250Y-9380000D02*
X6150250Y-9420000D01*
X6400250Y-9430000D02*
X6440250Y-9470000D01*
X6440250Y-9430000D02*
X6400250Y-9470000D01*
X6625250Y-9555000D02*
X6665250Y-9595000D01*
X6665250Y-9555000D02*
X6625250Y-9595000D01*
X7650250Y-6905000D02*
X7690250Y-6945000D01*
X7690250Y-6905000D02*
X7650250Y-6945000D01*
X7650250Y-8105000D02*
X7690250Y-8145000D01*
X7690250Y-8105000D02*
X7650250Y-8145000D01*
X8350250Y-6705000D02*
X8390250Y-6745000D01*
X8390250Y-6705000D02*
X8350250Y-6745000D01*
X8350250Y-8205000D02*
X8390250Y-8245000D01*
X8390250Y-8205000D02*
X8350250Y-8245000D01*
X9350250Y-8205000D02*
X9390250Y-8245000D01*
X9390250Y-8205000D02*
X9350250Y-8245000D01*
X9362750Y-6492500D02*
X9402750Y-6532500D01*
X9402750Y-6492500D02*
X9362750Y-6532500D01*
X10825250Y-8580000D02*
X10865250Y-8620000D01*
X10865250Y-8580000D02*
X10825250Y-8620000D01*
X11050250Y-5155000D02*
X11090250Y-5195000D01*
X11090250Y-5155000D02*
X11050250Y-5195000D01*
X11050250Y-7305000D02*
X11090250Y-7345000D01*
X11090250Y-7305000D02*
X11050250Y-7345000D01*
X12750250Y-9205000D02*
X12790250Y-9245000D01*
X12790250Y-9205000D02*
X12750250Y-9245000D01*
X13200250Y-5680000D02*
X13240250Y-5720000D01*
X13240250Y-5680000D02*
X13200250Y-5720000D01*
X13475250Y-5705000D02*
X13515250Y-5745000D01*
X13515250Y-5705000D02*
X13475250Y-5745000D01*
X13650250Y-4755000D02*
X13690250Y-4795000D01*
X13690250Y-4755000D02*
X13650250Y-4795000D01*
X13725250Y-6730000D02*
X13765250Y-6770000D01*
X13765250Y-6730000D02*
X13725250Y-6770000D01*
X13740000Y-9095000D02*
X13780000Y-9135000D01*
X13780000Y-9095000D02*
X13740000Y-9135000D01*
X13800250Y-4905000D02*
X13840250Y-4945000D01*
X13840250Y-4905000D02*
X13800250Y-4945000D01*
X13950250Y-6730000D02*
X13990250Y-6770000D01*
X13990250Y-6730000D02*
X13950250Y-6770000D01*
X14725250Y-6705000D02*
X14765250Y-6745000D01*
X14765250Y-6705000D02*
X14725250Y-6745000D01*
X15100250Y-8705000D02*
X15140250Y-8745000D01*
X15140250Y-8705000D02*
X15100250Y-8745000D01*
X15235000Y-6695000D02*
X15275000Y-6735000D01*
X15275000Y-6695000D02*
X15235000Y-6735000D01*
X15575250Y-8555000D02*
X15615250Y-8595000D01*
X15615250Y-8555000D02*
X15575250Y-8595000D01*
X16850250Y-4205000D02*
X16890250Y-4245000D01*
X16890250Y-4205000D02*
X16850250Y-4245000D01*
X16950000Y-5545000D02*
X16990000Y-5585000D01*
X16990000Y-5545000D02*
X16950000Y-5585000D01*
X16950250Y-6705000D02*
X16990250Y-6745000D01*
X16990250Y-6705000D02*
X16950250Y-6745000D01*
X16950250Y-7905000D02*
X16990250Y-7945000D01*
X16990250Y-7905000D02*
X16950250Y-7945000D01*
X17825250Y-6655000D02*
X17865250Y-6695000D01*
X17865250Y-6655000D02*
X17825250Y-6695000D01*
X18125250Y-8030000D02*
X18165250Y-8070000D01*
X18165250Y-8030000D02*
X18125250Y-8070000D01*
X18150250Y-6680000D02*
X18190250Y-6720000D01*
X18190250Y-6680000D02*
X18150250Y-6720000D01*
X18475250Y-7430000D02*
X18515250Y-7470000D01*
X18515250Y-7430000D02*
X18475250Y-7470000D01*
X18875250Y-7630000D02*
X18915250Y-7670000D01*
X18915250Y-7630000D02*
X18875250Y-7670000D01*
X21825250Y-10080000D02*
X21865250Y-10120000D01*
X21865250Y-10080000D02*
X21825250Y-10120000D01*
X22550250Y-10305000D02*
X22590250Y-10345000D01*
X22590250Y-10305000D02*
X22550250Y-10345000D01*
X22750250Y-6130000D02*
X22790250Y-6170000D01*
X22790250Y-6130000D02*
X22750250Y-6170000D01*
X22845000Y-9630000D02*
X22885000Y-9670000D01*
X22885000Y-9630000D02*
X22845000Y-9670000D01*
X22850250Y-6705000D02*
X22890250Y-6745000D01*
X22890250Y-6705000D02*
X22850250Y-6745000D01*
X23625250Y-6980000D02*
X23665250Y-7020000D01*
X23665250Y-6980000D02*
X23625250Y-7020000D01*
D13*
X6410250Y-6512500D02*
G75*
G03*
X6410250Y-6512500I-40000J0D01*
G01*
X6535250Y-7317000D02*
G75*
G03*
X6535250Y-7317000I-40000J0D01*
G01*
X6535250Y-8333000D02*
G75*
G03*
X6535250Y-8333000I-40000J0D01*
G01*
X6660250Y-6512500D02*
G75*
G03*
X6660250Y-6512500I-40000J0D01*
G01*
X6710250Y-5175000D02*
G75*
G03*
X6710250Y-5175000I-40000J0D01*
G01*
X6710250Y-5675000D02*
G75*
G03*
X6710250Y-5675000I-40000J0D01*
G01*
X7210250Y-6525000D02*
G75*
G03*
X7210250Y-6525000I-40000J0D01*
G01*
X7310250Y-7317000D02*
G75*
G03*
X7310250Y-7317000I-40000J0D01*
G01*
X7310250Y-8333000D02*
G75*
G03*
X7310250Y-8333000I-40000J0D01*
G01*
X7460250Y-6525000D02*
G75*
G03*
X7460250Y-6525000I-40000J0D01*
G01*
X7985250Y-6512500D02*
G75*
G03*
X7985250Y-6512500I-40000J0D01*
G01*
X8085250Y-7317000D02*
G75*
G03*
X8085250Y-7317000I-40000J0D01*
G01*
X8085250Y-8333000D02*
G75*
G03*
X8085250Y-8333000I-40000J0D01*
G01*
X8235250Y-6512500D02*
G75*
G03*
X8235250Y-6512500I-40000J0D01*
G01*
X8810250Y-6512500D02*
G75*
G03*
X8810250Y-6512500I-40000J0D01*
G01*
X8910250Y-7317000D02*
G75*
G03*
X8910250Y-7317000I-40000J0D01*
G01*
X8910250Y-8333000D02*
G75*
G03*
X8910250Y-8333000I-40000J0D01*
G01*
X9060250Y-6512500D02*
G75*
G03*
X9060250Y-6512500I-40000J0D01*
G01*
X10035250Y-5175000D02*
G75*
G03*
X10035250Y-5175000I-40000J0D01*
G01*
X10035250Y-5425000D02*
G75*
G03*
X10035250Y-5425000I-40000J0D01*
G01*
X13460250Y-8942000D02*
G75*
G03*
X13460250Y-8942000I-40000J0D01*
G01*
X13460250Y-9958000D02*
G75*
G03*
X13460250Y-9958000I-40000J0D01*
G01*
X14060250Y-8942000D02*
G75*
G03*
X14060250Y-8942000I-40000J0D01*
G01*
X14060250Y-9958000D02*
G75*
G03*
X14060250Y-9958000I-40000J0D01*
G01*
X15352250Y-9050000D02*
G75*
G03*
X15352250Y-9050000I-40000J0D01*
G01*
X16368250Y-9050000D02*
G75*
G03*
X16368250Y-9050000I-40000J0D01*
G01*
X17152250Y-9050000D02*
G75*
G03*
X17152250Y-9050000I-40000J0D01*
G01*
X18168250Y-9050000D02*
G75*
G03*
X18168250Y-9050000I-40000J0D01*
G01*
X19433500Y-5372500D02*
G75*
G03*
X19433500Y-5372500I-40000J0D01*
G01*
X19433500Y-5626500D02*
G75*
G03*
X19433500Y-5626500I-40000J0D01*
G01*
X19433500Y-5880500D02*
G75*
G03*
X19433500Y-5880500I-40000J0D01*
G01*
X19433500Y-8372500D02*
G75*
G03*
X19433500Y-8372500I-40000J0D01*
G01*
X19433500Y-8626500D02*
G75*
G03*
X19433500Y-8626500I-40000J0D01*
G01*
X19433500Y-8880500D02*
G75*
G03*
X19433500Y-8880500I-40000J0D01*
G01*
X20195500Y-5372500D02*
G75*
G03*
X20195500Y-5372500I-40000J0D01*
G01*
X20195500Y-5626500D02*
G75*
G03*
X20195500Y-5626500I-40000J0D01*
G01*
X20195500Y-5880500D02*
G75*
G03*
X20195500Y-5880500I-40000J0D01*
G01*
X20195500Y-8372500D02*
G75*
G03*
X20195500Y-8372500I-40000J0D01*
G01*
X20195500Y-8626500D02*
G75*
G03*
X20195500Y-8626500I-40000J0D01*
G01*
X20195500Y-8880500D02*
G75*
G03*
X20195500Y-8880500I-40000J0D01*
G01*
X23410250Y-5131762D02*
G75*
G03*
X23410250Y-5131762I-40000J0D01*
G01*
X23410250Y-5381762D02*
G75*
G03*
X23410250Y-5381762I-40000J0D01*
G01*
X23410250Y-8125000D02*
G75*
G03*
X23410250Y-8125000I-40000J0D01*
G01*
X23410250Y-8375000D02*
G75*
G03*
X23410250Y-8375000I-40000J0D01*
G01*
D14*
X5345250Y-9850000D02*
X5345250Y-9945000D01*
X5297750Y-9897500D02*
X5392750Y-9897500D01*
X5595250Y-9850000D02*
X5595250Y-9945000D01*
X5547750Y-9897500D02*
X5642750Y-9897500D01*
X5845250Y-9850000D02*
X5845250Y-9945000D01*
X5797750Y-9897500D02*
X5892750Y-9897500D01*
X6095250Y-9850000D02*
X6095250Y-9945000D01*
X6047750Y-9897500D02*
X6142750Y-9897500D01*
X6345250Y-9850000D02*
X6345250Y-9945000D01*
X6297750Y-9897500D02*
X6392750Y-9897500D01*
X6595250Y-9850000D02*
X6595250Y-9945000D01*
X6547750Y-9897500D02*
X6642750Y-9897500D01*
X6845250Y-9850000D02*
X6845250Y-9945000D01*
X6797750Y-9897500D02*
X6892750Y-9897500D01*
X7095250Y-9850000D02*
X7095250Y-9945000D01*
X7047750Y-9897500D02*
X7142750Y-9897500D01*
X7345250Y-9850000D02*
X7345250Y-9945000D01*
X7297750Y-9897500D02*
X7392750Y-9897500D01*
X7595250Y-9850000D02*
X7595250Y-9945000D01*
X7547750Y-9897500D02*
X7642750Y-9897500D01*
X11095250Y-9650000D02*
X11095250Y-9745000D01*
X11047750Y-9697500D02*
X11142750Y-9697500D01*
X11345250Y-9650000D02*
X11345250Y-9745000D01*
X11297750Y-9697500D02*
X11392750Y-9697500D01*
X11595250Y-9650000D02*
X11595250Y-9745000D01*
X11547750Y-9697500D02*
X11642750Y-9697500D01*
X11845250Y-9650000D02*
X11845250Y-9745000D01*
X11797750Y-9697500D02*
X11892750Y-9697500D01*
X12095250Y-9650000D02*
X12095250Y-9745000D01*
X12047750Y-9697500D02*
X12142750Y-9697500D01*
X12345250Y-9650000D02*
X12345250Y-9745000D01*
X12297750Y-9697500D02*
X12392750Y-9697500D01*
X14247750Y-5127500D02*
X14247750Y-5222500D01*
X14200250Y-5175000D02*
X14295250Y-5175000D01*
X14247750Y-5377500D02*
X14247750Y-5472500D01*
X14200250Y-5425000D02*
X14295250Y-5425000D01*
X14247750Y-5627500D02*
X14247750Y-5722500D01*
X14200250Y-5675000D02*
X14295250Y-5675000D01*
X24392750Y-8152500D02*
X24392750Y-8247500D01*
X24345250Y-8200000D02*
X24440250Y-8200000D01*
X24392750Y-8402500D02*
X24392750Y-8497500D01*
X24345250Y-8450000D02*
X24440250Y-8450000D01*
X24392750Y-8652500D02*
X24392750Y-8747500D01*
X24345250Y-8700000D02*
X24440250Y-8700000D01*
X24392750Y-8902500D02*
X24392750Y-8997500D01*
X24345250Y-8950000D02*
X24440250Y-8950000D01*
X24417750Y-6202500D02*
X24417750Y-6297500D01*
X24370250Y-6250000D02*
X24465250Y-6250000D01*
X24417750Y-6452500D02*
X24417750Y-6547500D01*
X24370250Y-6500000D02*
X24465250Y-6500000D01*
X24417750Y-6702500D02*
X24417750Y-6797500D01*
X24370250Y-6750000D02*
X24465250Y-6750000D01*
X24417750Y-6952500D02*
X24417750Y-7047500D01*
X24370250Y-7000000D02*
X24465250Y-7000000D01*
D10*
X5505606Y-4710356D02*
X5505606Y-4639644D01*
X5434894Y-4639644D01*
X5434894Y-4710356D01*
X5505606Y-4710356D01*
X5505606Y-4960356D02*
X5505606Y-4889644D01*
X5434894Y-4889644D01*
X5434894Y-4960356D01*
X5505606Y-4960356D01*
X12754606Y-6499356D02*
X12754606Y-6428644D01*
X12683894Y-6428644D01*
X12683894Y-6499356D01*
X12754606Y-6499356D01*
X12754606Y-8023356D02*
X12754606Y-7952644D01*
X12683894Y-7952644D01*
X12683894Y-8023356D01*
X12754606Y-8023356D01*
X13008606Y-6499356D02*
X13008606Y-6428644D01*
X12937894Y-6428644D01*
X12937894Y-6499356D01*
X13008606Y-6499356D01*
X13008606Y-8023356D02*
X13008606Y-7952644D01*
X12937894Y-7952644D01*
X12937894Y-8023356D01*
X13008606Y-8023356D01*
X13262606Y-6499356D02*
X13262606Y-6428644D01*
X13191894Y-6428644D01*
X13191894Y-6499356D01*
X13262606Y-6499356D01*
X13262606Y-8023356D02*
X13262606Y-7952644D01*
X13191894Y-7952644D01*
X13191894Y-8023356D01*
X13262606Y-8023356D01*
X13516606Y-6499356D02*
X13516606Y-6428644D01*
X13445894Y-6428644D01*
X13445894Y-6499356D01*
X13516606Y-6499356D01*
X13516606Y-8023356D02*
X13516606Y-7952644D01*
X13445894Y-7952644D01*
X13445894Y-8023356D01*
X13516606Y-8023356D01*
X13770606Y-6499356D02*
X13770606Y-6428644D01*
X13699894Y-6428644D01*
X13699894Y-6499356D01*
X13770606Y-6499356D01*
X13770606Y-8023356D02*
X13770606Y-7952644D01*
X13699894Y-7952644D01*
X13699894Y-8023356D01*
X13770606Y-8023356D01*
X14024606Y-6499356D02*
X14024606Y-6428644D01*
X13953894Y-6428644D01*
X13953894Y-6499356D01*
X14024606Y-6499356D01*
X14024606Y-8023356D02*
X14024606Y-7952644D01*
X13953894Y-7952644D01*
X13953894Y-8023356D01*
X14024606Y-8023356D01*
X14278606Y-6499356D02*
X14278606Y-6428644D01*
X14207894Y-6428644D01*
X14207894Y-6499356D01*
X14278606Y-6499356D01*
X14278606Y-8023356D02*
X14278606Y-7952644D01*
X14207894Y-7952644D01*
X14207894Y-8023356D01*
X14278606Y-8023356D01*
X14532606Y-6499356D02*
X14532606Y-6428644D01*
X14461894Y-6428644D01*
X14461894Y-6499356D01*
X14532606Y-6499356D01*
X14532606Y-8023356D02*
X14532606Y-7952644D01*
X14461894Y-7952644D01*
X14461894Y-8023356D01*
X14532606Y-8023356D01*
X14786606Y-6499356D02*
X14786606Y-6428644D01*
X14715894Y-6428644D01*
X14715894Y-6499356D01*
X14786606Y-6499356D01*
X14786606Y-8023356D02*
X14786606Y-7952644D01*
X14715894Y-7952644D01*
X14715894Y-8023356D01*
X14786606Y-8023356D01*
X15040606Y-6499356D02*
X15040606Y-6428644D01*
X14969894Y-6428644D01*
X14969894Y-6499356D01*
X15040606Y-6499356D01*
X15040606Y-8023356D02*
X15040606Y-7952644D01*
X14969894Y-7952644D01*
X14969894Y-8023356D01*
X15040606Y-8023356D01*
X15294606Y-6499356D02*
X15294606Y-6428644D01*
X15223894Y-6428644D01*
X15223894Y-6499356D01*
X15294606Y-6499356D01*
X15294606Y-8023356D02*
X15294606Y-7952644D01*
X15223894Y-7952644D01*
X15223894Y-8023356D01*
X15294606Y-8023356D01*
X15548606Y-6499356D02*
X15548606Y-6428644D01*
X15477894Y-6428644D01*
X15477894Y-6499356D01*
X15548606Y-6499356D01*
X15548606Y-8023356D02*
X15548606Y-7952644D01*
X15477894Y-7952644D01*
X15477894Y-8023356D01*
X15548606Y-8023356D01*
X15802606Y-6499356D02*
X15802606Y-6428644D01*
X15731894Y-6428644D01*
X15731894Y-6499356D01*
X15802606Y-6499356D01*
X15802606Y-8023356D02*
X15802606Y-7952644D01*
X15731894Y-7952644D01*
X15731894Y-8023356D01*
X15802606Y-8023356D01*
X15805606Y-9685356D02*
X15805606Y-9614644D01*
X15734894Y-9614644D01*
X15734894Y-9685356D01*
X15805606Y-9685356D01*
X16055606Y-9685356D02*
X16055606Y-9614644D01*
X15984894Y-9614644D01*
X15984894Y-9685356D01*
X16055606Y-9685356D01*
X16056606Y-6499356D02*
X16056606Y-6428644D01*
X15985894Y-6428644D01*
X15985894Y-6499356D01*
X16056606Y-6499356D01*
X16056606Y-8023356D02*
X16056606Y-7952644D01*
X15985894Y-7952644D01*
X15985894Y-8023356D01*
X16056606Y-8023356D01*
X16310606Y-6499356D02*
X16310606Y-6428644D01*
X16239894Y-6428644D01*
X16239894Y-6499356D01*
X16310606Y-6499356D01*
X16310606Y-8023356D02*
X16310606Y-7952644D01*
X16239894Y-7952644D01*
X16239894Y-8023356D01*
X16310606Y-8023356D01*
X17555606Y-9685356D02*
X17555606Y-9614644D01*
X17484894Y-9614644D01*
X17484894Y-9685356D01*
X17555606Y-9685356D01*
X17805606Y-9685356D02*
X17805606Y-9614644D01*
X17734894Y-9614644D01*
X17734894Y-9685356D01*
X17805606Y-9685356D01*
D15*
X8970250Y-5222000D02*
X9025250Y-5167000D01*
X8970250Y-5112000D01*
X8915250Y-5167000D01*
X8970250Y-5222000D01*
X8970250Y-5476000D02*
X9025250Y-5421000D01*
X8970250Y-5366000D01*
X8915250Y-5421000D01*
X8970250Y-5476000D01*
X8970250Y-5730000D02*
X9025250Y-5675000D01*
X8970250Y-5620000D01*
X8915250Y-5675000D01*
X8970250Y-5730000D01*
X21235250Y-5191000D02*
X21290250Y-5136000D01*
X21235250Y-5081000D01*
X21180250Y-5136000D01*
X21235250Y-5191000D01*
X21235250Y-5445000D02*
X21290250Y-5390000D01*
X21235250Y-5335000D01*
X21180250Y-5390000D01*
X21235250Y-5445000D01*
X21235250Y-5699000D02*
X21290250Y-5644000D01*
X21235250Y-5589000D01*
X21180250Y-5644000D01*
X21235250Y-5699000D01*
X21235250Y-5953000D02*
X21290250Y-5898000D01*
X21235250Y-5843000D01*
X21180250Y-5898000D01*
X21235250Y-5953000D01*
X21235250Y-6207000D02*
X21290250Y-6152000D01*
X21235250Y-6097000D01*
X21180250Y-6152000D01*
X21235250Y-6207000D01*
X21235250Y-6461000D02*
X21290250Y-6406000D01*
X21235250Y-6351000D01*
X21180250Y-6406000D01*
X21235250Y-6461000D01*
X21235250Y-6715000D02*
X21290250Y-6660000D01*
X21235250Y-6605000D01*
X21180250Y-6660000D01*
X21235250Y-6715000D01*
X21235250Y-6969000D02*
X21290250Y-6914000D01*
X21235250Y-6859000D01*
X21180250Y-6914000D01*
X21235250Y-6969000D01*
X21235250Y-8191000D02*
X21290250Y-8136000D01*
X21235250Y-8081000D01*
X21180250Y-8136000D01*
X21235250Y-8191000D01*
X21235250Y-8445000D02*
X21290250Y-8390000D01*
X21235250Y-8335000D01*
X21180250Y-8390000D01*
X21235250Y-8445000D01*
X21235250Y-8699000D02*
X21290250Y-8644000D01*
X21235250Y-8589000D01*
X21180250Y-8644000D01*
X21235250Y-8699000D01*
X21235250Y-8953000D02*
X21290250Y-8898000D01*
X21235250Y-8843000D01*
X21180250Y-8898000D01*
X21235250Y-8953000D01*
X21235250Y-9207000D02*
X21290250Y-9152000D01*
X21235250Y-9097000D01*
X21180250Y-9152000D01*
X21235250Y-9207000D01*
X21235250Y-9461000D02*
X21290250Y-9406000D01*
X21235250Y-9351000D01*
X21180250Y-9406000D01*
X21235250Y-9461000D01*
X21235250Y-9715000D02*
X21290250Y-9660000D01*
X21235250Y-9605000D01*
X21180250Y-9660000D01*
X21235250Y-9715000D01*
X21235250Y-9969000D02*
X21290250Y-9914000D01*
X21235250Y-9859000D01*
X21180250Y-9914000D01*
X21235250Y-9969000D01*
X22505250Y-5191000D02*
X22560250Y-5136000D01*
X22505250Y-5081000D01*
X22450250Y-5136000D01*
X22505250Y-5191000D01*
X22505250Y-5445000D02*
X22560250Y-5390000D01*
X22505250Y-5335000D01*
X22450250Y-5390000D01*
X22505250Y-5445000D01*
X22505250Y-5699000D02*
X22560250Y-5644000D01*
X22505250Y-5589000D01*
X22450250Y-5644000D01*
X22505250Y-5699000D01*
X22505250Y-5953000D02*
X22560250Y-5898000D01*
X22505250Y-5843000D01*
X22450250Y-5898000D01*
X22505250Y-5953000D01*
X22505250Y-6207000D02*
X22560250Y-6152000D01*
X22505250Y-6097000D01*
X22450250Y-6152000D01*
X22505250Y-6207000D01*
X22505250Y-6461000D02*
X22560250Y-6406000D01*
X22505250Y-6351000D01*
X22450250Y-6406000D01*
X22505250Y-6461000D01*
X22505250Y-6715000D02*
X22560250Y-6660000D01*
X22505250Y-6605000D01*
X22450250Y-6660000D01*
X22505250Y-6715000D01*
X22505250Y-6969000D02*
X22560250Y-6914000D01*
X22505250Y-6859000D01*
X22450250Y-6914000D01*
X22505250Y-6969000D01*
X22505250Y-8191000D02*
X22560250Y-8136000D01*
X22505250Y-8081000D01*
X22450250Y-8136000D01*
X22505250Y-8191000D01*
X22505250Y-8445000D02*
X22560250Y-8390000D01*
X22505250Y-8335000D01*
X22450250Y-8390000D01*
X22505250Y-8445000D01*
X22505250Y-8699000D02*
X22560250Y-8644000D01*
X22505250Y-8589000D01*
X22450250Y-8644000D01*
X22505250Y-8699000D01*
X22505250Y-8953000D02*
X22560250Y-8898000D01*
X22505250Y-8843000D01*
X22450250Y-8898000D01*
X22505250Y-8953000D01*
X22505250Y-9207000D02*
X22560250Y-9152000D01*
X22505250Y-9097000D01*
X22450250Y-9152000D01*
X22505250Y-9207000D01*
X22505250Y-9461000D02*
X22560250Y-9406000D01*
X22505250Y-9351000D01*
X22450250Y-9406000D01*
X22505250Y-9461000D01*
X22505250Y-9715000D02*
X22560250Y-9660000D01*
X22505250Y-9605000D01*
X22450250Y-9660000D01*
X22505250Y-9715000D01*
X22505250Y-9969000D02*
X22560250Y-9914000D01*
X22505250Y-9859000D01*
X22450250Y-9914000D01*
X22505250Y-9969000D01*
D11*
X4152619Y-11115476D02*
X4152619Y-10915476D01*
X4200238Y-10915476D01*
X4228810Y-10925000D01*
X4247857Y-10944048D01*
X4257381Y-10963095D01*
X4266905Y-11001190D01*
X4266905Y-11029762D01*
X4257381Y-11067857D01*
X4247857Y-11086905D01*
X4228810Y-11105952D01*
X4200238Y-11115476D01*
X4152619Y-11115476D01*
X4352619Y-11115476D02*
X4352619Y-10982143D01*
X4352619Y-11020238D02*
X4362143Y-11001190D01*
X4371667Y-10991667D01*
X4390714Y-10982143D01*
X4409762Y-10982143D01*
X4476429Y-11115476D02*
X4476429Y-10982143D01*
X4476429Y-10915476D02*
X4466905Y-10925000D01*
X4476429Y-10934524D01*
X4485952Y-10925000D01*
X4476429Y-10915476D01*
X4476429Y-10934524D01*
X4600238Y-11115476D02*
X4581190Y-11105952D01*
X4571667Y-11086905D01*
X4571667Y-10915476D01*
X4705000Y-11115476D02*
X4685952Y-11105952D01*
X4676429Y-11086905D01*
X4676429Y-10915476D01*
X4933571Y-11115476D02*
X4933571Y-10915476D01*
X5000238Y-11058333D01*
X5066905Y-10915476D01*
X5066905Y-11115476D01*
X5247857Y-11115476D02*
X5247857Y-11010714D01*
X5238333Y-10991667D01*
X5219286Y-10982143D01*
X5181190Y-10982143D01*
X5162143Y-10991667D01*
X5247857Y-11105952D02*
X5228810Y-11115476D01*
X5181190Y-11115476D01*
X5162143Y-11105952D01*
X5152619Y-11086905D01*
X5152619Y-11067857D01*
X5162143Y-11048810D01*
X5181190Y-11039286D01*
X5228810Y-11039286D01*
X5247857Y-11029762D01*
X5343095Y-10982143D02*
X5343095Y-11182143D01*
X5343095Y-10991667D02*
X5362143Y-10982143D01*
X5400238Y-10982143D01*
X5419286Y-10991667D01*
X5428810Y-11001190D01*
X5438333Y-11020238D01*
X5438333Y-11077381D01*
X5428810Y-11096429D01*
X5419286Y-11105952D01*
X5400238Y-11115476D01*
X5362143Y-11115476D01*
X5343095Y-11105952D01*
X5524048Y-11096429D02*
X5533571Y-11105952D01*
X5524048Y-11115476D01*
X5514524Y-11105952D01*
X5524048Y-11096429D01*
X5524048Y-11115476D01*
X5524048Y-10991667D02*
X5533571Y-11001190D01*
X5524048Y-11010714D01*
X5514524Y-11001190D01*
X5524048Y-10991667D01*
X5524048Y-11010714D01*
D12*
X3855000Y-11425000D02*
X3895000Y-11465000D01*
X3895000Y-11425000D02*
X3855000Y-11465000D01*
D11*
X4190714Y-11335476D02*
X4209762Y-11335476D01*
X4228810Y-11345000D01*
X4238333Y-11354524D01*
X4247857Y-11373571D01*
X4257381Y-11411667D01*
X4257381Y-11459286D01*
X4247857Y-11497381D01*
X4238333Y-11516428D01*
X4228810Y-11525952D01*
X4209762Y-11535476D01*
X4190714Y-11535476D01*
X4171667Y-11525952D01*
X4162143Y-11516428D01*
X4152619Y-11497381D01*
X4143095Y-11459286D01*
X4143095Y-11411667D01*
X4152619Y-11373571D01*
X4162143Y-11354524D01*
X4171667Y-11345000D01*
X4190714Y-11335476D01*
X4343095Y-11516428D02*
X4352619Y-11525952D01*
X4343095Y-11535476D01*
X4333571Y-11525952D01*
X4343095Y-11516428D01*
X4343095Y-11535476D01*
X4524048Y-11402143D02*
X4524048Y-11535476D01*
X4476429Y-11325952D02*
X4428810Y-11468809D01*
X4552619Y-11468809D01*
X4666905Y-11335476D02*
X4685952Y-11335476D01*
X4705000Y-11345000D01*
X4714524Y-11354524D01*
X4724048Y-11373571D01*
X4733571Y-11411667D01*
X4733571Y-11459286D01*
X4724048Y-11497381D01*
X4714524Y-11516428D01*
X4705000Y-11525952D01*
X4685952Y-11535476D01*
X4666905Y-11535476D01*
X4647857Y-11525952D01*
X4638333Y-11516428D01*
X4628810Y-11497381D01*
X4619286Y-11459286D01*
X4619286Y-11411667D01*
X4628810Y-11373571D01*
X4638333Y-11354524D01*
X4647857Y-11345000D01*
X4666905Y-11335476D01*
X4857381Y-11335476D02*
X4876429Y-11335476D01*
X4895476Y-11345000D01*
X4905000Y-11354524D01*
X4914524Y-11373571D01*
X4924048Y-11411667D01*
X4924048Y-11459286D01*
X4914524Y-11497381D01*
X4905000Y-11516428D01*
X4895476Y-11525952D01*
X4876429Y-11535476D01*
X4857381Y-11535476D01*
X4838333Y-11525952D01*
X4828810Y-11516428D01*
X4819286Y-11497381D01*
X4809762Y-11459286D01*
X4809762Y-11411667D01*
X4819286Y-11373571D01*
X4828810Y-11354524D01*
X4838333Y-11345000D01*
X4857381Y-11335476D01*
X5009762Y-11535476D02*
X5009762Y-11402143D01*
X5009762Y-11421190D02*
X5019286Y-11411667D01*
X5038333Y-11402143D01*
X5066905Y-11402143D01*
X5085952Y-11411667D01*
X5095476Y-11430714D01*
X5095476Y-11535476D01*
X5095476Y-11430714D02*
X5105000Y-11411667D01*
X5124048Y-11402143D01*
X5152619Y-11402143D01*
X5171667Y-11411667D01*
X5181190Y-11430714D01*
X5181190Y-11535476D01*
X5276429Y-11535476D02*
X5276429Y-11402143D01*
X5276429Y-11421190D02*
X5285952Y-11411667D01*
X5305000Y-11402143D01*
X5333571Y-11402143D01*
X5352619Y-11411667D01*
X5362143Y-11430714D01*
X5362143Y-11535476D01*
X5362143Y-11430714D02*
X5371667Y-11411667D01*
X5390714Y-11402143D01*
X5419286Y-11402143D01*
X5438333Y-11411667D01*
X5447857Y-11430714D01*
X5447857Y-11535476D01*
X5838333Y-11325952D02*
X5666905Y-11583095D01*
X6095476Y-11335476D02*
X6114524Y-11335476D01*
X6133571Y-11345000D01*
X6143095Y-11354524D01*
X6152619Y-11373571D01*
X6162143Y-11411667D01*
X6162143Y-11459286D01*
X6152619Y-11497381D01*
X6143095Y-11516428D01*
X6133571Y-11525952D01*
X6114524Y-11535476D01*
X6095476Y-11535476D01*
X6076428Y-11525952D01*
X6066905Y-11516428D01*
X6057381Y-11497381D01*
X6047857Y-11459286D01*
X6047857Y-11411667D01*
X6057381Y-11373571D01*
X6066905Y-11354524D01*
X6076428Y-11345000D01*
X6095476Y-11335476D01*
X6247857Y-11516428D02*
X6257381Y-11525952D01*
X6247857Y-11535476D01*
X6238333Y-11525952D01*
X6247857Y-11516428D01*
X6247857Y-11535476D01*
X6381190Y-11335476D02*
X6400238Y-11335476D01*
X6419286Y-11345000D01*
X6428809Y-11354524D01*
X6438333Y-11373571D01*
X6447857Y-11411667D01*
X6447857Y-11459286D01*
X6438333Y-11497381D01*
X6428809Y-11516428D01*
X6419286Y-11525952D01*
X6400238Y-11535476D01*
X6381190Y-11535476D01*
X6362143Y-11525952D01*
X6352619Y-11516428D01*
X6343095Y-11497381D01*
X6333571Y-11459286D01*
X6333571Y-11411667D01*
X6343095Y-11373571D01*
X6352619Y-11354524D01*
X6362143Y-11345000D01*
X6381190Y-11335476D01*
X6638333Y-11535476D02*
X6524048Y-11535476D01*
X6581190Y-11535476D02*
X6581190Y-11335476D01*
X6562143Y-11364048D01*
X6543095Y-11383095D01*
X6524048Y-11392619D01*
X6819286Y-11335476D02*
X6724048Y-11335476D01*
X6714524Y-11430714D01*
X6724048Y-11421190D01*
X6743095Y-11411667D01*
X6790714Y-11411667D01*
X6809762Y-11421190D01*
X6819286Y-11430714D01*
X6828809Y-11449762D01*
X6828809Y-11497381D01*
X6819286Y-11516428D01*
X6809762Y-11525952D01*
X6790714Y-11535476D01*
X6743095Y-11535476D01*
X6724048Y-11525952D01*
X6714524Y-11516428D01*
X6895476Y-11335476D02*
X7028809Y-11335476D01*
X6943095Y-11535476D01*
X7095476Y-11335476D02*
X7095476Y-11373571D01*
X7171667Y-11335476D02*
X7171667Y-11373571D01*
X7466905Y-11611667D02*
X7457381Y-11602143D01*
X7438333Y-11573571D01*
X7428809Y-11554524D01*
X7419286Y-11525952D01*
X7409762Y-11478333D01*
X7409762Y-11440238D01*
X7419286Y-11392619D01*
X7428809Y-11364048D01*
X7438333Y-11345000D01*
X7457381Y-11316428D01*
X7466905Y-11306905D01*
X7628809Y-11402143D02*
X7628809Y-11535476D01*
X7581190Y-11325952D02*
X7533571Y-11468809D01*
X7657381Y-11468809D01*
X7771667Y-11335476D02*
X7790714Y-11335476D01*
X7809762Y-11345000D01*
X7819286Y-11354524D01*
X7828809Y-11373571D01*
X7838333Y-11411667D01*
X7838333Y-11459286D01*
X7828809Y-11497381D01*
X7819286Y-11516428D01*
X7809762Y-11525952D01*
X7790714Y-11535476D01*
X7771667Y-11535476D01*
X7752619Y-11525952D01*
X7743095Y-11516428D01*
X7733571Y-11497381D01*
X7724048Y-11459286D01*
X7724048Y-11411667D01*
X7733571Y-11373571D01*
X7743095Y-11354524D01*
X7752619Y-11345000D01*
X7771667Y-11335476D01*
X8076428Y-11535476D02*
X8076428Y-11335476D01*
X8162143Y-11535476D02*
X8162143Y-11430714D01*
X8152619Y-11411667D01*
X8133571Y-11402143D01*
X8105000Y-11402143D01*
X8085952Y-11411667D01*
X8076428Y-11421190D01*
X8285952Y-11535476D02*
X8266905Y-11525952D01*
X8257381Y-11516428D01*
X8247857Y-11497381D01*
X8247857Y-11440238D01*
X8257381Y-11421190D01*
X8266905Y-11411667D01*
X8285952Y-11402143D01*
X8314524Y-11402143D01*
X8333571Y-11411667D01*
X8343095Y-11421190D01*
X8352619Y-11440238D01*
X8352619Y-11497381D01*
X8343095Y-11516428D01*
X8333571Y-11525952D01*
X8314524Y-11535476D01*
X8285952Y-11535476D01*
X8466905Y-11535476D02*
X8447857Y-11525952D01*
X8438333Y-11506905D01*
X8438333Y-11335476D01*
X8619286Y-11525952D02*
X8600238Y-11535476D01*
X8562143Y-11535476D01*
X8543095Y-11525952D01*
X8533571Y-11506905D01*
X8533571Y-11430714D01*
X8543095Y-11411667D01*
X8562143Y-11402143D01*
X8600238Y-11402143D01*
X8619286Y-11411667D01*
X8628810Y-11430714D01*
X8628810Y-11449762D01*
X8533571Y-11468809D01*
X8705000Y-11525952D02*
X8724048Y-11535476D01*
X8762143Y-11535476D01*
X8781190Y-11525952D01*
X8790714Y-11506905D01*
X8790714Y-11497381D01*
X8781190Y-11478333D01*
X8762143Y-11468809D01*
X8733571Y-11468809D01*
X8714524Y-11459286D01*
X8705000Y-11440238D01*
X8705000Y-11430714D01*
X8714524Y-11411667D01*
X8733571Y-11402143D01*
X8762143Y-11402143D01*
X8781190Y-11411667D01*
X8857381Y-11611667D02*
X8866905Y-11602143D01*
X8885952Y-11573571D01*
X8895476Y-11554524D01*
X8905000Y-11525952D01*
X8914524Y-11478333D01*
X8914524Y-11440238D01*
X8905000Y-11392619D01*
X8895476Y-11364048D01*
X8885952Y-11345000D01*
X8866905Y-11316428D01*
X8857381Y-11306905D01*
D13*
X3895000Y-11709000D02*
G75*
G03*
X3895000Y-11709000I-40000J0D01*
G01*
D11*
X4190714Y-11599476D02*
X4209762Y-11599476D01*
X4228810Y-11609000D01*
X4238333Y-11618524D01*
X4247857Y-11637571D01*
X4257381Y-11675667D01*
X4257381Y-11723286D01*
X4247857Y-11761381D01*
X4238333Y-11780428D01*
X4228810Y-11789952D01*
X4209762Y-11799476D01*
X4190714Y-11799476D01*
X4171667Y-11789952D01*
X4162143Y-11780428D01*
X4152619Y-11761381D01*
X4143095Y-11723286D01*
X4143095Y-11675667D01*
X4152619Y-11637571D01*
X4162143Y-11618524D01*
X4171667Y-11609000D01*
X4190714Y-11599476D01*
X4343095Y-11780428D02*
X4352619Y-11789952D01*
X4343095Y-11799476D01*
X4333571Y-11789952D01*
X4343095Y-11780428D01*
X4343095Y-11799476D01*
X4466905Y-11685190D02*
X4447857Y-11675667D01*
X4438333Y-11666143D01*
X4428810Y-11647095D01*
X4428810Y-11637571D01*
X4438333Y-11618524D01*
X4447857Y-11609000D01*
X4466905Y-11599476D01*
X4505000Y-11599476D01*
X4524048Y-11609000D01*
X4533571Y-11618524D01*
X4543095Y-11637571D01*
X4543095Y-11647095D01*
X4533571Y-11666143D01*
X4524048Y-11675667D01*
X4505000Y-11685190D01*
X4466905Y-11685190D01*
X4447857Y-11694714D01*
X4438333Y-11704238D01*
X4428810Y-11723286D01*
X4428810Y-11761381D01*
X4438333Y-11780428D01*
X4447857Y-11789952D01*
X4466905Y-11799476D01*
X4505000Y-11799476D01*
X4524048Y-11789952D01*
X4533571Y-11780428D01*
X4543095Y-11761381D01*
X4543095Y-11723286D01*
X4533571Y-11704238D01*
X4524048Y-11694714D01*
X4505000Y-11685190D01*
X4666905Y-11599476D02*
X4685952Y-11599476D01*
X4705000Y-11609000D01*
X4714524Y-11618524D01*
X4724048Y-11637571D01*
X4733571Y-11675667D01*
X4733571Y-11723286D01*
X4724048Y-11761381D01*
X4714524Y-11780428D01*
X4705000Y-11789952D01*
X4685952Y-11799476D01*
X4666905Y-11799476D01*
X4647857Y-11789952D01*
X4638333Y-11780428D01*
X4628810Y-11761381D01*
X4619286Y-11723286D01*
X4619286Y-11675667D01*
X4628810Y-11637571D01*
X4638333Y-11618524D01*
X4647857Y-11609000D01*
X4666905Y-11599476D01*
X4857381Y-11599476D02*
X4876429Y-11599476D01*
X4895476Y-11609000D01*
X4905000Y-11618524D01*
X4914524Y-11637571D01*
X4924048Y-11675667D01*
X4924048Y-11723286D01*
X4914524Y-11761381D01*
X4905000Y-11780428D01*
X4895476Y-11789952D01*
X4876429Y-11799476D01*
X4857381Y-11799476D01*
X4838333Y-11789952D01*
X4828810Y-11780428D01*
X4819286Y-11761381D01*
X4809762Y-11723286D01*
X4809762Y-11675667D01*
X4819286Y-11637571D01*
X4828810Y-11618524D01*
X4838333Y-11609000D01*
X4857381Y-11599476D01*
X5009762Y-11799476D02*
X5009762Y-11666143D01*
X5009762Y-11685190D02*
X5019286Y-11675667D01*
X5038333Y-11666143D01*
X5066905Y-11666143D01*
X5085952Y-11675667D01*
X5095476Y-11694714D01*
X5095476Y-11799476D01*
X5095476Y-11694714D02*
X5105000Y-11675667D01*
X5124048Y-11666143D01*
X5152619Y-11666143D01*
X5171667Y-11675667D01*
X5181190Y-11694714D01*
X5181190Y-11799476D01*
X5276429Y-11799476D02*
X5276429Y-11666143D01*
X5276429Y-11685190D02*
X5285952Y-11675667D01*
X5305000Y-11666143D01*
X5333571Y-11666143D01*
X5352619Y-11675667D01*
X5362143Y-11694714D01*
X5362143Y-11799476D01*
X5362143Y-11694714D02*
X5371667Y-11675667D01*
X5390714Y-11666143D01*
X5419286Y-11666143D01*
X5438333Y-11675667D01*
X5447857Y-11694714D01*
X5447857Y-11799476D01*
X5838333Y-11589952D02*
X5666905Y-11847095D01*
X6095476Y-11599476D02*
X6114524Y-11599476D01*
X6133571Y-11609000D01*
X6143095Y-11618524D01*
X6152619Y-11637571D01*
X6162143Y-11675667D01*
X6162143Y-11723286D01*
X6152619Y-11761381D01*
X6143095Y-11780428D01*
X6133571Y-11789952D01*
X6114524Y-11799476D01*
X6095476Y-11799476D01*
X6076428Y-11789952D01*
X6066905Y-11780428D01*
X6057381Y-11761381D01*
X6047857Y-11723286D01*
X6047857Y-11675667D01*
X6057381Y-11637571D01*
X6066905Y-11618524D01*
X6076428Y-11609000D01*
X6095476Y-11599476D01*
X6247857Y-11780428D02*
X6257381Y-11789952D01*
X6247857Y-11799476D01*
X6238333Y-11789952D01*
X6247857Y-11780428D01*
X6247857Y-11799476D01*
X6381190Y-11599476D02*
X6400238Y-11599476D01*
X6419286Y-11609000D01*
X6428809Y-11618524D01*
X6438333Y-11637571D01*
X6447857Y-11675667D01*
X6447857Y-11723286D01*
X6438333Y-11761381D01*
X6428809Y-11780428D01*
X6419286Y-11789952D01*
X6400238Y-11799476D01*
X6381190Y-11799476D01*
X6362143Y-11789952D01*
X6352619Y-11780428D01*
X6343095Y-11761381D01*
X6333571Y-11723286D01*
X6333571Y-11675667D01*
X6343095Y-11637571D01*
X6352619Y-11618524D01*
X6362143Y-11609000D01*
X6381190Y-11599476D01*
X6514524Y-11599476D02*
X6638333Y-11599476D01*
X6571667Y-11675667D01*
X6600238Y-11675667D01*
X6619286Y-11685190D01*
X6628809Y-11694714D01*
X6638333Y-11713762D01*
X6638333Y-11761381D01*
X6628809Y-11780428D01*
X6619286Y-11789952D01*
X6600238Y-11799476D01*
X6543095Y-11799476D01*
X6524048Y-11789952D01*
X6514524Y-11780428D01*
X6828809Y-11799476D02*
X6714524Y-11799476D01*
X6771667Y-11799476D02*
X6771667Y-11599476D01*
X6752619Y-11628048D01*
X6733571Y-11647095D01*
X6714524Y-11656619D01*
X7009762Y-11599476D02*
X6914524Y-11599476D01*
X6905000Y-11694714D01*
X6914524Y-11685190D01*
X6933571Y-11675667D01*
X6981190Y-11675667D01*
X7000238Y-11685190D01*
X7009762Y-11694714D01*
X7019286Y-11713762D01*
X7019286Y-11761381D01*
X7009762Y-11780428D01*
X7000238Y-11789952D01*
X6981190Y-11799476D01*
X6933571Y-11799476D01*
X6914524Y-11789952D01*
X6905000Y-11780428D01*
X7095476Y-11599476D02*
X7095476Y-11637571D01*
X7171667Y-11599476D02*
X7171667Y-11637571D01*
X7466905Y-11875667D02*
X7457381Y-11866143D01*
X7438333Y-11837571D01*
X7428809Y-11818524D01*
X7419286Y-11789952D01*
X7409762Y-11742333D01*
X7409762Y-11704238D01*
X7419286Y-11656619D01*
X7428809Y-11628048D01*
X7438333Y-11609000D01*
X7457381Y-11580428D01*
X7466905Y-11570905D01*
X7628809Y-11666143D02*
X7628809Y-11799476D01*
X7581190Y-11589952D02*
X7533571Y-11732809D01*
X7657381Y-11732809D01*
X7819286Y-11666143D02*
X7819286Y-11799476D01*
X7771667Y-11589952D02*
X7724048Y-11732809D01*
X7847857Y-11732809D01*
X8076428Y-11799476D02*
X8076428Y-11599476D01*
X8162143Y-11799476D02*
X8162143Y-11694714D01*
X8152619Y-11675667D01*
X8133571Y-11666143D01*
X8105000Y-11666143D01*
X8085952Y-11675667D01*
X8076428Y-11685190D01*
X8285952Y-11799476D02*
X8266905Y-11789952D01*
X8257381Y-11780428D01*
X8247857Y-11761381D01*
X8247857Y-11704238D01*
X8257381Y-11685190D01*
X8266905Y-11675667D01*
X8285952Y-11666143D01*
X8314524Y-11666143D01*
X8333571Y-11675667D01*
X8343095Y-11685190D01*
X8352619Y-11704238D01*
X8352619Y-11761381D01*
X8343095Y-11780428D01*
X8333571Y-11789952D01*
X8314524Y-11799476D01*
X8285952Y-11799476D01*
X8466905Y-11799476D02*
X8447857Y-11789952D01*
X8438333Y-11770905D01*
X8438333Y-11599476D01*
X8619286Y-11789952D02*
X8600238Y-11799476D01*
X8562143Y-11799476D01*
X8543095Y-11789952D01*
X8533571Y-11770905D01*
X8533571Y-11694714D01*
X8543095Y-11675667D01*
X8562143Y-11666143D01*
X8600238Y-11666143D01*
X8619286Y-11675667D01*
X8628810Y-11694714D01*
X8628810Y-11713762D01*
X8533571Y-11732809D01*
X8705000Y-11789952D02*
X8724048Y-11799476D01*
X8762143Y-11799476D01*
X8781190Y-11789952D01*
X8790714Y-11770905D01*
X8790714Y-11761381D01*
X8781190Y-11742333D01*
X8762143Y-11732809D01*
X8733571Y-11732809D01*
X8714524Y-11723286D01*
X8705000Y-11704238D01*
X8705000Y-11694714D01*
X8714524Y-11675667D01*
X8733571Y-11666143D01*
X8762143Y-11666143D01*
X8781190Y-11675667D01*
X8857381Y-11875667D02*
X8866905Y-11866143D01*
X8885952Y-11837571D01*
X8895476Y-11818524D01*
X8905000Y-11789952D01*
X8914524Y-11742333D01*
X8914524Y-11704238D01*
X8905000Y-11656619D01*
X8895476Y-11628048D01*
X8885952Y-11609000D01*
X8866905Y-11580428D01*
X8857381Y-11570905D01*
D14*
X3847500Y-11925500D02*
X3847500Y-12020500D01*
X3800000Y-11973000D02*
X3895000Y-11973000D01*
D11*
X4190714Y-11863476D02*
X4209762Y-11863476D01*
X4228810Y-11873000D01*
X4238333Y-11882524D01*
X4247857Y-11901571D01*
X4257381Y-11939667D01*
X4257381Y-11987286D01*
X4247857Y-12025381D01*
X4238333Y-12044428D01*
X4228810Y-12053952D01*
X4209762Y-12063476D01*
X4190714Y-12063476D01*
X4171667Y-12053952D01*
X4162143Y-12044428D01*
X4152619Y-12025381D01*
X4143095Y-11987286D01*
X4143095Y-11939667D01*
X4152619Y-11901571D01*
X4162143Y-11882524D01*
X4171667Y-11873000D01*
X4190714Y-11863476D01*
X4343095Y-12044428D02*
X4352619Y-12053952D01*
X4343095Y-12063476D01*
X4333571Y-12053952D01*
X4343095Y-12044428D01*
X4343095Y-12063476D01*
X4447857Y-12063476D02*
X4485952Y-12063476D01*
X4505000Y-12053952D01*
X4514524Y-12044428D01*
X4533571Y-12015857D01*
X4543095Y-11977762D01*
X4543095Y-11901571D01*
X4533571Y-11882524D01*
X4524048Y-11873000D01*
X4505000Y-11863476D01*
X4466905Y-11863476D01*
X4447857Y-11873000D01*
X4438333Y-11882524D01*
X4428810Y-11901571D01*
X4428810Y-11949190D01*
X4438333Y-11968238D01*
X4447857Y-11977762D01*
X4466905Y-11987286D01*
X4505000Y-11987286D01*
X4524048Y-11977762D01*
X4533571Y-11968238D01*
X4543095Y-11949190D01*
X4724048Y-11863476D02*
X4628810Y-11863476D01*
X4619286Y-11958714D01*
X4628810Y-11949190D01*
X4647857Y-11939667D01*
X4695476Y-11939667D01*
X4714524Y-11949190D01*
X4724048Y-11958714D01*
X4733571Y-11977762D01*
X4733571Y-12025381D01*
X4724048Y-12044428D01*
X4714524Y-12053952D01*
X4695476Y-12063476D01*
X4647857Y-12063476D01*
X4628810Y-12053952D01*
X4619286Y-12044428D01*
X4857381Y-11863476D02*
X4876429Y-11863476D01*
X4895476Y-11873000D01*
X4905000Y-11882524D01*
X4914524Y-11901571D01*
X4924048Y-11939667D01*
X4924048Y-11987286D01*
X4914524Y-12025381D01*
X4905000Y-12044428D01*
X4895476Y-12053952D01*
X4876429Y-12063476D01*
X4857381Y-12063476D01*
X4838333Y-12053952D01*
X4828810Y-12044428D01*
X4819286Y-12025381D01*
X4809762Y-11987286D01*
X4809762Y-11939667D01*
X4819286Y-11901571D01*
X4828810Y-11882524D01*
X4838333Y-11873000D01*
X4857381Y-11863476D01*
X5009762Y-12063476D02*
X5009762Y-11930143D01*
X5009762Y-11949190D02*
X5019286Y-11939667D01*
X5038333Y-11930143D01*
X5066905Y-11930143D01*
X5085952Y-11939667D01*
X5095476Y-11958714D01*
X5095476Y-12063476D01*
X5095476Y-11958714D02*
X5105000Y-11939667D01*
X5124048Y-11930143D01*
X5152619Y-11930143D01*
X5171667Y-11939667D01*
X5181190Y-11958714D01*
X5181190Y-12063476D01*
X5276429Y-12063476D02*
X5276429Y-11930143D01*
X5276429Y-11949190D02*
X5285952Y-11939667D01*
X5305000Y-11930143D01*
X5333571Y-11930143D01*
X5352619Y-11939667D01*
X5362143Y-11958714D01*
X5362143Y-12063476D01*
X5362143Y-11958714D02*
X5371667Y-11939667D01*
X5390714Y-11930143D01*
X5419286Y-11930143D01*
X5438333Y-11939667D01*
X5447857Y-11958714D01*
X5447857Y-12063476D01*
X5838333Y-11853952D02*
X5666905Y-12111095D01*
X6095476Y-11863476D02*
X6114524Y-11863476D01*
X6133571Y-11873000D01*
X6143095Y-11882524D01*
X6152619Y-11901571D01*
X6162143Y-11939667D01*
X6162143Y-11987286D01*
X6152619Y-12025381D01*
X6143095Y-12044428D01*
X6133571Y-12053952D01*
X6114524Y-12063476D01*
X6095476Y-12063476D01*
X6076428Y-12053952D01*
X6066905Y-12044428D01*
X6057381Y-12025381D01*
X6047857Y-11987286D01*
X6047857Y-11939667D01*
X6057381Y-11901571D01*
X6066905Y-11882524D01*
X6076428Y-11873000D01*
X6095476Y-11863476D01*
X6247857Y-12044428D02*
X6257381Y-12053952D01*
X6247857Y-12063476D01*
X6238333Y-12053952D01*
X6247857Y-12044428D01*
X6247857Y-12063476D01*
X6381190Y-11863476D02*
X6400238Y-11863476D01*
X6419286Y-11873000D01*
X6428809Y-11882524D01*
X6438333Y-11901571D01*
X6447857Y-11939667D01*
X6447857Y-11987286D01*
X6438333Y-12025381D01*
X6428809Y-12044428D01*
X6419286Y-12053952D01*
X6400238Y-12063476D01*
X6381190Y-12063476D01*
X6362143Y-12053952D01*
X6352619Y-12044428D01*
X6343095Y-12025381D01*
X6333571Y-11987286D01*
X6333571Y-11939667D01*
X6343095Y-11901571D01*
X6352619Y-11882524D01*
X6362143Y-11873000D01*
X6381190Y-11863476D01*
X6514524Y-11863476D02*
X6638333Y-11863476D01*
X6571667Y-11939667D01*
X6600238Y-11939667D01*
X6619286Y-11949190D01*
X6628809Y-11958714D01*
X6638333Y-11977762D01*
X6638333Y-12025381D01*
X6628809Y-12044428D01*
X6619286Y-12053952D01*
X6600238Y-12063476D01*
X6543095Y-12063476D01*
X6524048Y-12053952D01*
X6514524Y-12044428D01*
X6705000Y-11863476D02*
X6838333Y-11863476D01*
X6752619Y-12063476D01*
X7000238Y-11930143D02*
X7000238Y-12063476D01*
X6952619Y-11853952D02*
X6905000Y-11996809D01*
X7028809Y-11996809D01*
X7095476Y-11863476D02*
X7095476Y-11901571D01*
X7171667Y-11863476D02*
X7171667Y-11901571D01*
X7466905Y-12139667D02*
X7457381Y-12130143D01*
X7438333Y-12101571D01*
X7428809Y-12082524D01*
X7419286Y-12053952D01*
X7409762Y-12006333D01*
X7409762Y-11968238D01*
X7419286Y-11920619D01*
X7428809Y-11892048D01*
X7438333Y-11873000D01*
X7457381Y-11844428D01*
X7466905Y-11834905D01*
X7533571Y-11882524D02*
X7543095Y-11873000D01*
X7562143Y-11863476D01*
X7609762Y-11863476D01*
X7628809Y-11873000D01*
X7638333Y-11882524D01*
X7647857Y-11901571D01*
X7647857Y-11920619D01*
X7638333Y-11949190D01*
X7524048Y-12063476D01*
X7647857Y-12063476D01*
X7714524Y-11863476D02*
X7847857Y-11863476D01*
X7762143Y-12063476D01*
X8076428Y-12063476D02*
X8076428Y-11863476D01*
X8162143Y-12063476D02*
X8162143Y-11958714D01*
X8152619Y-11939667D01*
X8133571Y-11930143D01*
X8105000Y-11930143D01*
X8085952Y-11939667D01*
X8076428Y-11949190D01*
X8285952Y-12063476D02*
X8266905Y-12053952D01*
X8257381Y-12044428D01*
X8247857Y-12025381D01*
X8247857Y-11968238D01*
X8257381Y-11949190D01*
X8266905Y-11939667D01*
X8285952Y-11930143D01*
X8314524Y-11930143D01*
X8333571Y-11939667D01*
X8343095Y-11949190D01*
X8352619Y-11968238D01*
X8352619Y-12025381D01*
X8343095Y-12044428D01*
X8333571Y-12053952D01*
X8314524Y-12063476D01*
X8285952Y-12063476D01*
X8466905Y-12063476D02*
X8447857Y-12053952D01*
X8438333Y-12034905D01*
X8438333Y-11863476D01*
X8619286Y-12053952D02*
X8600238Y-12063476D01*
X8562143Y-12063476D01*
X8543095Y-12053952D01*
X8533571Y-12034905D01*
X8533571Y-11958714D01*
X8543095Y-11939667D01*
X8562143Y-11930143D01*
X8600238Y-11930143D01*
X8619286Y-11939667D01*
X8628810Y-11958714D01*
X8628810Y-11977762D01*
X8533571Y-11996809D01*
X8705000Y-12053952D02*
X8724048Y-12063476D01*
X8762143Y-12063476D01*
X8781190Y-12053952D01*
X8790714Y-12034905D01*
X8790714Y-12025381D01*
X8781190Y-12006333D01*
X8762143Y-11996809D01*
X8733571Y-11996809D01*
X8714524Y-11987286D01*
X8705000Y-11968238D01*
X8705000Y-11958714D01*
X8714524Y-11939667D01*
X8733571Y-11930143D01*
X8762143Y-11930143D01*
X8781190Y-11939667D01*
X8857381Y-12139667D02*
X8866905Y-12130143D01*
X8885952Y-12101571D01*
X8895476Y-12082524D01*
X8905000Y-12053952D01*
X8914524Y-12006333D01*
X8914524Y-11968238D01*
X8905000Y-11920619D01*
X8895476Y-11892048D01*
X8885952Y-11873000D01*
X8866905Y-11844428D01*
X8857381Y-11834905D01*
D10*
X3880356Y-12272356D02*
X3880356Y-12201644D01*
X3809644Y-12201644D01*
X3809644Y-12272356D01*
X3880356Y-12272356D01*
D11*
X4257381Y-12327476D02*
X4143095Y-12327476D01*
X4200238Y-12327476D02*
X4200238Y-12127476D01*
X4181190Y-12156048D01*
X4162143Y-12175095D01*
X4143095Y-12184619D01*
X4343095Y-12308428D02*
X4352619Y-12317952D01*
X4343095Y-12327476D01*
X4333571Y-12317952D01*
X4343095Y-12308428D01*
X4343095Y-12327476D01*
X4476429Y-12127476D02*
X4495476Y-12127476D01*
X4514524Y-12137000D01*
X4524048Y-12146524D01*
X4533571Y-12165571D01*
X4543095Y-12203667D01*
X4543095Y-12251286D01*
X4533571Y-12289381D01*
X4524048Y-12308428D01*
X4514524Y-12317952D01*
X4495476Y-12327476D01*
X4476429Y-12327476D01*
X4457381Y-12317952D01*
X4447857Y-12308428D01*
X4438333Y-12289381D01*
X4428810Y-12251286D01*
X4428810Y-12203667D01*
X4438333Y-12165571D01*
X4447857Y-12146524D01*
X4457381Y-12137000D01*
X4476429Y-12127476D01*
X4666905Y-12127476D02*
X4685952Y-12127476D01*
X4705000Y-12137000D01*
X4714524Y-12146524D01*
X4724048Y-12165571D01*
X4733571Y-12203667D01*
X4733571Y-12251286D01*
X4724048Y-12289381D01*
X4714524Y-12308428D01*
X4705000Y-12317952D01*
X4685952Y-12327476D01*
X4666905Y-12327476D01*
X4647857Y-12317952D01*
X4638333Y-12308428D01*
X4628810Y-12289381D01*
X4619286Y-12251286D01*
X4619286Y-12203667D01*
X4628810Y-12165571D01*
X4638333Y-12146524D01*
X4647857Y-12137000D01*
X4666905Y-12127476D01*
X4857381Y-12127476D02*
X4876429Y-12127476D01*
X4895476Y-12137000D01*
X4905000Y-12146524D01*
X4914524Y-12165571D01*
X4924048Y-12203667D01*
X4924048Y-12251286D01*
X4914524Y-12289381D01*
X4905000Y-12308428D01*
X4895476Y-12317952D01*
X4876429Y-12327476D01*
X4857381Y-12327476D01*
X4838333Y-12317952D01*
X4828810Y-12308428D01*
X4819286Y-12289381D01*
X4809762Y-12251286D01*
X4809762Y-12203667D01*
X4819286Y-12165571D01*
X4828810Y-12146524D01*
X4838333Y-12137000D01*
X4857381Y-12127476D01*
X5009762Y-12327476D02*
X5009762Y-12194143D01*
X5009762Y-12213190D02*
X5019286Y-12203667D01*
X5038333Y-12194143D01*
X5066905Y-12194143D01*
X5085952Y-12203667D01*
X5095476Y-12222714D01*
X5095476Y-12327476D01*
X5095476Y-12222714D02*
X5105000Y-12203667D01*
X5124048Y-12194143D01*
X5152619Y-12194143D01*
X5171667Y-12203667D01*
X5181190Y-12222714D01*
X5181190Y-12327476D01*
X5276429Y-12327476D02*
X5276429Y-12194143D01*
X5276429Y-12213190D02*
X5285952Y-12203667D01*
X5305000Y-12194143D01*
X5333571Y-12194143D01*
X5352619Y-12203667D01*
X5362143Y-12222714D01*
X5362143Y-12327476D01*
X5362143Y-12222714D02*
X5371667Y-12203667D01*
X5390714Y-12194143D01*
X5419286Y-12194143D01*
X5438333Y-12203667D01*
X5447857Y-12222714D01*
X5447857Y-12327476D01*
X5838333Y-12117952D02*
X5666905Y-12375095D01*
X6095476Y-12127476D02*
X6114524Y-12127476D01*
X6133571Y-12137000D01*
X6143095Y-12146524D01*
X6152619Y-12165571D01*
X6162143Y-12203667D01*
X6162143Y-12251286D01*
X6152619Y-12289381D01*
X6143095Y-12308428D01*
X6133571Y-12317952D01*
X6114524Y-12327476D01*
X6095476Y-12327476D01*
X6076428Y-12317952D01*
X6066905Y-12308428D01*
X6057381Y-12289381D01*
X6047857Y-12251286D01*
X6047857Y-12203667D01*
X6057381Y-12165571D01*
X6066905Y-12146524D01*
X6076428Y-12137000D01*
X6095476Y-12127476D01*
X6247857Y-12308428D02*
X6257381Y-12317952D01*
X6247857Y-12327476D01*
X6238333Y-12317952D01*
X6247857Y-12308428D01*
X6247857Y-12327476D01*
X6381190Y-12127476D02*
X6400238Y-12127476D01*
X6419286Y-12137000D01*
X6428809Y-12146524D01*
X6438333Y-12165571D01*
X6447857Y-12203667D01*
X6447857Y-12251286D01*
X6438333Y-12289381D01*
X6428809Y-12308428D01*
X6419286Y-12317952D01*
X6400238Y-12327476D01*
X6381190Y-12327476D01*
X6362143Y-12317952D01*
X6352619Y-12308428D01*
X6343095Y-12289381D01*
X6333571Y-12251286D01*
X6333571Y-12203667D01*
X6343095Y-12165571D01*
X6352619Y-12146524D01*
X6362143Y-12137000D01*
X6381190Y-12127476D01*
X6514524Y-12127476D02*
X6638333Y-12127476D01*
X6571667Y-12203667D01*
X6600238Y-12203667D01*
X6619286Y-12213190D01*
X6628809Y-12222714D01*
X6638333Y-12241762D01*
X6638333Y-12289381D01*
X6628809Y-12308428D01*
X6619286Y-12317952D01*
X6600238Y-12327476D01*
X6543095Y-12327476D01*
X6524048Y-12317952D01*
X6514524Y-12308428D01*
X6733571Y-12327476D02*
X6771667Y-12327476D01*
X6790714Y-12317952D01*
X6800238Y-12308428D01*
X6819286Y-12279857D01*
X6828809Y-12241762D01*
X6828809Y-12165571D01*
X6819286Y-12146524D01*
X6809762Y-12137000D01*
X6790714Y-12127476D01*
X6752619Y-12127476D01*
X6733571Y-12137000D01*
X6724048Y-12146524D01*
X6714524Y-12165571D01*
X6714524Y-12213190D01*
X6724048Y-12232238D01*
X6733571Y-12241762D01*
X6752619Y-12251286D01*
X6790714Y-12251286D01*
X6809762Y-12241762D01*
X6819286Y-12232238D01*
X6828809Y-12213190D01*
X7000238Y-12194143D02*
X7000238Y-12327476D01*
X6952619Y-12117952D02*
X6905000Y-12260809D01*
X7028809Y-12260809D01*
X7095476Y-12127476D02*
X7095476Y-12165571D01*
X7171667Y-12127476D02*
X7171667Y-12165571D01*
X7466905Y-12403667D02*
X7457381Y-12394143D01*
X7438333Y-12365571D01*
X7428809Y-12346524D01*
X7419286Y-12317952D01*
X7409762Y-12270333D01*
X7409762Y-12232238D01*
X7419286Y-12184619D01*
X7428809Y-12156048D01*
X7438333Y-12137000D01*
X7457381Y-12108428D01*
X7466905Y-12098905D01*
X7524048Y-12127476D02*
X7647857Y-12127476D01*
X7581190Y-12203667D01*
X7609762Y-12203667D01*
X7628809Y-12213190D01*
X7638333Y-12222714D01*
X7647857Y-12241762D01*
X7647857Y-12289381D01*
X7638333Y-12308428D01*
X7628809Y-12317952D01*
X7609762Y-12327476D01*
X7552619Y-12327476D01*
X7533571Y-12317952D01*
X7524048Y-12308428D01*
X7819286Y-12127476D02*
X7781190Y-12127476D01*
X7762143Y-12137000D01*
X7752619Y-12146524D01*
X7733571Y-12175095D01*
X7724048Y-12213190D01*
X7724048Y-12289381D01*
X7733571Y-12308428D01*
X7743095Y-12317952D01*
X7762143Y-12327476D01*
X7800238Y-12327476D01*
X7819286Y-12317952D01*
X7828809Y-12308428D01*
X7838333Y-12289381D01*
X7838333Y-12241762D01*
X7828809Y-12222714D01*
X7819286Y-12213190D01*
X7800238Y-12203667D01*
X7762143Y-12203667D01*
X7743095Y-12213190D01*
X7733571Y-12222714D01*
X7724048Y-12241762D01*
X8076428Y-12327476D02*
X8076428Y-12127476D01*
X8162143Y-12327476D02*
X8162143Y-12222714D01*
X8152619Y-12203667D01*
X8133571Y-12194143D01*
X8105000Y-12194143D01*
X8085952Y-12203667D01*
X8076428Y-12213190D01*
X8285952Y-12327476D02*
X8266905Y-12317952D01*
X8257381Y-12308428D01*
X8247857Y-12289381D01*
X8247857Y-12232238D01*
X8257381Y-12213190D01*
X8266905Y-12203667D01*
X8285952Y-12194143D01*
X8314524Y-12194143D01*
X8333571Y-12203667D01*
X8343095Y-12213190D01*
X8352619Y-12232238D01*
X8352619Y-12289381D01*
X8343095Y-12308428D01*
X8333571Y-12317952D01*
X8314524Y-12327476D01*
X8285952Y-12327476D01*
X8466905Y-12327476D02*
X8447857Y-12317952D01*
X8438333Y-12298905D01*
X8438333Y-12127476D01*
X8619286Y-12317952D02*
X8600238Y-12327476D01*
X8562143Y-12327476D01*
X8543095Y-12317952D01*
X8533571Y-12298905D01*
X8533571Y-12222714D01*
X8543095Y-12203667D01*
X8562143Y-12194143D01*
X8600238Y-12194143D01*
X8619286Y-12203667D01*
X8628810Y-12222714D01*
X8628810Y-12241762D01*
X8533571Y-12260809D01*
X8705000Y-12317952D02*
X8724048Y-12327476D01*
X8762143Y-12327476D01*
X8781190Y-12317952D01*
X8790714Y-12298905D01*
X8790714Y-12289381D01*
X8781190Y-12270333D01*
X8762143Y-12260809D01*
X8733571Y-12260809D01*
X8714524Y-12251286D01*
X8705000Y-12232238D01*
X8705000Y-12222714D01*
X8714524Y-12203667D01*
X8733571Y-12194143D01*
X8762143Y-12194143D01*
X8781190Y-12203667D01*
X8857381Y-12403667D02*
X8866905Y-12394143D01*
X8885952Y-12365571D01*
X8895476Y-12346524D01*
X8905000Y-12317952D01*
X8914524Y-12270333D01*
X8914524Y-12232238D01*
X8905000Y-12184619D01*
X8895476Y-12156048D01*
X8885952Y-12137000D01*
X8866905Y-12108428D01*
X8857381Y-12098905D01*
D15*
X3840000Y-12556000D02*
X3895000Y-12501000D01*
X3840000Y-12446000D01*
X3785000Y-12501000D01*
X3840000Y-12556000D01*
D11*
X4257381Y-12591476D02*
X4143095Y-12591476D01*
X4200238Y-12591476D02*
X4200238Y-12391476D01*
X4181190Y-12420048D01*
X4162143Y-12439095D01*
X4143095Y-12448619D01*
X4343095Y-12572428D02*
X4352619Y-12581952D01*
X4343095Y-12591476D01*
X4333571Y-12581952D01*
X4343095Y-12572428D01*
X4343095Y-12591476D01*
X4543095Y-12591476D02*
X4428810Y-12591476D01*
X4485952Y-12591476D02*
X4485952Y-12391476D01*
X4466905Y-12420048D01*
X4447857Y-12439095D01*
X4428810Y-12448619D01*
X4666905Y-12391476D02*
X4685952Y-12391476D01*
X4705000Y-12401000D01*
X4714524Y-12410524D01*
X4724048Y-12429571D01*
X4733571Y-12467667D01*
X4733571Y-12515286D01*
X4724048Y-12553381D01*
X4714524Y-12572428D01*
X4705000Y-12581952D01*
X4685952Y-12591476D01*
X4666905Y-12591476D01*
X4647857Y-12581952D01*
X4638333Y-12572428D01*
X4628810Y-12553381D01*
X4619286Y-12515286D01*
X4619286Y-12467667D01*
X4628810Y-12429571D01*
X4638333Y-12410524D01*
X4647857Y-12401000D01*
X4666905Y-12391476D01*
X4857381Y-12391476D02*
X4876429Y-12391476D01*
X4895476Y-12401000D01*
X4905000Y-12410524D01*
X4914524Y-12429571D01*
X4924048Y-12467667D01*
X4924048Y-12515286D01*
X4914524Y-12553381D01*
X4905000Y-12572428D01*
X4895476Y-12581952D01*
X4876429Y-12591476D01*
X4857381Y-12591476D01*
X4838333Y-12581952D01*
X4828810Y-12572428D01*
X4819286Y-12553381D01*
X4809762Y-12515286D01*
X4809762Y-12467667D01*
X4819286Y-12429571D01*
X4828810Y-12410524D01*
X4838333Y-12401000D01*
X4857381Y-12391476D01*
X5009762Y-12591476D02*
X5009762Y-12458143D01*
X5009762Y-12477190D02*
X5019286Y-12467667D01*
X5038333Y-12458143D01*
X5066905Y-12458143D01*
X5085952Y-12467667D01*
X5095476Y-12486714D01*
X5095476Y-12591476D01*
X5095476Y-12486714D02*
X5105000Y-12467667D01*
X5124048Y-12458143D01*
X5152619Y-12458143D01*
X5171667Y-12467667D01*
X5181190Y-12486714D01*
X5181190Y-12591476D01*
X5276429Y-12591476D02*
X5276429Y-12458143D01*
X5276429Y-12477190D02*
X5285952Y-12467667D01*
X5305000Y-12458143D01*
X5333571Y-12458143D01*
X5352619Y-12467667D01*
X5362143Y-12486714D01*
X5362143Y-12591476D01*
X5362143Y-12486714D02*
X5371667Y-12467667D01*
X5390714Y-12458143D01*
X5419286Y-12458143D01*
X5438333Y-12467667D01*
X5447857Y-12486714D01*
X5447857Y-12591476D01*
X5838333Y-12381952D02*
X5666905Y-12639095D01*
X6095476Y-12391476D02*
X6114524Y-12391476D01*
X6133571Y-12401000D01*
X6143095Y-12410524D01*
X6152619Y-12429571D01*
X6162143Y-12467667D01*
X6162143Y-12515286D01*
X6152619Y-12553381D01*
X6143095Y-12572428D01*
X6133571Y-12581952D01*
X6114524Y-12591476D01*
X6095476Y-12591476D01*
X6076428Y-12581952D01*
X6066905Y-12572428D01*
X6057381Y-12553381D01*
X6047857Y-12515286D01*
X6047857Y-12467667D01*
X6057381Y-12429571D01*
X6066905Y-12410524D01*
X6076428Y-12401000D01*
X6095476Y-12391476D01*
X6247857Y-12572428D02*
X6257381Y-12581952D01*
X6247857Y-12591476D01*
X6238333Y-12581952D01*
X6247857Y-12572428D01*
X6247857Y-12591476D01*
X6381190Y-12391476D02*
X6400238Y-12391476D01*
X6419286Y-12401000D01*
X6428809Y-12410524D01*
X6438333Y-12429571D01*
X6447857Y-12467667D01*
X6447857Y-12515286D01*
X6438333Y-12553381D01*
X6428809Y-12572428D01*
X6419286Y-12581952D01*
X6400238Y-12591476D01*
X6381190Y-12591476D01*
X6362143Y-12581952D01*
X6352619Y-12572428D01*
X6343095Y-12553381D01*
X6333571Y-12515286D01*
X6333571Y-12467667D01*
X6343095Y-12429571D01*
X6352619Y-12410524D01*
X6362143Y-12401000D01*
X6381190Y-12391476D01*
X6619286Y-12458143D02*
X6619286Y-12591476D01*
X6571667Y-12381952D02*
X6524048Y-12524809D01*
X6647857Y-12524809D01*
X6705000Y-12391476D02*
X6828809Y-12391476D01*
X6762143Y-12467667D01*
X6790714Y-12467667D01*
X6809762Y-12477190D01*
X6819286Y-12486714D01*
X6828809Y-12505762D01*
X6828809Y-12553381D01*
X6819286Y-12572428D01*
X6809762Y-12581952D01*
X6790714Y-12591476D01*
X6733571Y-12591476D01*
X6714524Y-12581952D01*
X6705000Y-12572428D01*
X6895476Y-12391476D02*
X7019286Y-12391476D01*
X6952619Y-12467667D01*
X6981190Y-12467667D01*
X7000238Y-12477190D01*
X7009762Y-12486714D01*
X7019286Y-12505762D01*
X7019286Y-12553381D01*
X7009762Y-12572428D01*
X7000238Y-12581952D01*
X6981190Y-12591476D01*
X6924048Y-12591476D01*
X6905000Y-12581952D01*
X6895476Y-12572428D01*
X7095476Y-12391476D02*
X7095476Y-12429571D01*
X7171667Y-12391476D02*
X7171667Y-12429571D01*
X7466905Y-12667667D02*
X7457381Y-12658143D01*
X7438333Y-12629571D01*
X7428809Y-12610524D01*
X7419286Y-12581952D01*
X7409762Y-12534333D01*
X7409762Y-12496238D01*
X7419286Y-12448619D01*
X7428809Y-12420048D01*
X7438333Y-12401000D01*
X7457381Y-12372428D01*
X7466905Y-12362905D01*
X7524048Y-12391476D02*
X7647857Y-12391476D01*
X7581190Y-12467667D01*
X7609762Y-12467667D01*
X7628809Y-12477190D01*
X7638333Y-12486714D01*
X7647857Y-12505762D01*
X7647857Y-12553381D01*
X7638333Y-12572428D01*
X7628809Y-12581952D01*
X7609762Y-12591476D01*
X7552619Y-12591476D01*
X7533571Y-12581952D01*
X7524048Y-12572428D01*
X7828809Y-12391476D02*
X7733571Y-12391476D01*
X7724048Y-12486714D01*
X7733571Y-12477190D01*
X7752619Y-12467667D01*
X7800238Y-12467667D01*
X7819286Y-12477190D01*
X7828809Y-12486714D01*
X7838333Y-12505762D01*
X7838333Y-12553381D01*
X7828809Y-12572428D01*
X7819286Y-12581952D01*
X7800238Y-12591476D01*
X7752619Y-12591476D01*
X7733571Y-12581952D01*
X7724048Y-12572428D01*
X8076428Y-12591476D02*
X8076428Y-12391476D01*
X8162143Y-12591476D02*
X8162143Y-12486714D01*
X8152619Y-12467667D01*
X8133571Y-12458143D01*
X8105000Y-12458143D01*
X8085952Y-12467667D01*
X8076428Y-12477190D01*
X8285952Y-12591476D02*
X8266905Y-12581952D01*
X8257381Y-12572428D01*
X8247857Y-12553381D01*
X8247857Y-12496238D01*
X8257381Y-12477190D01*
X8266905Y-12467667D01*
X8285952Y-12458143D01*
X8314524Y-12458143D01*
X8333571Y-12467667D01*
X8343095Y-12477190D01*
X8352619Y-12496238D01*
X8352619Y-12553381D01*
X8343095Y-12572428D01*
X8333571Y-12581952D01*
X8314524Y-12591476D01*
X8285952Y-12591476D01*
X8466905Y-12591476D02*
X8447857Y-12581952D01*
X8438333Y-12562905D01*
X8438333Y-12391476D01*
X8619286Y-12581952D02*
X8600238Y-12591476D01*
X8562143Y-12591476D01*
X8543095Y-12581952D01*
X8533571Y-12562905D01*
X8533571Y-12486714D01*
X8543095Y-12467667D01*
X8562143Y-12458143D01*
X8600238Y-12458143D01*
X8619286Y-12467667D01*
X8628810Y-12486714D01*
X8628810Y-12505762D01*
X8533571Y-12524809D01*
X8705000Y-12581952D02*
X8724048Y-12591476D01*
X8762143Y-12591476D01*
X8781190Y-12581952D01*
X8790714Y-12562905D01*
X8790714Y-12553381D01*
X8781190Y-12534333D01*
X8762143Y-12524809D01*
X8733571Y-12524809D01*
X8714524Y-12515286D01*
X8705000Y-12496238D01*
X8705000Y-12486714D01*
X8714524Y-12467667D01*
X8733571Y-12458143D01*
X8762143Y-12458143D01*
X8781190Y-12467667D01*
X8857381Y-12667667D02*
X8866905Y-12658143D01*
X8885952Y-12629571D01*
X8895476Y-12610524D01*
X8905000Y-12581952D01*
X8914524Y-12534333D01*
X8914524Y-12496238D01*
X8905000Y-12448619D01*
X8895476Y-12420048D01*
X8885952Y-12401000D01*
X8866905Y-12372428D01*
X8857381Y-12362905D01*
M02*
