M48
; DRILL file {KiCad (6.0.7)} date Mon Jun  5 07:56:53 2023
; FORMAT={-:-/ absolute / metric / decimal}
; #@! TF.CreationDate,2023-06-05T07:56:53+05:30
; #@! TF.GenerationSoftware,Kicad,Pcbnew,(6.0.7)
; #@! TF.FileFunction,Plated,1,2,PTH
FMAT,2
METRIC
; #@! TA.AperFunction,Plated,PTH,ViaDrill
T1C0.400
; #@! TA.AperFunction,Plated,PTH,ComponentDrill
T2C0.800
; #@! TA.AperFunction,Plated,PTH,ComponentDrill
T3C0.950
; #@! TA.AperFunction,Plated,PTH,ComponentDrill
T4C1.000
; #@! TA.AperFunction,Plated,PTH,ComponentDrill
T5C1.100
%
G90
G05
T1
X59.203Y-92.5
X61.703Y-94.0
X64.203Y-94.5
X66.453Y-95.75
X76.703Y-69.25
X76.703Y-81.25
X83.703Y-67.25
X83.703Y-82.25
X93.703Y-82.25
X93.828Y-65.125
X108.453Y-86.0
X110.703Y-51.75
X110.703Y-73.25
X127.703Y-92.25
X132.202Y-57.0
X134.952Y-57.25
X136.702Y-47.75
X137.452Y-67.5
X137.6Y-91.15
X138.202Y-49.25
X139.702Y-67.5
X147.452Y-67.25
X151.202Y-87.25
X152.55Y-67.15
X155.952Y-85.75
X168.702Y-42.25
X169.7Y-55.65
X169.702Y-67.25
X169.702Y-79.25
X178.452Y-66.75
X181.452Y-80.5
X181.702Y-67.0
X184.952Y-74.5
X188.952Y-76.5
X218.452Y-101.0
X225.702Y-103.25
X227.702Y-61.5
X228.65Y-96.5
X228.702Y-67.25
X236.452Y-70.0
T2
X63.703Y-65.125
X64.953Y-73.17
X64.953Y-83.33
X66.203Y-65.125
X66.703Y-51.75
X66.703Y-56.75
X71.703Y-65.25
X72.703Y-73.17
X72.703Y-83.33
X74.203Y-65.25
X79.453Y-65.125
X80.453Y-73.17
X80.453Y-83.33
X81.953Y-65.125
X87.703Y-65.125
X88.703Y-73.17
X88.703Y-83.33
X90.203Y-65.125
X99.953Y-51.75
X99.953Y-54.25
X134.202Y-89.42
X134.202Y-99.58
X140.202Y-89.42
X140.202Y-99.58
X153.123Y-90.5
X163.282Y-90.5
X171.123Y-90.5
X181.282Y-90.5
X193.935Y-53.725
X193.935Y-56.265
X193.935Y-58.805
X193.935Y-83.725
X193.935Y-86.265
X193.935Y-88.805
X201.555Y-53.725
X201.555Y-56.265
X201.555Y-58.805
X201.555Y-83.725
X201.555Y-86.265
X201.555Y-88.805
X233.702Y-51.318
X233.702Y-53.818
X233.702Y-81.25
X233.702Y-83.75
T3
X53.453Y-98.975
X55.953Y-98.975
X58.453Y-98.975
X60.953Y-98.975
X63.453Y-98.975
X65.953Y-98.975
X68.453Y-98.975
X70.953Y-98.975
X73.453Y-98.975
X75.953Y-98.975
X110.953Y-96.975
X113.453Y-96.975
X115.953Y-96.975
X118.453Y-96.975
X120.953Y-96.975
X123.453Y-96.975
X142.477Y-51.75
X142.477Y-54.25
X142.477Y-56.75
X243.927Y-82.0
X243.927Y-84.5
X243.927Y-87.0
X243.927Y-89.5
X244.177Y-62.5
X244.177Y-65.0
X244.177Y-67.5
X244.177Y-70.0
T4
X54.703Y-46.75
X54.703Y-49.25
X127.192Y-64.64
X127.192Y-79.88
X129.732Y-64.64
X129.732Y-79.88
X132.273Y-64.64
X132.273Y-79.88
X134.812Y-64.64
X134.812Y-79.88
X137.352Y-64.64
X137.352Y-79.88
X139.892Y-64.64
X139.892Y-79.88
X142.433Y-64.64
X142.433Y-79.88
X144.972Y-64.64
X144.972Y-79.88
X147.512Y-64.64
X147.512Y-79.88
X150.052Y-64.64
X150.052Y-79.88
X152.593Y-64.64
X152.593Y-79.88
X155.132Y-64.64
X155.132Y-79.88
X157.672Y-64.64
X157.672Y-79.88
X157.702Y-96.5
X160.202Y-96.5
X160.213Y-64.64
X160.213Y-79.88
X162.752Y-64.64
X162.752Y-79.88
X175.202Y-96.5
X177.702Y-96.5
T5
X89.703Y-51.67
X89.703Y-54.21
X89.703Y-56.75
X212.352Y-51.36
X212.352Y-53.9
X212.352Y-56.44
X212.352Y-58.98
X212.352Y-61.52
X212.352Y-64.06
X212.352Y-66.6
X212.352Y-69.14
X212.352Y-81.36
X212.352Y-83.9
X212.352Y-86.44
X212.352Y-88.98
X212.352Y-91.52
X212.352Y-94.06
X212.352Y-96.6
X212.352Y-99.14
X225.052Y-51.36
X225.052Y-53.9
X225.052Y-56.44
X225.052Y-58.98
X225.052Y-61.52
X225.052Y-64.06
X225.052Y-66.6
X225.052Y-69.14
X225.052Y-81.36
X225.052Y-83.9
X225.052Y-86.44
X225.052Y-88.98
X225.052Y-91.52
X225.052Y-94.06
X225.052Y-96.6
X225.052Y-99.14
T0
M30
