%TF.GenerationSoftware,KiCad,Pcbnew,(6.0.7)*%
%TF.CreationDate,2023-06-05T07:56:33+05:30*%
%TF.ProjectId,acpm-arduino_motor_part,6163706d-2d61-4726-9475-696e6f5f6d6f,rev?*%
%TF.SameCoordinates,Original*%
%TF.FileFunction,Copper,L2,Bot*%
%TF.FilePolarity,Positive*%
%FSLAX46Y46*%
G04 Gerber Fmt 4.6, Leading zero omitted, Abs format (unit mm)*
G04 Created by KiCad (PCBNEW (6.0.7)) date 2023-06-05 07:56:33*
%MOMM*%
%LPD*%
G01*
G04 APERTURE LIST*
G04 Aperture macros list*
%AMRoundRect*
0 Rectangle with rounded corners*
0 $1 Rounding radius*
0 $2 $3 $4 $5 $6 $7 $8 $9 X,Y pos of 4 corners*
0 Add a 4 corners polygon primitive as box body*
4,1,4,$2,$3,$4,$5,$6,$7,$8,$9,$2,$3,0*
0 Add four circle primitives for the rounded corners*
1,1,$1+$1,$2,$3*
1,1,$1+$1,$4,$5*
1,1,$1+$1,$6,$7*
1,1,$1+$1,$8,$9*
0 Add four rect primitives between the rounded corners*
20,1,$1+$1,$2,$3,$4,$5,0*
20,1,$1+$1,$4,$5,$6,$7,0*
20,1,$1+$1,$6,$7,$8,$9,0*
20,1,$1+$1,$8,$9,$2,$3,0*%
G04 Aperture macros list end*
%TA.AperFunction,Profile*%
%ADD10C,0.100000*%
%TD*%
%TA.AperFunction,ComponentPad*%
%ADD11RoundRect,0.250000X-0.600000X-0.725000X0.600000X-0.725000X0.600000X0.725000X-0.600000X0.725000X0*%
%TD*%
%TA.AperFunction,ComponentPad*%
%ADD12O,1.700000X1.950000*%
%TD*%
%TA.AperFunction,ComponentPad*%
%ADD13RoundRect,0.250000X0.725000X-0.600000X0.725000X0.600000X-0.725000X0.600000X-0.725000X-0.600000X0*%
%TD*%
%TA.AperFunction,ComponentPad*%
%ADD14O,1.950000X1.700000*%
%TD*%
%TA.AperFunction,ComponentPad*%
%ADD15R,1.650000X1.650000*%
%TD*%
%TA.AperFunction,ComponentPad*%
%ADD16C,1.650000*%
%TD*%
%TA.AperFunction,ComponentPad*%
%ADD17RoundRect,0.250000X-0.750000X0.600000X-0.750000X-0.600000X0.750000X-0.600000X0.750000X0.600000X0*%
%TD*%
%TA.AperFunction,ComponentPad*%
%ADD18O,2.000000X1.700000*%
%TD*%
%TA.AperFunction,ComponentPad*%
%ADD19C,1.600000*%
%TD*%
%TA.AperFunction,ComponentPad*%
%ADD20R,1.600000X1.600000*%
%TD*%
%TA.AperFunction,ComponentPad*%
%ADD21O,1.600000X1.600000*%
%TD*%
%TA.AperFunction,ComponentPad*%
%ADD22R,2.000000X1.905000*%
%TD*%
%TA.AperFunction,ComponentPad*%
%ADD23O,2.000000X1.905000*%
%TD*%
%TA.AperFunction,ComponentPad*%
%ADD24RoundRect,0.250000X-0.600000X-0.750000X0.600000X-0.750000X0.600000X0.750000X-0.600000X0.750000X0*%
%TD*%
%TA.AperFunction,ComponentPad*%
%ADD25O,1.700000X2.000000*%
%TD*%
%TA.AperFunction,ComponentPad*%
%ADD26RoundRect,0.250000X-0.725000X0.600000X-0.725000X-0.600000X0.725000X-0.600000X0.725000X0.600000X0*%
%TD*%
%TA.AperFunction,ViaPad*%
%ADD27C,0.800000*%
%TD*%
%TA.AperFunction,Conductor*%
%ADD28C,0.500000*%
%TD*%
%TA.AperFunction,Conductor*%
%ADD29C,0.250000*%
%TD*%
%TA.AperFunction,Conductor*%
%ADD30C,1.000000*%
%TD*%
%TA.AperFunction,Conductor*%
%ADD31C,1.500000*%
%TD*%
G04 APERTURE END LIST*
D10*
X39000000Y-38000000D02*
X259000000Y-38000000D01*
X259000000Y-38000000D02*
X259000000Y-108000000D01*
X259000000Y-108000000D02*
X39000000Y-108000000D01*
X39000000Y-108000000D02*
X39000000Y-38000000D01*
D11*
%TO.P,J8,1,Pin_1*%
%TO.N,/12V*%
X53452500Y-98975000D03*
D12*
%TO.P,J8,2,Pin_2*%
%TO.N,/GND*%
X55952500Y-98975000D03*
%TO.P,J8,3,Pin_3*%
%TO.N,Net-(A1-Pad11)*%
X58452500Y-98975000D03*
%TO.P,J8,4,Pin_4*%
%TO.N,Net-(A1-Pad10)*%
X60952500Y-98975000D03*
%TO.P,J8,5,Pin_5*%
%TO.N,Net-(A1-Pad7)*%
X63452500Y-98975000D03*
%TO.P,J8,6,Pin_6*%
%TO.N,Net-(A1-Pad5)*%
X65952500Y-98975000D03*
%TO.P,J8,7,Pin_7*%
%TO.N,Net-(A1-Pad19)*%
X68452500Y-98975000D03*
%TO.P,J8,8,Pin_8*%
%TO.N,Net-(A1-Pad20)*%
X70952500Y-98975000D03*
%TO.P,J8,9,Pin_9*%
%TO.N,Net-(A1-Pad21)*%
X73452500Y-98975000D03*
%TO.P,J8,10,Pin_10*%
%TO.N,Net-(A1-Pad22)*%
X75952500Y-98975000D03*
%TD*%
D13*
%TO.P,J2,1,Pin_1*%
%TO.N,Net-(J2-Pad1)*%
X244177500Y-70000000D03*
D14*
%TO.P,J2,2,Pin_2*%
%TO.N,Net-(J2-Pad2)*%
X244177500Y-67500000D03*
%TO.P,J2,3,Pin_3*%
%TO.N,Net-(J2-Pad3)*%
X244177500Y-65000000D03*
%TO.P,J2,4,Pin_4*%
%TO.N,Net-(J2-Pad4)*%
X244177500Y-62500000D03*
%TD*%
D15*
%TO.P,U2,1,~{EN}*%
%TO.N,unconnected-(U2-Pad1)*%
X212352500Y-51360000D03*
D16*
%TO.P,U2,2,M0*%
%TO.N,Net-(SW2-Pad6)*%
X212352500Y-53900000D03*
%TO.P,U2,3,M1*%
%TO.N,Net-(SW2-Pad5)*%
X212352500Y-56440000D03*
%TO.P,U2,4,M2*%
%TO.N,Net-(SW2-Pad4)*%
X212352500Y-58980000D03*
%TO.P,U2,5,~{RST}*%
%TO.N,Net-(U2-Pad5)*%
X212352500Y-61520000D03*
%TO.P,U2,6,~{SLP}*%
X212352500Y-64060000D03*
%TO.P,U2,7,STEP*%
%TO.N,Net-(A1-Pad9)*%
X212352500Y-66600000D03*
%TO.P,U2,8,DIR*%
%TO.N,Net-(A1-Pad15)*%
X212352500Y-69140000D03*
%TO.P,U2,9,GND*%
%TO.N,/GND*%
X225052500Y-69140000D03*
%TO.P,U2,10,~{FLT}*%
%TO.N,Net-(A1-Pad27)*%
X225052500Y-66600000D03*
%TO.P,U2,11,A2*%
%TO.N,Net-(J2-Pad2)*%
X225052500Y-64060000D03*
%TO.P,U2,12,A1*%
%TO.N,Net-(J2-Pad1)*%
X225052500Y-61520000D03*
%TO.P,U2,13,B1*%
%TO.N,Net-(J2-Pad3)*%
X225052500Y-58980000D03*
%TO.P,U2,14,B2*%
%TO.N,Net-(J2-Pad4)*%
X225052500Y-56440000D03*
%TO.P,U2,15,GND_MOT*%
%TO.N,/GND*%
X225052500Y-53900000D03*
%TO.P,U2,16,VMOT*%
%TO.N,/12V*%
X225052500Y-51360000D03*
%TD*%
D17*
%TO.P,J7,1,Pin_1*%
%TO.N,/12V*%
X54702500Y-46750000D03*
D18*
%TO.P,J7,2,Pin_2*%
%TO.N,/GND*%
X54702500Y-49250000D03*
%TD*%
D19*
%TO.P,C7,1*%
%TO.N,/12V*%
X66702500Y-56750000D03*
%TO.P,C7,2*%
%TO.N,/GND*%
X66702500Y-51750000D03*
%TD*%
D13*
%TO.P,J1,1,Pin_1*%
%TO.N,Net-(J1-Pad1)*%
X243927500Y-89500000D03*
D14*
%TO.P,J1,2,Pin_2*%
%TO.N,Net-(J1-Pad2)*%
X243927500Y-87000000D03*
%TO.P,J1,3,Pin_3*%
%TO.N,Net-(J1-Pad3)*%
X243927500Y-84500000D03*
%TO.P,J1,4,Pin_4*%
%TO.N,Net-(J1-Pad4)*%
X243927500Y-82000000D03*
%TD*%
D19*
%TO.P,C5,1*%
%TO.N,Net-(A1-Pad21)*%
X81952500Y-65125000D03*
%TO.P,C5,2*%
%TO.N,/GND*%
X79452500Y-65125000D03*
%TD*%
D20*
%TO.P,A1,1,D1/TX*%
%TO.N,unconnected-(A1-Pad1)*%
X162752500Y-64640000D03*
D21*
%TO.P,A1,2,D0/RX*%
%TO.N,unconnected-(A1-Pad2)*%
X160212500Y-64640000D03*
%TO.P,A1,3,~{RESET}*%
%TO.N,unconnected-(A1-Pad3)*%
X157672500Y-64640000D03*
%TO.P,A1,4,GND*%
%TO.N,/GND*%
X155132500Y-64640000D03*
%TO.P,A1,5,D2*%
%TO.N,Net-(A1-Pad5)*%
X152592500Y-64640000D03*
%TO.P,A1,6,D3*%
%TO.N,/Sig*%
X150052500Y-64640000D03*
%TO.P,A1,7,D4*%
%TO.N,Net-(A1-Pad7)*%
X147512500Y-64640000D03*
%TO.P,A1,8,D5*%
%TO.N,Net-(A1-Pad8)*%
X144972500Y-64640000D03*
%TO.P,A1,9,D6*%
%TO.N,Net-(A1-Pad9)*%
X142432500Y-64640000D03*
%TO.P,A1,10,D7*%
%TO.N,Net-(A1-Pad10)*%
X139892500Y-64640000D03*
%TO.P,A1,11,D8*%
%TO.N,Net-(A1-Pad11)*%
X137352500Y-64640000D03*
%TO.P,A1,12,D9*%
%TO.N,Net-(A1-Pad12)*%
X134812500Y-64640000D03*
%TO.P,A1,13,D10*%
%TO.N,Net-(A1-Pad13)*%
X132272500Y-64640000D03*
%TO.P,A1,14,D11*%
%TO.N,Net-(A1-Pad14)*%
X129732500Y-64640000D03*
%TO.P,A1,15,D12*%
%TO.N,Net-(A1-Pad15)*%
X127192500Y-64640000D03*
%TO.P,A1,16,D13*%
%TO.N,unconnected-(A1-Pad16)*%
X127192500Y-79880000D03*
%TO.P,A1,17,3V3*%
%TO.N,unconnected-(A1-Pad17)*%
X129732500Y-79880000D03*
%TO.P,A1,18,AREF*%
%TO.N,unconnected-(A1-Pad18)*%
X132272500Y-79880000D03*
%TO.P,A1,19,A0*%
%TO.N,Net-(A1-Pad19)*%
X134812500Y-79880000D03*
%TO.P,A1,20,A1*%
%TO.N,Net-(A1-Pad20)*%
X137352500Y-79880000D03*
%TO.P,A1,21,A2*%
%TO.N,Net-(A1-Pad21)*%
X139892500Y-79880000D03*
%TO.P,A1,22,A3*%
%TO.N,Net-(A1-Pad22)*%
X142432500Y-79880000D03*
%TO.P,A1,23,A4*%
%TO.N,/SDA*%
X144972500Y-79880000D03*
%TO.P,A1,24,A5*%
%TO.N,/SCL*%
X147512500Y-79880000D03*
%TO.P,A1,25,A6*%
%TO.N,/SW1*%
X150052500Y-79880000D03*
%TO.P,A1,26,A7*%
%TO.N,/SW2*%
X152592500Y-79880000D03*
%TO.P,A1,27,+5V*%
%TO.N,Net-(A1-Pad27)*%
X155132500Y-79880000D03*
%TO.P,A1,28,~{RESET}*%
%TO.N,unconnected-(A1-Pad28)*%
X157672500Y-79880000D03*
%TO.P,A1,29,GND*%
%TO.N,/GND*%
X160212500Y-79880000D03*
%TO.P,A1,30,VIN*%
%TO.N,/12V*%
X162752500Y-79880000D03*
%TD*%
D22*
%TO.P,U3,1,VI*%
%TO.N,/12V*%
X89702500Y-56750000D03*
D23*
%TO.P,U3,2,GND*%
%TO.N,/GND*%
X89702500Y-54210000D03*
%TO.P,U3,3,VO*%
%TO.N,Net-(C8-Pad1)*%
X89702500Y-51670000D03*
%TD*%
D19*
%TO.P,C3,1*%
%TO.N,Net-(A1-Pad19)*%
X66202500Y-65125000D03*
%TO.P,C3,2*%
%TO.N,/GND*%
X63702500Y-65125000D03*
%TD*%
%TO.P,R2,1*%
%TO.N,Net-(A1-Pad27)*%
X72702500Y-73170000D03*
D21*
%TO.P,R2,2*%
%TO.N,Net-(A1-Pad20)*%
X72702500Y-83330000D03*
%TD*%
D19*
%TO.P,C8,1*%
%TO.N,Net-(C8-Pad1)*%
X99952500Y-51750000D03*
%TO.P,C8,2*%
%TO.N,/GND*%
X99952500Y-54250000D03*
%TD*%
%TO.P,R6,1*%
%TO.N,/SW2*%
X140202500Y-89420000D03*
D21*
%TO.P,R6,2*%
%TO.N,/GND*%
X140202500Y-99580000D03*
%TD*%
D11*
%TO.P,J3,1,Pin_1*%
%TO.N,Net-(C8-Pad1)*%
X110952500Y-96975000D03*
D12*
%TO.P,J3,2,Pin_2*%
%TO.N,/GND*%
X113452500Y-96975000D03*
%TO.P,J3,3,Pin_3*%
%TO.N,/SDA*%
X115952500Y-96975000D03*
%TO.P,J3,4,Pin_4*%
%TO.N,/SCL*%
X118452500Y-96975000D03*
%TO.P,J3,5,Pin_5*%
%TO.N,/SW1*%
X120952500Y-96975000D03*
%TO.P,J3,6,Pin_6*%
%TO.N,/SW2*%
X123452500Y-96975000D03*
%TD*%
D19*
%TO.P,C6,1*%
%TO.N,Net-(A1-Pad22)*%
X90202500Y-65125000D03*
%TO.P,C6,2*%
%TO.N,/GND*%
X87702500Y-65125000D03*
%TD*%
%TO.P,R4,1*%
%TO.N,Net-(A1-Pad27)*%
X88702500Y-73170000D03*
D21*
%TO.P,R4,2*%
%TO.N,Net-(A1-Pad22)*%
X88702500Y-83330000D03*
%TD*%
D24*
%TO.P,J4,1,Pin_1*%
%TO.N,Net-(A1-Pad27)*%
X157702500Y-96500000D03*
D25*
%TO.P,J4,2,Pin_2*%
%TO.N,Net-(A1-Pad12)*%
X160202500Y-96500000D03*
%TD*%
D20*
%TO.P,SW2,1*%
%TO.N,Net-(A1-Pad27)*%
X193935000Y-53725000D03*
D21*
%TO.P,SW2,2*%
X193935000Y-56265000D03*
%TO.P,SW2,3*%
X193935000Y-58805000D03*
%TO.P,SW2,4*%
%TO.N,Net-(SW2-Pad4)*%
X201555000Y-58805000D03*
%TO.P,SW2,5*%
%TO.N,Net-(SW2-Pad5)*%
X201555000Y-56265000D03*
%TO.P,SW2,6*%
%TO.N,Net-(SW2-Pad6)*%
X201555000Y-53725000D03*
%TD*%
D19*
%TO.P,C4,1*%
%TO.N,Net-(A1-Pad20)*%
X74202500Y-65250000D03*
%TO.P,C4,2*%
%TO.N,/GND*%
X71702500Y-65250000D03*
%TD*%
%TO.P,R5,1*%
%TO.N,/SW1*%
X134202500Y-89420000D03*
D21*
%TO.P,R5,2*%
%TO.N,/GND*%
X134202500Y-99580000D03*
%TD*%
D19*
%TO.P,R1,1*%
%TO.N,Net-(A1-Pad27)*%
X64952500Y-73170000D03*
D21*
%TO.P,R1,2*%
%TO.N,Net-(A1-Pad19)*%
X64952500Y-83330000D03*
%TD*%
D19*
%TO.P,R8,1*%
%TO.N,Net-(A1-Pad13)*%
X181282500Y-90500000D03*
D21*
%TO.P,R8,2*%
%TO.N,/GND*%
X171122500Y-90500000D03*
%TD*%
D24*
%TO.P,J5,1,Pin_1*%
%TO.N,Net-(A1-Pad27)*%
X175202500Y-96500000D03*
D25*
%TO.P,J5,2,Pin_2*%
%TO.N,Net-(A1-Pad13)*%
X177702500Y-96500000D03*
%TD*%
D20*
%TO.P,SW1,1*%
%TO.N,Net-(A1-Pad27)*%
X193935000Y-83725000D03*
D21*
%TO.P,SW1,2*%
X193935000Y-86265000D03*
%TO.P,SW1,3*%
X193935000Y-88805000D03*
%TO.P,SW1,4*%
%TO.N,Net-(SW1-Pad4)*%
X201555000Y-88805000D03*
%TO.P,SW1,5*%
%TO.N,Net-(SW1-Pad5)*%
X201555000Y-86265000D03*
%TO.P,SW1,6*%
%TO.N,Net-(SW1-Pad6)*%
X201555000Y-83725000D03*
%TD*%
D26*
%TO.P,J6,1,Pin_1*%
%TO.N,Net-(C8-Pad1)*%
X142477500Y-51750000D03*
D14*
%TO.P,J6,2,Pin_2*%
%TO.N,/GND*%
X142477500Y-54250000D03*
%TO.P,J6,3,Pin_3*%
%TO.N,/Sig*%
X142477500Y-56750000D03*
%TD*%
D20*
%TO.P,C1,1*%
%TO.N,/12V*%
X233702500Y-81250000D03*
D19*
%TO.P,C1,2*%
%TO.N,/GND*%
X233702500Y-83750000D03*
%TD*%
D15*
%TO.P,U1,1,~{EN}*%
%TO.N,unconnected-(U1-Pad1)*%
X212352500Y-81360000D03*
D16*
%TO.P,U1,2,M0*%
%TO.N,Net-(SW1-Pad6)*%
X212352500Y-83900000D03*
%TO.P,U1,3,M1*%
%TO.N,Net-(SW1-Pad5)*%
X212352500Y-86440000D03*
%TO.P,U1,4,M2*%
%TO.N,Net-(SW1-Pad4)*%
X212352500Y-88980000D03*
%TO.P,U1,5,~{RST}*%
%TO.N,Net-(U1-Pad5)*%
X212352500Y-91520000D03*
%TO.P,U1,6,~{SLP}*%
X212352500Y-94060000D03*
%TO.P,U1,7,STEP*%
%TO.N,Net-(A1-Pad8)*%
X212352500Y-96600000D03*
%TO.P,U1,8,DIR*%
%TO.N,Net-(A1-Pad14)*%
X212352500Y-99140000D03*
%TO.P,U1,9,GND*%
%TO.N,/GND*%
X225052500Y-99140000D03*
%TO.P,U1,10,~{FLT}*%
%TO.N,Net-(A1-Pad27)*%
X225052500Y-96600000D03*
%TO.P,U1,11,A2*%
%TO.N,Net-(J1-Pad2)*%
X225052500Y-94060000D03*
%TO.P,U1,12,A1*%
%TO.N,Net-(J1-Pad1)*%
X225052500Y-91520000D03*
%TO.P,U1,13,B1*%
%TO.N,Net-(J1-Pad3)*%
X225052500Y-88980000D03*
%TO.P,U1,14,B2*%
%TO.N,Net-(J1-Pad4)*%
X225052500Y-86440000D03*
%TO.P,U1,15,GND_MOT*%
%TO.N,/GND*%
X225052500Y-83900000D03*
%TO.P,U1,16,VMOT*%
%TO.N,/12V*%
X225052500Y-81360000D03*
%TD*%
D19*
%TO.P,R3,1*%
%TO.N,Net-(A1-Pad27)*%
X80452500Y-73170000D03*
D21*
%TO.P,R3,2*%
%TO.N,Net-(A1-Pad21)*%
X80452500Y-83330000D03*
%TD*%
D19*
%TO.P,R7,1*%
%TO.N,Net-(A1-Pad12)*%
X153122500Y-90500000D03*
D21*
%TO.P,R7,2*%
%TO.N,/GND*%
X163282500Y-90500000D03*
%TD*%
D20*
%TO.P,C2,1*%
%TO.N,/12V*%
X233702500Y-51317621D03*
D19*
%TO.P,C2,2*%
%TO.N,/GND*%
X233702500Y-53817621D03*
%TD*%
D27*
%TO.N,Net-(A1-Pad5)*%
X66452500Y-95750000D03*
X152550000Y-67150000D03*
%TO.N,Net-(A1-Pad7)*%
X64202500Y-94500000D03*
X147452500Y-67250000D03*
%TO.N,Net-(A1-Pad8)*%
X188952500Y-76500000D03*
X184952500Y-74500000D03*
%TO.N,Net-(A1-Pad10)*%
X139702500Y-67500000D03*
X61702500Y-94000000D03*
%TO.N,Net-(A1-Pad12)*%
X134952500Y-57250000D03*
X178452500Y-66750000D03*
X155952500Y-85750000D03*
X138202500Y-49250000D03*
%TO.N,Net-(A1-Pad13)*%
X181702500Y-67000000D03*
X181452500Y-80500000D03*
X132202500Y-57000000D03*
X136702500Y-47750000D03*
%TO.N,Net-(A1-Pad20)*%
X76702500Y-69250000D03*
X76702500Y-81250000D03*
%TO.N,Net-(A1-Pad21)*%
X83702500Y-82250000D03*
X83702500Y-67250000D03*
%TO.N,Net-(A1-Pad22)*%
X93702500Y-82250000D03*
X93827500Y-65125000D03*
%TO.N,/SW2*%
X127702500Y-92250000D03*
X137600000Y-91150000D03*
%TO.N,/12V*%
X169700000Y-55650000D03*
X169702500Y-79250000D03*
X169702500Y-67250000D03*
X168702500Y-42250000D03*
%TO.N,Net-(C8-Pad1)*%
X110702500Y-73250000D03*
X110702500Y-51750000D03*
%TO.N,Net-(J2-Pad1)*%
X236452500Y-70000000D03*
X227702500Y-61500000D03*
%TO.N,Net-(A1-Pad27)*%
X228702500Y-67250000D03*
X151202500Y-87250000D03*
X108452500Y-86000000D03*
X218452500Y-101000000D03*
X225702500Y-103250000D03*
X228650000Y-96500000D03*
%TO.N,Net-(A1-Pad11)*%
X137452500Y-67500000D03*
X59202500Y-92500000D03*
%TD*%
D28*
%TO.N,Net-(A1-Pad19)*%
X62782500Y-83330000D02*
X64952500Y-83330000D01*
X61702500Y-82250000D02*
X62782500Y-83330000D01*
X61702500Y-72247500D02*
X61702500Y-82250000D01*
X66202500Y-67747500D02*
X61702500Y-72247500D01*
X66202500Y-66750000D02*
X66202500Y-67747500D01*
%TO.N,Net-(A1-Pad5)*%
X152592500Y-64640000D02*
X152592500Y-67257500D01*
D29*
X152550000Y-67300000D02*
X152550000Y-67152500D01*
D30*
%TO.N,/12V*%
X169702500Y-55652500D02*
X169700000Y-55650000D01*
X169702500Y-67250000D02*
X169702500Y-55652500D01*
D28*
%TO.N,/SCL*%
X147512500Y-83440000D02*
X147512500Y-79880000D01*
X145252500Y-85700000D02*
X147512500Y-83440000D01*
X118452500Y-93897500D02*
X126650000Y-85700000D01*
X126650000Y-85700000D02*
X145252500Y-85700000D01*
X118452500Y-96975000D02*
X118452500Y-93897500D01*
%TO.N,/SW1*%
X120952500Y-93547500D02*
X120952500Y-96975000D01*
X125080000Y-89420000D02*
X120952500Y-93547500D01*
X134202500Y-89420000D02*
X125080000Y-89420000D01*
%TO.N,/SW2*%
X139330000Y-89420000D02*
X140202500Y-89420000D01*
X137600000Y-91150000D02*
X139330000Y-89420000D01*
%TO.N,Net-(A1-Pad27)*%
X227702500Y-103250000D02*
X225702500Y-103250000D01*
X229702500Y-97552500D02*
X229702500Y-101250000D01*
X228650000Y-96500000D02*
X229702500Y-97552500D01*
X229702500Y-101250000D02*
X227702500Y-103250000D01*
%TO.N,Net-(A1-Pad19)*%
X68322500Y-86700000D02*
X64952500Y-83330000D01*
X68322500Y-98845000D02*
X68322500Y-86700000D01*
X68452500Y-98975000D02*
X68322500Y-98845000D01*
%TO.N,Net-(A1-Pad20)*%
X70862500Y-98885000D02*
X70952500Y-98975000D01*
X70862500Y-87410000D02*
X70862500Y-98885000D01*
%TO.N,Net-(A1-Pad21)*%
X73402500Y-92550000D02*
X80452500Y-85500000D01*
X73402500Y-98925000D02*
X73402500Y-92550000D01*
X80452500Y-85500000D02*
X80452500Y-83330000D01*
X73452500Y-98975000D02*
X73402500Y-98925000D01*
%TO.N,Net-(A1-Pad22)*%
X75942500Y-98965000D02*
X75952500Y-98975000D01*
X80952500Y-87250000D02*
X75942500Y-92260000D01*
X75942500Y-92260000D02*
X75942500Y-98965000D01*
X87702500Y-87250000D02*
X80952500Y-87250000D01*
X88702500Y-86250000D02*
X87702500Y-87250000D01*
X88702500Y-83330000D02*
X88702500Y-86250000D01*
%TO.N,Net-(A1-Pad20)*%
X134202500Y-75750000D02*
X137352500Y-78900000D01*
X125202500Y-75750000D02*
X134202500Y-75750000D01*
X118702500Y-69250000D02*
X125202500Y-75750000D01*
X137352500Y-78900000D02*
X137352500Y-79880000D01*
%TO.N,Net-(A1-Pad21)*%
X135802500Y-74350000D02*
X126802500Y-74350000D01*
X139892500Y-79880000D02*
X139892500Y-78440000D01*
X139892500Y-78440000D02*
X135802500Y-74350000D01*
X126802500Y-74350000D02*
X119702500Y-67250000D01*
%TO.N,Net-(A1-Pad22)*%
X142432500Y-77980000D02*
X142432500Y-79880000D01*
X137452500Y-73000000D02*
X142432500Y-77980000D01*
X127452500Y-73000000D02*
X137452500Y-73000000D01*
X119577500Y-65125000D02*
X127452500Y-73000000D01*
%TO.N,Net-(A1-Pad27)*%
X228650000Y-96600000D02*
X225052500Y-96600000D01*
D31*
%TO.N,/12V*%
X249952500Y-75250000D02*
X239952500Y-75250000D01*
X239952500Y-75250000D02*
X233842500Y-81360000D01*
X249770121Y-51317621D02*
X251452500Y-53000000D01*
X251452500Y-53000000D02*
X251452500Y-73750000D01*
X233842500Y-81360000D02*
X225052500Y-81360000D01*
X225094879Y-51317621D02*
X249770121Y-51317621D01*
X251452500Y-73750000D02*
X249952500Y-75250000D01*
X225052500Y-51360000D02*
X225094879Y-51317621D01*
D28*
%TO.N,Net-(A1-Pad27)*%
X218452500Y-101000000D02*
X216702500Y-99250000D01*
X193935000Y-51017500D02*
X193935000Y-53725000D01*
X214702500Y-48250000D02*
X196702500Y-48250000D01*
X216702500Y-50250000D02*
X214702500Y-48250000D01*
X196702500Y-48250000D02*
X193935000Y-51017500D01*
X216702500Y-99250000D02*
X216702500Y-50250000D01*
%TO.N,Net-(A1-Pad13)*%
X181702500Y-52250000D02*
X181702500Y-67000000D01*
X177202500Y-47750000D02*
X181702500Y-52250000D01*
X136702500Y-47750000D02*
X177202500Y-47750000D01*
%TO.N,Net-(A1-Pad12)*%
X178452500Y-52500000D02*
X178452500Y-66750000D01*
X138202500Y-49250000D02*
X175202500Y-49250000D01*
X175202500Y-49250000D02*
X178452500Y-52500000D01*
%TO.N,/GND*%
X91662500Y-54210000D02*
X92952500Y-55500000D01*
X92952500Y-55500000D02*
X92952500Y-61125000D01*
D29*
X89702500Y-54210000D02*
X91662500Y-54210000D01*
D28*
X92952500Y-61125000D02*
X91952500Y-62125000D01*
X91952500Y-62125000D02*
X89952500Y-62125000D01*
%TO.N,Net-(A1-Pad15)*%
X129452500Y-71000000D02*
X127192500Y-68740000D01*
X203952500Y-71000000D02*
X129452500Y-71000000D01*
X205812500Y-69140000D02*
X203952500Y-71000000D01*
X212352500Y-69140000D02*
X205812500Y-69140000D01*
X127192500Y-68740000D02*
X127192500Y-64640000D01*
%TO.N,Net-(A1-Pad11)*%
X58452500Y-93250000D02*
X58452500Y-98975000D01*
X59202500Y-92500000D02*
X58452500Y-93250000D01*
%TO.N,Net-(A1-Pad10)*%
X60952500Y-94750000D02*
X60952500Y-98975000D01*
X61702500Y-94000000D02*
X60952500Y-94750000D01*
%TO.N,Net-(A1-Pad7)*%
X64202500Y-94500000D02*
X63452500Y-95250000D01*
X63452500Y-95250000D02*
X63452500Y-98975000D01*
%TO.N,Net-(A1-Pad5)*%
X66452500Y-95750000D02*
X65952500Y-96250000D01*
X65952500Y-96250000D02*
X65952500Y-98975000D01*
D30*
%TO.N,/12V*%
X48702500Y-96250000D02*
X51427500Y-98975000D01*
X51427500Y-98975000D02*
X53452500Y-98975000D01*
X48702500Y-58750000D02*
X48702500Y-96250000D01*
X50702500Y-56750000D02*
X48702500Y-58750000D01*
%TO.N,/GND*%
X55952500Y-102250000D02*
X55952500Y-98975000D01*
X115452500Y-102750000D02*
X56452500Y-102750000D01*
X56452500Y-102750000D02*
X55952500Y-102250000D01*
X142477500Y-54250000D02*
X149702500Y-54250000D01*
D31*
X67702500Y-45250000D02*
X214702500Y-45250000D01*
X225052500Y-53900000D02*
X233552500Y-53900000D01*
D30*
X113452500Y-100750000D02*
X115452500Y-102750000D01*
X78202500Y-54250000D02*
X75702500Y-51750000D01*
D28*
X63702500Y-65125000D02*
X63702500Y-63375000D01*
D30*
X66202500Y-51750000D02*
X63702500Y-49250000D01*
D31*
X225052500Y-83900000D02*
X223352500Y-83900000D01*
D30*
X140202500Y-101750000D02*
X141202500Y-102750000D01*
D28*
X79452500Y-63625000D02*
X80952500Y-62125000D01*
X160212500Y-87430000D02*
X163282500Y-90500000D01*
D31*
X220702500Y-81250000D02*
X220702500Y-67250000D01*
D30*
X113452500Y-96975000D02*
X113452500Y-100750000D01*
X149702500Y-54250000D02*
X155132500Y-59680000D01*
X142477500Y-54250000D02*
X99952500Y-54250000D01*
D28*
X87702500Y-65125000D02*
X87702500Y-63375000D01*
X88952500Y-62125000D02*
X89952500Y-62125000D01*
D30*
X89702500Y-54210000D02*
X78242500Y-54210000D01*
X141202500Y-102750000D02*
X135452500Y-102750000D01*
D31*
X220702500Y-67250000D02*
X220702500Y-55250000D01*
D30*
X134202500Y-99580000D02*
X134202500Y-101500000D01*
D28*
X63702500Y-63375000D02*
X64952500Y-62125000D01*
X171122500Y-90500000D02*
X163282500Y-90500000D01*
D31*
X222702500Y-53250000D02*
X223352500Y-53900000D01*
D30*
X194702500Y-104250000D02*
X193202500Y-102750000D01*
X219942500Y-104250000D02*
X194702500Y-104250000D01*
D31*
X233702500Y-83750000D02*
X225202500Y-83750000D01*
D30*
X134202500Y-101500000D02*
X135452500Y-102750000D01*
X99912500Y-54210000D02*
X99952500Y-54250000D01*
X225052500Y-99140000D02*
X219942500Y-104250000D01*
X135452500Y-102750000D02*
X115452500Y-102750000D01*
D31*
X225052500Y-99140000D02*
X221592500Y-99140000D01*
D30*
X75702500Y-51750000D02*
X66202500Y-51750000D01*
D28*
X71702500Y-65125000D02*
X71702500Y-63375000D01*
X87702500Y-63375000D02*
X88952500Y-62125000D01*
D31*
X223352500Y-83900000D02*
X220702500Y-81250000D01*
D28*
X79452500Y-65125000D02*
X79452500Y-63625000D01*
D31*
X221592500Y-99140000D02*
X220702500Y-98250000D01*
D28*
X71702500Y-63375000D02*
X72952500Y-62125000D01*
D31*
X220702500Y-98250000D02*
X220702500Y-81250000D01*
X220702500Y-55250000D02*
X222702500Y-53250000D01*
D28*
X160212500Y-79880000D02*
X160212500Y-87430000D01*
D30*
X193202500Y-102750000D02*
X141202500Y-102750000D01*
D31*
X63702500Y-49250000D02*
X67702500Y-45250000D01*
D30*
X155132500Y-59680000D02*
X155132500Y-64640000D01*
X89702500Y-54210000D02*
X99912500Y-54210000D01*
D31*
X214702500Y-45250000D02*
X222702500Y-53250000D01*
D30*
X140202500Y-99580000D02*
X140202500Y-101750000D01*
D28*
X64952500Y-62125000D02*
X72952500Y-62125000D01*
D31*
X54702500Y-49250000D02*
X63702500Y-49250000D01*
D28*
X72952500Y-62125000D02*
X89952500Y-62125000D01*
D30*
X78242500Y-54210000D02*
X78202500Y-54250000D01*
D31*
X222592500Y-69140000D02*
X220702500Y-67250000D01*
D30*
X233552500Y-53900000D02*
X233702500Y-53750000D01*
X225202500Y-83750000D02*
X225052500Y-83900000D01*
D31*
X225052500Y-69140000D02*
X222592500Y-69140000D01*
X223352500Y-53900000D02*
X225052500Y-53900000D01*
D28*
%TO.N,/Sig*%
X150052500Y-59600000D02*
X150052500Y-64640000D01*
X142477500Y-56750000D02*
X147202500Y-56750000D01*
X147202500Y-56750000D02*
X150052500Y-59600000D01*
%TO.N,Net-(A1-Pad7)*%
X147512500Y-64640000D02*
X147512500Y-67190000D01*
D29*
X147512500Y-67190000D02*
X147452500Y-67250000D01*
D28*
%TO.N,Net-(A1-Pad8)*%
X185952500Y-75500000D02*
X184952500Y-74500000D01*
X188952500Y-76500000D02*
X187952500Y-75500000D01*
X187952500Y-75500000D02*
X185952500Y-75500000D01*
%TO.N,Net-(A1-Pad9)*%
X212352500Y-66600000D02*
X205352500Y-66600000D01*
X202702500Y-69250000D02*
X143702500Y-69250000D01*
X143702500Y-69250000D02*
X142432500Y-67980000D01*
X142432500Y-67980000D02*
X142432500Y-64640000D01*
X205352500Y-66600000D02*
X202702500Y-69250000D01*
%TO.N,Net-(A1-Pad10)*%
X139892500Y-64640000D02*
X139892500Y-67310000D01*
D29*
X139892500Y-67310000D02*
X139702500Y-67500000D01*
D28*
%TO.N,Net-(A1-Pad12)*%
X160202500Y-96500000D02*
X160202500Y-94000000D01*
X153122500Y-88580000D02*
X155952500Y-85750000D01*
X134812500Y-57390000D02*
X134812500Y-64640000D01*
X160202500Y-94000000D02*
X156702500Y-90500000D01*
X153122500Y-90500000D02*
X153122500Y-88580000D01*
D29*
X134952500Y-57250000D02*
X134812500Y-57390000D01*
D28*
X156702500Y-90500000D02*
X153122500Y-90500000D01*
D29*
%TO.N,Net-(A1-Pad13)*%
X181282500Y-80670000D02*
X181452500Y-80500000D01*
D28*
X181282500Y-90500000D02*
X181282500Y-80670000D01*
X177702500Y-96500000D02*
X177702500Y-94080000D01*
D29*
X132202500Y-57000000D02*
X132272500Y-57070000D01*
D28*
X132272500Y-57070000D02*
X132272500Y-64640000D01*
X177702500Y-94080000D02*
X181282500Y-90500000D01*
%TO.N,Net-(A1-Pad19)*%
X69702500Y-71250000D02*
X118702500Y-71250000D01*
X66202500Y-67750000D02*
X69702500Y-71250000D01*
X66202500Y-65125000D02*
X66202500Y-67750000D01*
X118702500Y-71250000D02*
X124702500Y-77250000D01*
X134812500Y-78360000D02*
X134812500Y-79880000D01*
X133702500Y-77250000D02*
X134812500Y-78360000D01*
X124702500Y-77250000D02*
X133702500Y-77250000D01*
D29*
X66202500Y-65125000D02*
X66202500Y-66750000D01*
D28*
%TO.N,Net-(A1-Pad20)*%
X74202500Y-65250000D02*
X74202500Y-66750000D01*
D29*
X70702500Y-87250000D02*
X70862500Y-87410000D01*
D28*
X72702500Y-83330000D02*
X74622500Y-83330000D01*
X74622500Y-83330000D02*
X76702500Y-81250000D01*
X74202500Y-66750000D02*
X76702500Y-69250000D01*
X76702500Y-69250000D02*
X118702500Y-69250000D01*
X72702500Y-83330000D02*
X72702500Y-85250000D01*
X72702500Y-85250000D02*
X70702500Y-87250000D01*
%TO.N,Net-(A1-Pad21)*%
X82622500Y-83330000D02*
X83702500Y-82250000D01*
X119702500Y-67250000D02*
X83702500Y-67250000D01*
X80452500Y-83330000D02*
X82622500Y-83330000D01*
X82702500Y-67250000D02*
X81952500Y-66500000D01*
X83702500Y-67250000D02*
X82702500Y-67250000D01*
X81952500Y-66500000D02*
X81952500Y-65125000D01*
%TO.N,Net-(A1-Pad22)*%
X88702500Y-83330000D02*
X92622500Y-83330000D01*
X92622500Y-83330000D02*
X93702500Y-82250000D01*
X90202500Y-65125000D02*
X93827500Y-65125000D01*
X93827500Y-65125000D02*
X119577500Y-65125000D01*
%TO.N,/SDA*%
X115952500Y-94000000D02*
X125702500Y-84250000D01*
X125702500Y-84250000D02*
X143702500Y-84250000D01*
X115952500Y-96975000D02*
X115952500Y-94000000D01*
X144972500Y-82980000D02*
X144972500Y-79880000D01*
X143702500Y-84250000D02*
X144972500Y-82980000D01*
%TO.N,/SW1*%
X134202500Y-89420000D02*
X136372500Y-87250000D01*
X150052500Y-83900000D02*
X150052500Y-79880000D01*
X136372500Y-87250000D02*
X146702500Y-87250000D01*
X146702500Y-87250000D02*
X150052500Y-83900000D01*
%TO.N,/SW2*%
X123452500Y-93500000D02*
X123452500Y-96975000D01*
X124702500Y-92250000D02*
X123452500Y-93500000D01*
X140202500Y-89420000D02*
X146532500Y-89420000D01*
X127702500Y-92250000D02*
X124702500Y-92250000D01*
X152592500Y-83360000D02*
X152592500Y-79880000D01*
X146532500Y-89420000D02*
X152592500Y-83360000D01*
D31*
%TO.N,/12V*%
X215702500Y-42250000D02*
X168702500Y-42250000D01*
D30*
X50202500Y-46750000D02*
X54702500Y-46750000D01*
X225052500Y-51360000D02*
X224812500Y-51360000D01*
D31*
X61202500Y-46750000D02*
X54702500Y-46750000D01*
D30*
X169072500Y-79880000D02*
X169702500Y-79250000D01*
X89702500Y-56750000D02*
X50702500Y-56750000D01*
X162752500Y-79880000D02*
X169072500Y-79880000D01*
X48202500Y-48750000D02*
X50202500Y-46750000D01*
X48202500Y-54250000D02*
X48202500Y-48750000D01*
D31*
X65702500Y-42250000D02*
X61202500Y-46750000D01*
D30*
X50702500Y-56750000D02*
X48202500Y-54250000D01*
D31*
X168702500Y-42250000D02*
X65702500Y-42250000D01*
X224812500Y-51360000D02*
X215702500Y-42250000D01*
D30*
%TO.N,Net-(C8-Pad1)*%
X99952500Y-51750000D02*
X110702500Y-51750000D01*
X110702500Y-51750000D02*
X142477500Y-51750000D01*
X110952500Y-73500000D02*
X110952500Y-96975000D01*
X89782500Y-51750000D02*
X89702500Y-51670000D01*
X99952500Y-51750000D02*
X89782500Y-51750000D01*
X110702500Y-73250000D02*
X110952500Y-73500000D01*
%TO.N,Net-(J1-Pad1)*%
X241907500Y-91520000D02*
X225052500Y-91520000D01*
X243927500Y-89500000D02*
X241907500Y-91520000D01*
%TO.N,Net-(J1-Pad2)*%
X243927500Y-87000000D02*
X246952500Y-87000000D01*
X249202500Y-92870000D02*
X248012500Y-94060000D01*
X248012500Y-94060000D02*
X225052500Y-94060000D01*
X246952500Y-87000000D02*
X249202500Y-89250000D01*
X249202500Y-89250000D02*
X249202500Y-92870000D01*
%TO.N,Net-(J1-Pad3)*%
X225052500Y-88980000D02*
X237722500Y-88980000D01*
X242202500Y-84500000D02*
X243927500Y-84500000D01*
X237722500Y-88980000D02*
X242202500Y-84500000D01*
%TO.N,Net-(J1-Pad4)*%
X235952500Y-86500000D02*
X235892500Y-86440000D01*
X240452500Y-82000000D02*
X235952500Y-86500000D01*
X243927500Y-82000000D02*
X240452500Y-82000000D01*
X235892500Y-86440000D02*
X225052500Y-86440000D01*
%TO.N,Net-(J2-Pad1)*%
X244177500Y-70000000D02*
X236452500Y-70000000D01*
X227682500Y-61520000D02*
X227702500Y-61500000D01*
X225052500Y-61520000D02*
X227682500Y-61520000D01*
%TO.N,Net-(J2-Pad2)*%
X236952500Y-67500000D02*
X233512500Y-64060000D01*
X244177500Y-67500000D02*
X236952500Y-67500000D01*
X233512500Y-64060000D02*
X225052500Y-64060000D01*
%TO.N,Net-(J2-Pad3)*%
X225052500Y-58980000D02*
X231432500Y-58980000D01*
X237452500Y-65000000D02*
X244177500Y-65000000D01*
X231432500Y-58980000D02*
X237452500Y-65000000D01*
%TO.N,Net-(J2-Pad4)*%
X231892500Y-56440000D02*
X225052500Y-56440000D01*
X237952500Y-62500000D02*
X231892500Y-56440000D01*
X244177500Y-62500000D02*
X237952500Y-62500000D01*
D28*
%TO.N,Net-(SW1-Pad4)*%
X201730000Y-88980000D02*
X201555000Y-88805000D01*
X212352500Y-88980000D02*
X201730000Y-88980000D01*
%TO.N,Net-(SW1-Pad5)*%
X201730000Y-86440000D02*
X201555000Y-86265000D01*
X212352500Y-86440000D02*
X201730000Y-86440000D01*
%TO.N,Net-(SW1-Pad6)*%
X212352500Y-83900000D02*
X201730000Y-83900000D01*
X201730000Y-83900000D02*
X201555000Y-83725000D01*
%TO.N,Net-(SW2-Pad4)*%
X201555000Y-58805000D02*
X212177500Y-58805000D01*
D29*
X212177500Y-58805000D02*
X212352500Y-58980000D01*
D28*
%TO.N,Net-(SW2-Pad5)*%
X201730000Y-56440000D02*
X201555000Y-56265000D01*
X212352500Y-56440000D02*
X201730000Y-56440000D01*
%TO.N,Net-(SW2-Pad6)*%
X201555000Y-53725000D02*
X212177500Y-53725000D01*
D29*
X212177500Y-53725000D02*
X212352500Y-53900000D01*
D30*
%TO.N,Net-(U1-Pad5)*%
X212352500Y-94060000D02*
X212352500Y-91520000D01*
%TO.N,Net-(U2-Pad5)*%
X212352500Y-64060000D02*
X212352500Y-61520000D01*
D28*
%TO.N,Net-(A1-Pad27)*%
X175202500Y-96500000D02*
X175202500Y-98500000D01*
X155132500Y-79880000D02*
X157262500Y-77750000D01*
X80452500Y-73170000D02*
X88702500Y-73170000D01*
X193952500Y-97250000D02*
X193952500Y-96250000D01*
X193935000Y-58805000D02*
X193935000Y-53725000D01*
X157262500Y-77750000D02*
X184452500Y-77750000D01*
X108452500Y-86000000D02*
X108452500Y-74750000D01*
X158202500Y-99500000D02*
X174202500Y-99500000D01*
X157702500Y-96500000D02*
X157702500Y-99000000D01*
X193952500Y-96250000D02*
X193935000Y-96232500D01*
X228052500Y-66600000D02*
X228702500Y-67250000D01*
X193935000Y-83725000D02*
X193935000Y-96232500D01*
X155132500Y-79880000D02*
X155132500Y-83320000D01*
X190427500Y-83725000D02*
X193935000Y-83725000D01*
X184452500Y-77750000D02*
X190427500Y-83725000D01*
X191702500Y-99500000D02*
X193952500Y-99500000D01*
X72702500Y-73170000D02*
X80452500Y-73170000D01*
X225052500Y-66600000D02*
X228052500Y-66600000D01*
X191702500Y-99500000D02*
X193952500Y-97250000D01*
X195702500Y-101250000D02*
X214702500Y-101250000D01*
X175202500Y-98500000D02*
X174202500Y-99500000D01*
X155132500Y-83320000D02*
X151202500Y-87250000D01*
X193952500Y-99500000D02*
X195702500Y-101250000D01*
X174202500Y-99500000D02*
X191702500Y-99500000D01*
X108452500Y-74750000D02*
X106872500Y-73170000D01*
X64952500Y-73170000D02*
X72702500Y-73170000D01*
X106872500Y-73170000D02*
X88702500Y-73170000D01*
X157702500Y-99000000D02*
X158202500Y-99500000D01*
X214702500Y-101250000D02*
X216702500Y-99250000D01*
%TO.N,Net-(A1-Pad11)*%
X137352500Y-64640000D02*
X137352500Y-67400000D01*
D29*
X137352500Y-67400000D02*
X137452500Y-67500000D01*
%TD*%
M02*
