%TF.GenerationSoftware,KiCad,Pcbnew,(6.0.7)*%
%TF.CreationDate,2023-06-05T07:56:33+05:30*%
%TF.ProjectId,acpm-arduino_motor_part,6163706d-2d61-4726-9475-696e6f5f6d6f,rev?*%
%TF.SameCoordinates,Original*%
%TF.FileFunction,Copper,L1,Top*%
%TF.FilePolarity,Positive*%
%FSLAX46Y46*%
G04 Gerber Fmt 4.6, Leading zero omitted, Abs format (unit mm)*
G04 Created by KiCad (PCBNEW (6.0.7)) date 2023-06-05 07:56:33*
%MOMM*%
%LPD*%
G01*
G04 APERTURE LIST*
G04 Aperture macros list*
%AMRoundRect*
0 Rectangle with rounded corners*
0 $1 Rounding radius*
0 $2 $3 $4 $5 $6 $7 $8 $9 X,Y pos of 4 corners*
0 Add a 4 corners polygon primitive as box body*
4,1,4,$2,$3,$4,$5,$6,$7,$8,$9,$2,$3,0*
0 Add four circle primitives for the rounded corners*
1,1,$1+$1,$2,$3*
1,1,$1+$1,$4,$5*
1,1,$1+$1,$6,$7*
1,1,$1+$1,$8,$9*
0 Add four rect primitives between the rounded corners*
20,1,$1+$1,$2,$3,$4,$5,0*
20,1,$1+$1,$4,$5,$6,$7,0*
20,1,$1+$1,$6,$7,$8,$9,0*
20,1,$1+$1,$8,$9,$2,$3,0*%
G04 Aperture macros list end*
%TA.AperFunction,Profile*%
%ADD10C,0.100000*%
%TD*%
%TA.AperFunction,ComponentPad*%
%ADD11RoundRect,0.250000X-0.600000X-0.725000X0.600000X-0.725000X0.600000X0.725000X-0.600000X0.725000X0*%
%TD*%
%TA.AperFunction,ComponentPad*%
%ADD12O,1.700000X1.950000*%
%TD*%
%TA.AperFunction,ComponentPad*%
%ADD13RoundRect,0.250000X0.725000X-0.600000X0.725000X0.600000X-0.725000X0.600000X-0.725000X-0.600000X0*%
%TD*%
%TA.AperFunction,ComponentPad*%
%ADD14O,1.950000X1.700000*%
%TD*%
%TA.AperFunction,ComponentPad*%
%ADD15R,1.650000X1.650000*%
%TD*%
%TA.AperFunction,ComponentPad*%
%ADD16C,1.650000*%
%TD*%
%TA.AperFunction,ComponentPad*%
%ADD17RoundRect,0.250000X-0.750000X0.600000X-0.750000X-0.600000X0.750000X-0.600000X0.750000X0.600000X0*%
%TD*%
%TA.AperFunction,ComponentPad*%
%ADD18O,2.000000X1.700000*%
%TD*%
%TA.AperFunction,ComponentPad*%
%ADD19C,1.600000*%
%TD*%
%TA.AperFunction,ComponentPad*%
%ADD20R,1.600000X1.600000*%
%TD*%
%TA.AperFunction,ComponentPad*%
%ADD21O,1.600000X1.600000*%
%TD*%
%TA.AperFunction,ComponentPad*%
%ADD22R,2.000000X1.905000*%
%TD*%
%TA.AperFunction,ComponentPad*%
%ADD23O,2.000000X1.905000*%
%TD*%
%TA.AperFunction,ComponentPad*%
%ADD24RoundRect,0.250000X-0.600000X-0.750000X0.600000X-0.750000X0.600000X0.750000X-0.600000X0.750000X0*%
%TD*%
%TA.AperFunction,ComponentPad*%
%ADD25O,1.700000X2.000000*%
%TD*%
%TA.AperFunction,ComponentPad*%
%ADD26RoundRect,0.250000X-0.725000X0.600000X-0.725000X-0.600000X0.725000X-0.600000X0.725000X0.600000X0*%
%TD*%
%TA.AperFunction,ViaPad*%
%ADD27C,0.800000*%
%TD*%
%TA.AperFunction,Conductor*%
%ADD28C,0.500000*%
%TD*%
%TA.AperFunction,Conductor*%
%ADD29C,1.000000*%
%TD*%
%TA.AperFunction,Conductor*%
%ADD30C,0.250000*%
%TD*%
G04 APERTURE END LIST*
D10*
X39000000Y-38000000D02*
X259000000Y-38000000D01*
X259000000Y-38000000D02*
X259000000Y-108000000D01*
X259000000Y-108000000D02*
X39000000Y-108000000D01*
X39000000Y-108000000D02*
X39000000Y-38000000D01*
D11*
%TO.P,J8,1,Pin_1*%
%TO.N,/12V*%
X53452500Y-98975000D03*
D12*
%TO.P,J8,2,Pin_2*%
%TO.N,/GND*%
X55952500Y-98975000D03*
%TO.P,J8,3,Pin_3*%
%TO.N,Net-(A1-Pad11)*%
X58452500Y-98975000D03*
%TO.P,J8,4,Pin_4*%
%TO.N,Net-(A1-Pad10)*%
X60952500Y-98975000D03*
%TO.P,J8,5,Pin_5*%
%TO.N,Net-(A1-Pad7)*%
X63452500Y-98975000D03*
%TO.P,J8,6,Pin_6*%
%TO.N,Net-(A1-Pad5)*%
X65952500Y-98975000D03*
%TO.P,J8,7,Pin_7*%
%TO.N,Net-(A1-Pad19)*%
X68452500Y-98975000D03*
%TO.P,J8,8,Pin_8*%
%TO.N,Net-(A1-Pad20)*%
X70952500Y-98975000D03*
%TO.P,J8,9,Pin_9*%
%TO.N,Net-(A1-Pad21)*%
X73452500Y-98975000D03*
%TO.P,J8,10,Pin_10*%
%TO.N,Net-(A1-Pad22)*%
X75952500Y-98975000D03*
%TD*%
D13*
%TO.P,J2,1,Pin_1*%
%TO.N,Net-(J2-Pad1)*%
X244177500Y-70000000D03*
D14*
%TO.P,J2,2,Pin_2*%
%TO.N,Net-(J2-Pad2)*%
X244177500Y-67500000D03*
%TO.P,J2,3,Pin_3*%
%TO.N,Net-(J2-Pad3)*%
X244177500Y-65000000D03*
%TO.P,J2,4,Pin_4*%
%TO.N,Net-(J2-Pad4)*%
X244177500Y-62500000D03*
%TD*%
D15*
%TO.P,U2,1,~{EN}*%
%TO.N,unconnected-(U2-Pad1)*%
X212352500Y-51360000D03*
D16*
%TO.P,U2,2,M0*%
%TO.N,Net-(SW2-Pad6)*%
X212352500Y-53900000D03*
%TO.P,U2,3,M1*%
%TO.N,Net-(SW2-Pad5)*%
X212352500Y-56440000D03*
%TO.P,U2,4,M2*%
%TO.N,Net-(SW2-Pad4)*%
X212352500Y-58980000D03*
%TO.P,U2,5,~{RST}*%
%TO.N,Net-(U2-Pad5)*%
X212352500Y-61520000D03*
%TO.P,U2,6,~{SLP}*%
X212352500Y-64060000D03*
%TO.P,U2,7,STEP*%
%TO.N,Net-(A1-Pad9)*%
X212352500Y-66600000D03*
%TO.P,U2,8,DIR*%
%TO.N,Net-(A1-Pad15)*%
X212352500Y-69140000D03*
%TO.P,U2,9,GND*%
%TO.N,/GND*%
X225052500Y-69140000D03*
%TO.P,U2,10,~{FLT}*%
%TO.N,Net-(A1-Pad27)*%
X225052500Y-66600000D03*
%TO.P,U2,11,A2*%
%TO.N,Net-(J2-Pad2)*%
X225052500Y-64060000D03*
%TO.P,U2,12,A1*%
%TO.N,Net-(J2-Pad1)*%
X225052500Y-61520000D03*
%TO.P,U2,13,B1*%
%TO.N,Net-(J2-Pad3)*%
X225052500Y-58980000D03*
%TO.P,U2,14,B2*%
%TO.N,Net-(J2-Pad4)*%
X225052500Y-56440000D03*
%TO.P,U2,15,GND_MOT*%
%TO.N,/GND*%
X225052500Y-53900000D03*
%TO.P,U2,16,VMOT*%
%TO.N,/12V*%
X225052500Y-51360000D03*
%TD*%
D17*
%TO.P,J7,1,Pin_1*%
%TO.N,/12V*%
X54702500Y-46750000D03*
D18*
%TO.P,J7,2,Pin_2*%
%TO.N,/GND*%
X54702500Y-49250000D03*
%TD*%
D19*
%TO.P,C7,1*%
%TO.N,/12V*%
X66702500Y-56750000D03*
%TO.P,C7,2*%
%TO.N,/GND*%
X66702500Y-51750000D03*
%TD*%
D13*
%TO.P,J1,1,Pin_1*%
%TO.N,Net-(J1-Pad1)*%
X243927500Y-89500000D03*
D14*
%TO.P,J1,2,Pin_2*%
%TO.N,Net-(J1-Pad2)*%
X243927500Y-87000000D03*
%TO.P,J1,3,Pin_3*%
%TO.N,Net-(J1-Pad3)*%
X243927500Y-84500000D03*
%TO.P,J1,4,Pin_4*%
%TO.N,Net-(J1-Pad4)*%
X243927500Y-82000000D03*
%TD*%
D19*
%TO.P,C5,1*%
%TO.N,Net-(A1-Pad21)*%
X81952500Y-65125000D03*
%TO.P,C5,2*%
%TO.N,/GND*%
X79452500Y-65125000D03*
%TD*%
D20*
%TO.P,A1,1,D1/TX*%
%TO.N,unconnected-(A1-Pad1)*%
X162752500Y-64640000D03*
D21*
%TO.P,A1,2,D0/RX*%
%TO.N,unconnected-(A1-Pad2)*%
X160212500Y-64640000D03*
%TO.P,A1,3,~{RESET}*%
%TO.N,unconnected-(A1-Pad3)*%
X157672500Y-64640000D03*
%TO.P,A1,4,GND*%
%TO.N,/GND*%
X155132500Y-64640000D03*
%TO.P,A1,5,D2*%
%TO.N,Net-(A1-Pad5)*%
X152592500Y-64640000D03*
%TO.P,A1,6,D3*%
%TO.N,/Sig*%
X150052500Y-64640000D03*
%TO.P,A1,7,D4*%
%TO.N,Net-(A1-Pad7)*%
X147512500Y-64640000D03*
%TO.P,A1,8,D5*%
%TO.N,Net-(A1-Pad8)*%
X144972500Y-64640000D03*
%TO.P,A1,9,D6*%
%TO.N,Net-(A1-Pad9)*%
X142432500Y-64640000D03*
%TO.P,A1,10,D7*%
%TO.N,Net-(A1-Pad10)*%
X139892500Y-64640000D03*
%TO.P,A1,11,D8*%
%TO.N,Net-(A1-Pad11)*%
X137352500Y-64640000D03*
%TO.P,A1,12,D9*%
%TO.N,Net-(A1-Pad12)*%
X134812500Y-64640000D03*
%TO.P,A1,13,D10*%
%TO.N,Net-(A1-Pad13)*%
X132272500Y-64640000D03*
%TO.P,A1,14,D11*%
%TO.N,Net-(A1-Pad14)*%
X129732500Y-64640000D03*
%TO.P,A1,15,D12*%
%TO.N,Net-(A1-Pad15)*%
X127192500Y-64640000D03*
%TO.P,A1,16,D13*%
%TO.N,unconnected-(A1-Pad16)*%
X127192500Y-79880000D03*
%TO.P,A1,17,3V3*%
%TO.N,unconnected-(A1-Pad17)*%
X129732500Y-79880000D03*
%TO.P,A1,18,AREF*%
%TO.N,unconnected-(A1-Pad18)*%
X132272500Y-79880000D03*
%TO.P,A1,19,A0*%
%TO.N,Net-(A1-Pad19)*%
X134812500Y-79880000D03*
%TO.P,A1,20,A1*%
%TO.N,Net-(A1-Pad20)*%
X137352500Y-79880000D03*
%TO.P,A1,21,A2*%
%TO.N,Net-(A1-Pad21)*%
X139892500Y-79880000D03*
%TO.P,A1,22,A3*%
%TO.N,Net-(A1-Pad22)*%
X142432500Y-79880000D03*
%TO.P,A1,23,A4*%
%TO.N,/SDA*%
X144972500Y-79880000D03*
%TO.P,A1,24,A5*%
%TO.N,/SCL*%
X147512500Y-79880000D03*
%TO.P,A1,25,A6*%
%TO.N,/SW1*%
X150052500Y-79880000D03*
%TO.P,A1,26,A7*%
%TO.N,/SW2*%
X152592500Y-79880000D03*
%TO.P,A1,27,+5V*%
%TO.N,Net-(A1-Pad27)*%
X155132500Y-79880000D03*
%TO.P,A1,28,~{RESET}*%
%TO.N,unconnected-(A1-Pad28)*%
X157672500Y-79880000D03*
%TO.P,A1,29,GND*%
%TO.N,/GND*%
X160212500Y-79880000D03*
%TO.P,A1,30,VIN*%
%TO.N,/12V*%
X162752500Y-79880000D03*
%TD*%
D22*
%TO.P,U3,1,VI*%
%TO.N,/12V*%
X89702500Y-56750000D03*
D23*
%TO.P,U3,2,GND*%
%TO.N,/GND*%
X89702500Y-54210000D03*
%TO.P,U3,3,VO*%
%TO.N,Net-(C8-Pad1)*%
X89702500Y-51670000D03*
%TD*%
D19*
%TO.P,C3,1*%
%TO.N,Net-(A1-Pad19)*%
X66202500Y-65125000D03*
%TO.P,C3,2*%
%TO.N,/GND*%
X63702500Y-65125000D03*
%TD*%
%TO.P,R2,1*%
%TO.N,Net-(A1-Pad27)*%
X72702500Y-73170000D03*
D21*
%TO.P,R2,2*%
%TO.N,Net-(A1-Pad20)*%
X72702500Y-83330000D03*
%TD*%
D19*
%TO.P,C8,1*%
%TO.N,Net-(C8-Pad1)*%
X99952500Y-51750000D03*
%TO.P,C8,2*%
%TO.N,/GND*%
X99952500Y-54250000D03*
%TD*%
%TO.P,R6,1*%
%TO.N,/SW2*%
X140202500Y-89420000D03*
D21*
%TO.P,R6,2*%
%TO.N,/GND*%
X140202500Y-99580000D03*
%TD*%
D11*
%TO.P,J3,1,Pin_1*%
%TO.N,Net-(C8-Pad1)*%
X110952500Y-96975000D03*
D12*
%TO.P,J3,2,Pin_2*%
%TO.N,/GND*%
X113452500Y-96975000D03*
%TO.P,J3,3,Pin_3*%
%TO.N,/SDA*%
X115952500Y-96975000D03*
%TO.P,J3,4,Pin_4*%
%TO.N,/SCL*%
X118452500Y-96975000D03*
%TO.P,J3,5,Pin_5*%
%TO.N,/SW1*%
X120952500Y-96975000D03*
%TO.P,J3,6,Pin_6*%
%TO.N,/SW2*%
X123452500Y-96975000D03*
%TD*%
D19*
%TO.P,C6,1*%
%TO.N,Net-(A1-Pad22)*%
X90202500Y-65125000D03*
%TO.P,C6,2*%
%TO.N,/GND*%
X87702500Y-65125000D03*
%TD*%
%TO.P,R4,1*%
%TO.N,Net-(A1-Pad27)*%
X88702500Y-73170000D03*
D21*
%TO.P,R4,2*%
%TO.N,Net-(A1-Pad22)*%
X88702500Y-83330000D03*
%TD*%
D24*
%TO.P,J4,1,Pin_1*%
%TO.N,Net-(A1-Pad27)*%
X157702500Y-96500000D03*
D25*
%TO.P,J4,2,Pin_2*%
%TO.N,Net-(A1-Pad12)*%
X160202500Y-96500000D03*
%TD*%
D20*
%TO.P,SW2,1*%
%TO.N,Net-(A1-Pad27)*%
X193935000Y-53725000D03*
D21*
%TO.P,SW2,2*%
X193935000Y-56265000D03*
%TO.P,SW2,3*%
X193935000Y-58805000D03*
%TO.P,SW2,4*%
%TO.N,Net-(SW2-Pad4)*%
X201555000Y-58805000D03*
%TO.P,SW2,5*%
%TO.N,Net-(SW2-Pad5)*%
X201555000Y-56265000D03*
%TO.P,SW2,6*%
%TO.N,Net-(SW2-Pad6)*%
X201555000Y-53725000D03*
%TD*%
D19*
%TO.P,C4,1*%
%TO.N,Net-(A1-Pad20)*%
X74202500Y-65250000D03*
%TO.P,C4,2*%
%TO.N,/GND*%
X71702500Y-65250000D03*
%TD*%
%TO.P,R5,1*%
%TO.N,/SW1*%
X134202500Y-89420000D03*
D21*
%TO.P,R5,2*%
%TO.N,/GND*%
X134202500Y-99580000D03*
%TD*%
D19*
%TO.P,R1,1*%
%TO.N,Net-(A1-Pad27)*%
X64952500Y-73170000D03*
D21*
%TO.P,R1,2*%
%TO.N,Net-(A1-Pad19)*%
X64952500Y-83330000D03*
%TD*%
D19*
%TO.P,R8,1*%
%TO.N,Net-(A1-Pad13)*%
X181282500Y-90500000D03*
D21*
%TO.P,R8,2*%
%TO.N,/GND*%
X171122500Y-90500000D03*
%TD*%
D24*
%TO.P,J5,1,Pin_1*%
%TO.N,Net-(A1-Pad27)*%
X175202500Y-96500000D03*
D25*
%TO.P,J5,2,Pin_2*%
%TO.N,Net-(A1-Pad13)*%
X177702500Y-96500000D03*
%TD*%
D20*
%TO.P,SW1,1*%
%TO.N,Net-(A1-Pad27)*%
X193935000Y-83725000D03*
D21*
%TO.P,SW1,2*%
X193935000Y-86265000D03*
%TO.P,SW1,3*%
X193935000Y-88805000D03*
%TO.P,SW1,4*%
%TO.N,Net-(SW1-Pad4)*%
X201555000Y-88805000D03*
%TO.P,SW1,5*%
%TO.N,Net-(SW1-Pad5)*%
X201555000Y-86265000D03*
%TO.P,SW1,6*%
%TO.N,Net-(SW1-Pad6)*%
X201555000Y-83725000D03*
%TD*%
D26*
%TO.P,J6,1,Pin_1*%
%TO.N,Net-(C8-Pad1)*%
X142477500Y-51750000D03*
D14*
%TO.P,J6,2,Pin_2*%
%TO.N,/GND*%
X142477500Y-54250000D03*
%TO.P,J6,3,Pin_3*%
%TO.N,/Sig*%
X142477500Y-56750000D03*
%TD*%
D20*
%TO.P,C1,1*%
%TO.N,/12V*%
X233702500Y-81250000D03*
D19*
%TO.P,C1,2*%
%TO.N,/GND*%
X233702500Y-83750000D03*
%TD*%
D15*
%TO.P,U1,1,~{EN}*%
%TO.N,unconnected-(U1-Pad1)*%
X212352500Y-81360000D03*
D16*
%TO.P,U1,2,M0*%
%TO.N,Net-(SW1-Pad6)*%
X212352500Y-83900000D03*
%TO.P,U1,3,M1*%
%TO.N,Net-(SW1-Pad5)*%
X212352500Y-86440000D03*
%TO.P,U1,4,M2*%
%TO.N,Net-(SW1-Pad4)*%
X212352500Y-88980000D03*
%TO.P,U1,5,~{RST}*%
%TO.N,Net-(U1-Pad5)*%
X212352500Y-91520000D03*
%TO.P,U1,6,~{SLP}*%
X212352500Y-94060000D03*
%TO.P,U1,7,STEP*%
%TO.N,Net-(A1-Pad8)*%
X212352500Y-96600000D03*
%TO.P,U1,8,DIR*%
%TO.N,Net-(A1-Pad14)*%
X212352500Y-99140000D03*
%TO.P,U1,9,GND*%
%TO.N,/GND*%
X225052500Y-99140000D03*
%TO.P,U1,10,~{FLT}*%
%TO.N,Net-(A1-Pad27)*%
X225052500Y-96600000D03*
%TO.P,U1,11,A2*%
%TO.N,Net-(J1-Pad2)*%
X225052500Y-94060000D03*
%TO.P,U1,12,A1*%
%TO.N,Net-(J1-Pad1)*%
X225052500Y-91520000D03*
%TO.P,U1,13,B1*%
%TO.N,Net-(J1-Pad3)*%
X225052500Y-88980000D03*
%TO.P,U1,14,B2*%
%TO.N,Net-(J1-Pad4)*%
X225052500Y-86440000D03*
%TO.P,U1,15,GND_MOT*%
%TO.N,/GND*%
X225052500Y-83900000D03*
%TO.P,U1,16,VMOT*%
%TO.N,/12V*%
X225052500Y-81360000D03*
%TD*%
D19*
%TO.P,R3,1*%
%TO.N,Net-(A1-Pad27)*%
X80452500Y-73170000D03*
D21*
%TO.P,R3,2*%
%TO.N,Net-(A1-Pad21)*%
X80452500Y-83330000D03*
%TD*%
D19*
%TO.P,R7,1*%
%TO.N,Net-(A1-Pad12)*%
X153122500Y-90500000D03*
D21*
%TO.P,R7,2*%
%TO.N,/GND*%
X163282500Y-90500000D03*
%TD*%
D20*
%TO.P,C2,1*%
%TO.N,/12V*%
X233702500Y-51317621D03*
D19*
%TO.P,C2,2*%
%TO.N,/GND*%
X233702500Y-53817621D03*
%TD*%
D27*
%TO.N,Net-(A1-Pad5)*%
X66452500Y-95750000D03*
X152550000Y-67150000D03*
%TO.N,Net-(A1-Pad7)*%
X64202500Y-94500000D03*
X147452500Y-67250000D03*
%TO.N,Net-(A1-Pad8)*%
X188952500Y-76500000D03*
X184952500Y-74500000D03*
%TO.N,Net-(A1-Pad10)*%
X139702500Y-67500000D03*
X61702500Y-94000000D03*
%TO.N,Net-(A1-Pad12)*%
X134952500Y-57250000D03*
X178452500Y-66750000D03*
X155952500Y-85750000D03*
X138202500Y-49250000D03*
%TO.N,Net-(A1-Pad13)*%
X181702500Y-67000000D03*
X181452500Y-80500000D03*
X132202500Y-57000000D03*
X136702500Y-47750000D03*
%TO.N,Net-(A1-Pad20)*%
X76702500Y-69250000D03*
X76702500Y-81250000D03*
%TO.N,Net-(A1-Pad21)*%
X83702500Y-82250000D03*
X83702500Y-67250000D03*
%TO.N,Net-(A1-Pad22)*%
X93702500Y-82250000D03*
X93827500Y-65125000D03*
%TO.N,/SW2*%
X127702500Y-92250000D03*
X137600000Y-91150000D03*
%TO.N,/12V*%
X169700000Y-55650000D03*
X169702500Y-79250000D03*
X169702500Y-67250000D03*
X168702500Y-42250000D03*
%TO.N,Net-(C8-Pad1)*%
X110702500Y-73250000D03*
X110702500Y-51750000D03*
%TO.N,Net-(J2-Pad1)*%
X236452500Y-70000000D03*
X227702500Y-61500000D03*
%TO.N,Net-(A1-Pad27)*%
X228702500Y-67250000D03*
X151202500Y-87250000D03*
X108452500Y-86000000D03*
X218452500Y-101000000D03*
X225702500Y-103250000D03*
X228650000Y-96500000D03*
%TO.N,Net-(A1-Pad11)*%
X137452500Y-67500000D03*
X59202500Y-92500000D03*
%TD*%
D28*
%TO.N,Net-(A1-Pad5)*%
X101952500Y-84500000D02*
X91202500Y-95250000D01*
X66952500Y-95250000D02*
X66452500Y-95750000D01*
X122202500Y-77000000D02*
X114702500Y-84500000D01*
X149452500Y-77000000D02*
X122202500Y-77000000D01*
X91202500Y-95250000D02*
X66952500Y-95250000D01*
X152550000Y-67150000D02*
X152550000Y-73902500D01*
X114702500Y-84500000D02*
X101952500Y-84500000D01*
X152550000Y-73902500D02*
X149452500Y-77000000D01*
D29*
%TO.N,/12V*%
X169702500Y-55647500D02*
X169702500Y-43250000D01*
X169700000Y-55650000D02*
X169702500Y-55647500D01*
X169702500Y-43250000D02*
X168702500Y-42250000D01*
D28*
%TO.N,Net-(A1-Pad12)*%
X178450000Y-82752500D02*
X178450000Y-82750000D01*
X155952500Y-85750000D02*
X175452500Y-85750000D01*
X175452500Y-85750000D02*
X178450000Y-82752500D01*
%TO.N,/SW2*%
X136500000Y-92250000D02*
X127702500Y-92250000D01*
X137600000Y-91150000D02*
X136500000Y-92250000D01*
%TO.N,Net-(A1-Pad13)*%
X181700000Y-67002500D02*
X181702500Y-67000000D01*
X181700000Y-80252500D02*
X181700000Y-67002500D01*
X181452500Y-80500000D02*
X181700000Y-80252500D01*
%TO.N,Net-(A1-Pad27)*%
X229650000Y-68197500D02*
X229650000Y-95505000D01*
X229650000Y-95505000D02*
X228702500Y-96452500D01*
X228702500Y-67250000D02*
X229650000Y-68197500D01*
%TO.N,Net-(A1-Pad7)*%
X101200000Y-83250000D02*
X113550000Y-83250000D01*
X146452500Y-75250000D02*
X147452500Y-74250000D01*
X147452500Y-74250000D02*
X147452500Y-67250000D01*
X90600000Y-93850000D02*
X101200000Y-83250000D01*
X121550000Y-75250000D02*
X146452500Y-75250000D01*
X64852500Y-93850000D02*
X90600000Y-93850000D01*
X64202500Y-94500000D02*
X64852500Y-93850000D01*
X113550000Y-83250000D02*
X121550000Y-75250000D01*
%TO.N,Net-(A1-Pad10)*%
X112550000Y-82000000D02*
X120550000Y-74000000D01*
X100350000Y-82000000D02*
X112550000Y-82000000D01*
X138452500Y-74000000D02*
X139702500Y-72750000D01*
X63202500Y-92500000D02*
X89850000Y-92500000D01*
X89850000Y-92500000D02*
X100350000Y-82000000D01*
X139702500Y-72750000D02*
X139702500Y-67500000D01*
X61702500Y-94000000D02*
X63202500Y-92500000D01*
X120550000Y-74000000D02*
X138452500Y-74000000D01*
%TO.N,Net-(A1-Pad27)*%
X222702500Y-103250000D02*
X225702500Y-103250000D01*
X220452500Y-101000000D02*
X222702500Y-103250000D01*
X218452500Y-101000000D02*
X220452500Y-101000000D01*
D30*
%TO.N,Net-(A1-Pad13)*%
X136702500Y-47750000D02*
X135952500Y-47750000D01*
D28*
X132202500Y-51500000D02*
X132202500Y-57000000D01*
X135952500Y-47750000D02*
X132202500Y-51500000D01*
%TO.N,Net-(A1-Pad12)*%
X137952500Y-49250000D02*
X134952500Y-52250000D01*
D30*
X138202500Y-49250000D02*
X137952500Y-49250000D01*
D28*
X134952500Y-52250000D02*
X134952500Y-57250000D01*
%TO.N,/GND*%
X155132500Y-67930000D02*
X155132500Y-64640000D01*
X160212500Y-79880000D02*
X160212500Y-73010000D01*
X160212500Y-73010000D02*
X155132500Y-67930000D01*
%TO.N,Net-(A1-Pad8)*%
X188952500Y-76500000D02*
X188952500Y-89750000D01*
X212352500Y-96600000D02*
X197352500Y-96600000D01*
X146202500Y-62000000D02*
X144972500Y-63230000D01*
X188952500Y-89750000D02*
X195802500Y-96600000D01*
X144972500Y-63230000D02*
X144972500Y-64640000D01*
X195802500Y-96600000D02*
X197352500Y-96600000D01*
X179702500Y-62000000D02*
X146202500Y-62000000D01*
X184952500Y-74500000D02*
X184952500Y-67250000D01*
X184952500Y-67250000D02*
X179702500Y-62000000D01*
%TO.N,Net-(A1-Pad12)*%
X178452500Y-82750000D02*
X178452500Y-66750000D01*
%TO.N,Net-(A1-Pad14)*%
X180452500Y-60250000D02*
X131452500Y-60250000D01*
X195842500Y-99140000D02*
X186952500Y-90250000D01*
X212352500Y-99140000D02*
X195842500Y-99140000D01*
X186952500Y-66750000D02*
X180452500Y-60250000D01*
X186952500Y-90250000D02*
X186952500Y-66750000D01*
X131452500Y-60250000D02*
X129732500Y-61970000D01*
X129732500Y-61970000D02*
X129732500Y-64640000D01*
%TO.N,Net-(A1-Pad20)*%
X76702500Y-81250000D02*
X76702500Y-69250000D01*
%TO.N,Net-(A1-Pad21)*%
X83702500Y-82250000D02*
X83702500Y-67250000D01*
%TO.N,Net-(A1-Pad22)*%
X93702500Y-82250000D02*
X93702500Y-65250000D01*
D30*
X93702500Y-65250000D02*
X93827500Y-65125000D01*
D29*
%TO.N,/12V*%
X169702500Y-79250000D02*
X169702500Y-67250000D01*
%TO.N,Net-(C8-Pad1)*%
X110702500Y-51750000D02*
X110702500Y-73250000D01*
%TO.N,Net-(J2-Pad1)*%
X227702500Y-61500000D02*
X236202500Y-70000000D01*
X236202500Y-70000000D02*
X236452500Y-70000000D01*
D28*
%TO.N,Net-(A1-Pad27)*%
X109702500Y-87250000D02*
X108452500Y-86000000D01*
X151202500Y-87250000D02*
X109702500Y-87250000D01*
%TO.N,Net-(A1-Pad11)*%
X119452500Y-72750000D02*
X136202500Y-72750000D01*
X59202500Y-92500000D02*
X60702500Y-91000000D01*
X136202500Y-72750000D02*
X137452500Y-71500000D01*
X60702500Y-91000000D02*
X89202500Y-91000000D01*
X137452500Y-71500000D02*
X137452500Y-67500000D01*
X111702500Y-80500000D02*
X119452500Y-72750000D01*
X99702500Y-80500000D02*
X111702500Y-80500000D01*
X89202500Y-91000000D02*
X99702500Y-80500000D01*
%TD*%
M02*
